<svg width="300" height="72" viewBox="0 0 300 72" fill="none" xmlns="http://www.w3.org/2000/svg">
<path d="M0 57.3872L15.7765 14.233H24.6595L40.4416 57.3872H32.0546L28.6023 47.4H11.7721L8.25814 57.3872H0ZM13.927 41.2352H26.4445L20.1564 23.2954L13.9298 41.2352H13.927ZM80.2836 26.8093V57.3872H73.3173L72.7008 52.2087C71.762 54.0104 70.3292 55.5073 68.5703 56.5241C66.8049 57.5917 64.7088 58.1269 62.2821 58.1269C58.5019 58.1269 55.5624 56.936 53.4663 54.5513C51.3703 52.1694 50.3223 48.6751 50.3223 44.071V26.8093H58.2133V43.3312C58.2133 45.9625 58.7485 47.9773 59.8162 49.3728C60.8866 50.7711 62.5511 51.4689 64.8097 51.4689C67.0291 51.4689 68.8393 50.6898 70.2348 49.1262C71.6752 47.5654 72.3925 45.3853 72.3925 42.5914V26.8093H80.2836ZM107.552 57.3872C104.346 57.3872 101.779 56.6081 99.8459 55.0445C97.9123 53.4837 96.9484 50.7095 96.9484 46.7219V33.4058H91.7082V26.8093H96.9484L97.8731 18.61H104.839V26.8093H113.1V33.4058H104.839V46.7836C104.839 48.2631 105.148 49.2915 105.764 49.866C106.423 50.3984 107.53 50.6674 109.093 50.6674H112.915V57.3872H107.552ZM139.371 58.1269C136.412 58.1269 133.739 57.4488 131.357 56.0925C129.026 54.7483 127.091 52.8133 125.747 50.4825C124.391 48.0586 123.712 45.2648 123.712 42.0982C123.712 38.9317 124.41 36.1575 125.808 33.7757C127.139 31.4183 129.076 29.46 131.418 28.104C133.8 26.7477 136.474 26.0696 139.433 26.0696C142.35 26.0696 144.981 26.7477 147.324 28.104C149.684 29.4368 151.627 31.4008 152.934 33.7757C154.329 36.1575 155.03 38.9317 155.03 42.0982C155.03 45.2648 154.329 48.0586 152.934 50.4825C151.613 52.8309 149.672 54.7714 147.324 56.0925C144.939 57.4488 142.288 58.1269 139.371 58.1269ZM139.371 51.2839C141.425 51.2839 143.213 50.5245 144.735 49.0029C146.253 47.4421 147.016 45.1415 147.016 42.0982C147.016 39.0578 146.253 36.774 144.735 35.2552C143.213 33.6944 141.445 32.9126 139.433 32.9126C137.337 32.9126 135.527 33.6944 134.008 35.2552C132.528 36.7768 131.788 39.0578 131.788 42.0982C131.788 45.1387 132.528 47.4421 134.008 49.0029C135.527 50.5245 137.314 51.2839 139.371 51.2839ZM182.607 58.1269C179.443 58.1269 176.649 57.5945 174.225 56.5241C171.798 55.4144 169.887 53.8536 168.489 51.8388C167.094 49.7847 166.373 47.2992 166.331 44.3793H174.654C174.738 46.394 175.455 48.0978 176.812 49.4961C178.213 50.8524 180.121 51.5305 182.548 51.5305C184.644 51.5305 186.308 51.0373 187.541 50.0509C188.774 49.0225 189.391 47.6691 189.391 45.9821C189.391 44.2167 188.836 42.838 187.726 41.8517C186.656 40.8653 185.218 40.0638 183.411 39.4473L177.613 37.4746C174.284 36.3257 171.737 34.8433 169.971 33.0359C168.242 31.2284 167.379 28.8241 167.379 25.823C167.34 23.2729 167.937 21.0956 169.17 19.2882C170.442 17.4387 172.168 16.0208 174.346 15.0344C176.526 14.006 179.031 13.4932 181.867 13.4932C184.745 13.4932 187.275 14.006 189.452 15.0344C191.669 16.0628 193.398 17.5004 194.631 19.3498C195.903 21.1993 196.581 23.399 196.663 25.9463H188.217C188.177 24.4246 187.581 23.088 186.429 21.9391C185.322 20.7481 183.758 20.1513 181.746 20.1513C180.02 20.1092 178.56 20.5436 177.366 21.4459C176.218 22.309 175.64 23.584 175.64 25.2681C175.64 26.7057 176.094 27.8574 176.999 28.7205C177.902 29.5415 179.135 30.2421 180.698 30.8165C182.259 31.391 184.047 32.0075 186.059 32.666C188.197 33.4058 190.15 34.2688 191.916 35.2552C193.638 36.1993 195.1 37.5547 196.172 39.2008C197.237 40.8036 197.775 42.8801 197.775 45.4273C197.775 47.6887 197.198 49.7847 196.046 51.7155C194.897 53.649 193.191 55.2098 190.929 56.4008C188.671 57.5497 185.896 58.1269 182.607 58.1269ZM224.749 58.1269C221.79 58.1269 219.12 57.4488 216.735 56.0925C214.404 54.7481 212.469 52.8131 211.125 50.4825C209.769 48.0586 209.09 45.2648 209.09 42.0982C209.09 38.9317 209.791 36.1575 211.186 33.7757C212.517 31.4184 214.454 29.4601 216.796 28.104C219.181 26.7477 221.852 26.0696 224.811 26.0696C227.731 26.0696 230.359 26.7477 232.702 28.104C235.062 29.4367 237.005 31.4007 238.312 33.7757C239.713 36.1575 240.408 38.9317 240.408 42.0982C240.408 45.2648 239.71 48.0586 238.312 50.4825C236.991 52.831 235.05 54.7716 232.702 56.0925C230.32 57.4488 227.669 58.1269 224.749 58.1269ZM224.749 51.2839C226.806 51.2839 228.594 50.5245 230.113 49.0029C231.634 47.4421 232.394 45.1415 232.394 42.0982C232.394 39.0578 231.637 36.774 230.113 35.2552C228.594 33.6944 226.826 32.9126 224.811 32.9126C222.715 32.9126 220.907 33.6944 219.386 35.2552C217.906 36.7768 217.166 39.0578 217.166 42.0982C217.166 45.1387 217.906 47.4421 219.386 49.0029C220.907 50.5245 222.695 51.2839 224.749 51.2839ZM254.486 57.3872V33.4058H250.294V26.8093H254.486V23.2337C254.486 19.5348 255.411 16.9035 257.261 15.3427C259.152 13.7846 261.699 13 264.905 13H268.296V19.7197H266.138C264.782 19.7197 263.818 19.9859 263.24 20.5212C262.666 21.0536 262.377 21.9587 262.377 23.2337V26.8093H268.974V33.4058H262.377V57.3872H254.486ZM294.452 57.3872C291.246 57.3872 288.679 56.6081 286.745 55.0445C284.815 53.4837 283.848 50.7095 283.848 46.7219V33.4058H278.608V26.8093H283.848L284.773 18.61H291.739V26.8093H300V33.4058H291.739V46.7836C291.739 48.2631 292.047 49.2915 292.664 49.866C293.322 50.3984 294.432 50.6674 295.993 50.6674H299.815V57.3872H294.452Z" fill="black"/>
</svg>
