<?xml version="1.0" encoding="utf-8"?>
<!-- Generator: Adobe Illustrator 29.3.1, SVG Export Plug-In . SVG Version: 9.03 Build 55982)  -->
<svg version="1.0" id="Vrstva_1" xmlns="http://www.w3.org/2000/svg" xmlns:xlink="http://www.w3.org/1999/xlink" x="0px" y="0px"
	 viewBox="0 0 451.3 70" style="enable-background:new 0 0 451.3 70;" xml:space="preserve">
<path d="M157.2,9.8h-39.1c-2.7,0-4.8,2.1-4.8,4.9V44c0,2.7,2.1,4.8,4.8,4.8h39.1c2.8,0,4.9-2.1,4.9-4.8V14.7
	C162.1,11.9,159.9,9.8,157.2,9.8z M152.3,39.3H123v-20h29.3V39.3z M83.9,9.8H49.7c-2.7,0-4.9,2.1-4.9,4.9V44c0,2.7,2.1,4.8,4.9,4.8
	h39.1c2.8,0,4.9-2.1,4.9-4.8V0h-9.8V9.8z M83.9,39.3H54.6v-20h29.3V39.3z M65.4,62.8l-1.2-0.3l-3.7-0.4c0,0-8.7-1-11-1.2
	c-2.3-0.2-9-1-13-1.2c-4-0.3-10.6-0.6-10.6-0.6s-9.1-1-11.3-1.2c-2.2-0.2-0.4-0.6-0.4-0.6l3.6-1c0,0,4.6-1.3,7-2.4
	c2.4-1.1,2.8-3.9,2.8-3.9s0.3-2.6,0.5-5.1c0.2-2.6-5.1-1-5.1-1s-2.6,0.8-5.9,1.7c-3.3,0.9-6.7,1.5-10.3,2.2
	c-3.6,0.8-5.3,2.6-6.2,5.4c-1,2.8-0.4,4-0.3,8.5c0.2,4.5,4.5,5.8,6.2,6.5c1.7,0.7,9.4,1.2,9.9,1.2c0.5,0,11.8,0.2,11.8,0.2
	s12.5,0.2,19.4,0.3c6.9,0.1,10-1.5,12.3-2.4c2.3-0.8,4.1-1.7,6.5-3.3C68.7,62.8,65.4,62.8,65.4,62.8z M219.7,39.3h-24.5v-20h24.5
	V9.8h-24.5V0h-9.8v9.8h-4.9v9.6h4.9V44c0,3.1,2.1,4.8,4.9,4.8h34.2c2.7,0,4.9-2.1,4.9-4.8v-11l-9.8,1.2V39.3z M314.5,48.9h9.8V14.7
	h-9.8V48.9z M373.1,48.9h9.8V0h-9.8V48.9z M246.1,19h32.2l-32.2,21v8.8H295v-9.3h-32.2l32.2-21V9.8h-48.8V19z M446.3,9.8h-39.1
	c-2.7,0-4.8,2.1-4.8,4.9v8l9.8-1.2v-2.9h29.3v6.8h-34.2c-2.6,0-4.8,1.9-4.8,4.6v14c0,2.7,2.1,4.8,4.8,4.8h39.1
	c2.8,0,4.9-2.1,4.9-4.8V14.7C451.3,11.9,449.1,9.8,446.3,9.8z M441.5,40h-29.3v-5.8h29.3V40z M343.8,48.9h9.8V0h-9.8V48.9z
	 M314.5,9.8h9.8V0h-9.8V9.8z"/>
</svg>
