<?xml version="1.0" encoding="UTF-8" standalone="no"?>
<svg
   width="300"
   height="72"
   viewBox="0 0 300 72"
   fill="none"
   version="1.1"
   id="svg15"
   sodipodi:docname="eag-color.svg"
   inkscape:version="1.3.2 (091e20e, 2023-11-25)"
   xmlns:inkscape="http://www.inkscape.org/namespaces/inkscape"
   xmlns:sodipodi="http://sodipodi.sourceforge.net/DTD/sodipodi-0.dtd"
   xmlns="http://www.w3.org/2000/svg"
   xmlns:svg="http://www.w3.org/2000/svg">
  <defs
     id="defs15" />
  <sodipodi:namedview
     id="namedview15"
     pagecolor="#ffffff"
     bordercolor="#000000"
     borderopacity="0.25"
     inkscape:showpageshadow="2"
     inkscape:pageopacity="0.0"
     inkscape:pagecheckerboard="0"
     inkscape:deskcolor="#d1d1d1"
     inkscape:zoom="1.9566667"
     inkscape:cx="150.25554"
     inkscape:cy="35.775128"
     inkscape:window-width="1728"
     inkscape:window-height="1051"
     inkscape:window-x="0"
     inkscape:window-y="38"
     inkscape:window-maximized="1"
     inkscape:current-layer="svg15" />
  <path
     fill-rule="evenodd"
     clip-rule="evenodd"
     d="M130.882 3.65626C130.745 3.74853 130.571 3.79374 130.358 3.79374H129.741V2.80452H130.396C130.607 2.80452 130.777 2.84363 130.901 2.92245C131.025 3.00249 131.088 3.12774 131.088 3.29821C131.088 3.44547 131.019 3.56461 130.882 3.65626ZM130.265 4.54528L130.92 6.26893H132.042L131.313 4.43591C131.537 4.33815 131.727 4.18785 131.883 3.9856C132.039 3.78397 132.117 3.52552 132.117 3.20779C132.117 2.80453 131.986 2.48314 131.723 2.24485C131.462 2.00595 131.132 1.88802 130.733 1.88802H128.675V6.26893H129.741V4.54528H130.265ZM131.864 6.69965C131.396 6.96239 130.876 7.09314 130.302 7.09314C129.729 7.09314 129.204 6.96239 128.731 6.69965C128.257 6.43692 127.877 6.07887 127.59 5.62673C127.303 5.17459 127.16 4.67295 127.16 4.12427C127.16 3.56214 127.303 3.05745 127.59 2.61081C127.877 2.166 128.257 1.80795 128.731 1.53972C129.204 1.27088 129.729 1.13584 130.302 1.13584C130.876 1.13584 131.396 1.27088 131.864 1.53972C132.332 1.80795 132.706 2.166 132.986 2.61081C133.267 3.05745 133.407 3.56214 133.407 4.12427C133.407 4.67295 133.267 5.17459 132.986 5.62673C132.706 6.07887 132.332 6.43692 131.864 6.69965ZM128.142 7.69866C128.796 8.06465 129.517 8.24857 130.302 8.24857C131.088 8.24857 131.805 8.06465 132.454 7.69866C133.101 7.33206 133.619 6.83653 134.006 6.21392C134.393 5.58947 134.586 4.89415 134.586 4.12428C134.586 3.3532 134.393 2.65787 134.006 2.03342C133.619 1.41081 133.101 0.916507 132.454 0.548682C131.805 0.182691 131.088 0 130.302 0C129.517 0 128.796 0.182691 128.142 0.548682C127.487 0.916507 126.966 1.41081 126.58 2.03342C126.194 2.65787 126 3.3532 126 4.12428C126 4.89415 126.194 5.58947 126.58 6.21392C126.966 6.83653 127.487 7.33206 128.142 7.69866ZM30.554 46.3448H0V0.519414H30.554V9.92889H9.7912V18.1775H27.1246V27.5875H9.7912V36.9353H30.554V46.3448ZM60.4368 26.3055H51.557L54.0585 19.8288L54.0621 19.8203C54.6105 18.3728 55.1747 16.7677 55.7377 15.0495C55.8178 14.8051 55.8985 14.5601 55.9792 14.3157C56.0217 14.4449 56.064 14.5743 56.1061 14.7035L56.1687 14.895C56.7091 16.5471 57.2623 18.1217 57.8186 19.5887L60.4368 26.3055ZM51.718 0.520465L33.6138 46.3458H43.7663L47.8815 35.7137H64.0559L68.1718 46.3458H78.63L60.6589 0.520465H51.718ZM121.513 22.6776C121.599 23.3051 121.674 23.9338 121.738 24.5613C121.805 25.2176 121.839 25.8872 121.839 26.5489C121.839 28.9368 121.469 31.313 120.739 33.6109C119.994 35.9554 118.813 38.0273 117.228 39.768C115.428 41.9622 113.081 43.7286 110.251 45.0172C107.421 46.3046 104.261 46.9565 100.857 46.9565C97.5119 46.9565 94.3387 46.3534 91.4252 45.1632C88.5154 43.9754 85.9198 42.2976 83.7112 40.1762C81.494 38.0481 79.7512 35.5258 78.5329 32.6798C77.3133 29.8368 76.6947 26.7255 76.6947 23.4328C76.6947 20.1389 77.3146 17.0454 78.5365 14.239C79.753 11.4406 81.4842 8.952 83.6806 6.84281C85.8703 4.74035 88.458 3.08208 91.3714 1.91323C94.2855 0.745596 97.4557 0.154143 100.795 0.154143C103.438 0.154143 105.926 0.528689 108.19 1.26739C110.437 2.00243 112.453 2.96965 114.186 4.14401C115.946 5.33913 117.354 6.65524 118.369 8.05688L119.124 9.09987L112.816 15.5454L111.725 14.5305C110.175 13.0891 108.449 11.8873 106.595 10.9592C104.824 10.0738 102.872 9.62472 100.795 9.62472C98.122 9.62472 95.6786 10.2369 93.5317 11.4449C91.3891 12.6492 89.6806 14.3038 88.4525 16.3641C87.2299 18.4146 86.61 20.7939 86.61 23.4328C86.61 26.0259 87.2678 28.4088 88.5655 30.5138C89.8768 32.6449 91.6551 34.3588 93.8508 35.6083C96.0375 36.8548 98.4576 37.4859 101.044 37.4859C102.901 37.4859 104.668 37.1279 106.297 36.4216C107.893 35.7275 109.201 34.7719 110.185 33.5816C110.984 32.6132 111.426 31.5476 111.527 30.3378H99.1417V21.3554H121.334L121.513 22.6776Z"
     fill="black"
     id="path15" />
</svg>
