<?xml version="1.0" encoding="UTF-8" standalone="no"?>
<!-- Generator: Adobe Illustrator 29.3.1, SVG Export Plug-In . SVG Version: 9.03 Build 55982)  -->

<svg
   version="1.0"
   id="Vrstva_1"
   x="0px"
   y="0px"
   viewBox="0 0 247.4 56.8"
   style="enable-background:new 0 0 247.4 56.8;"
   xml:space="preserve"
   sodipodi:docname="autrado-inverse.svg"
   inkscape:version="1.3.2 (091e20e, 2023-11-25)"
   xmlns:inkscape="http://www.inkscape.org/namespaces/inkscape"
   xmlns:sodipodi="http://sodipodi.sourceforge.net/DTD/sodipodi-0.dtd"
   xmlns="http://www.w3.org/2000/svg"
   xmlns:svg="http://www.w3.org/2000/svg"><defs
   id="defs1" /><sodipodi:namedview
   id="namedview1"
   pagecolor="#ffffff"
   bordercolor="#000000"
   borderopacity="0.25"
   inkscape:showpageshadow="2"
   inkscape:pageopacity="0.0"
   inkscape:pagecheckerboard="0"
   inkscape:deskcolor="#d1d1d1"
   inkscape:zoom="2.3726759"
   inkscape:cx="123.48926"
   inkscape:cy="28.238159"
   inkscape:window-width="1728"
   inkscape:window-height="1051"
   inkscape:window-x="0"
   inkscape:window-y="38"
   inkscape:window-maximized="1"
   inkscape:current-layer="Vrstva_1" />
<path
   d="M123.9,15c-2.1,0.1-4.2,0.6-6.3,1.8c-2,1.1-3.8,2.5-5.1,4.2v-5.3h-10.6v40.2h10.6V38.4c0-3.9,0.8-7,2.3-9.4  c1.6-2.4,3.9-3.5,7.1-3.5h2L123.9,15z M99.6,46.3h-0.9c-0.4,0.2-1,0.5-1.9,0.8c-0.9,0.3-1.6,0.4-2.2,0.4c-1.3,0-2.4-0.2-3.1-0.7  c-0.7-0.5-1.2-1.1-1.5-2c-0.3-0.8-0.5-1.8-0.5-2.8c0-1,0-2.3,0-3.7V24.1h10v-8.7h-10V4H79v11.4h-4.4v8.7H79v18.7c0,4.9,1,8.3,3,10.4  c2,2,5.1,3,9.3,3c1.9,0,3.4-0.1,4.7-0.3c1.2-0.2,2.5-0.5,3.6-0.8h0V46.3z M62.5,37c0,3.1-0.7,5.4-2.2,7.1c-1.4,1.6-3.1,2.4-5.1,2.4  c-4,0-6-3.1-6-9.3V15.4h-9.9v24.3c0,5.4,1.3,9.5,3.9,12.3c2.6,2.8,5.9,4.1,9.7,4.1c3.9,0,7-2,9.5-5.9v5.3h9.9V15.4h-9.9V37z   M14,10.8L0,56.1h10.4L13,47h13.1l2.6,9.2h10.7l-14-45.4L14,10.8z M15.3,38.7l4.3-15.1l4.3,15.1H15.3z M245.5,9.1  c-1.3-1.2-2.8-1.8-4.5-1.8c-1.8,0-3.3,0.6-4.5,1.8c-1.3,1.2-1.9,2.7-1.9,4.4c0,1.7,0.6,3.2,1.9,4.4c1.2,1.2,2.7,1.8,4.5,1.8  c1.8,0,3.3-0.6,4.5-1.8c1.2-1.2,1.9-2.7,1.9-4.4C247.4,11.8,246.8,10.3,245.5,9.1z M244.9,17.4c-1.1,1.1-2.4,1.6-3.9,1.6  c-1.5,0-2.8-0.5-3.9-1.6c-1.1-1.1-1.6-2.4-1.6-3.9c0-1.5,0.5-2.8,1.6-3.9c1.1-1.1,2.4-1.6,3.9-1.6c1.5,0,2.8,0.5,3.9,1.6  c1.1,1.1,1.6,2.4,1.6,3.9C246.5,15.1,246,16.4,244.9,17.4z M150.8,20c-2.8-3.5-6.4-5.2-10.8-5.2c-4.4,0-8.3,1.9-11.6,5.8  c-3.3,3.9-4.9,8.8-4.9,14.9c0,6.1,1.7,11.1,5.1,15.2c3.4,4.1,7.2,6.1,11.5,6.1c4.3,0,7.9-2,10.7-6v5.4H161V16h-10.2V20z M148.5,44  c-1.6,2.1-3.6,3.1-6,3.1c-2.3,0-4.4-1-6.2-3.1c-1.8-2.1-2.6-4.8-2.6-8.1c0-3.3,0.9-6,2.6-8.3c1.7-2.2,3.8-3.3,6.2-3.3  c2.4,0,4.4,1.1,6.1,3.3c1.6,2.2,2.5,4.9,2.5,8.3C150.9,39.2,150.1,41.9,148.5,44z M243.2,13.1c0.3-0.3,0.4-0.7,0.4-1.2  c0-0.4-0.1-0.7-0.2-0.9c-0.1-0.2-0.3-0.4-0.6-0.6c-0.3-0.2-0.5-0.3-0.8-0.3c-0.3,0-0.6,0-1.1,0h-2.1v6.7h1.2v-2.6h0.9l2.1,2.6h1.7  l-2.5-2.9C242.6,13.7,242.9,13.4,243.2,13.1z M241.4,13.2c-0.2,0-0.4,0.1-0.7,0.1H240V11h0.9c0.2,0,0.4,0,0.6,0  c0.1,0,0.3,0.1,0.4,0.2c0.1,0.1,0.3,0.2,0.3,0.3c0.1,0.1,0.1,0.3,0.1,0.5c0,0.2,0,0.4-0.1,0.6c-0.1,0.2-0.1,0.3-0.3,0.4  C241.8,13.1,241.6,13.1,241.4,13.2z M190.4,20c-2.8-3.5-6.4-5.2-10.8-5.2c-4.4,0-8.3,1.9-11.6,5.8c-3.3,3.9-4.9,8.8-4.9,14.9  c0,6.1,1.7,11.1,5.1,15.2c3.4,4.1,7.2,6.1,11.5,6.1s7.9-2,10.7-6v5.4h10.2V0h-10.2V20z M188,44c-1.6,2.1-3.6,3.1-6,3.1  c-2.3,0-4.4-1-6.2-3.1c-1.8-2.1-2.6-4.8-2.6-8.1c0-3.3,0.9-6,2.6-8.3c1.7-2.2,3.8-3.3,6.2-3.3c2.4,0,4.4,1.1,6.1,3.3  c1.6,2.2,2.5,4.9,2.5,8.3C190.5,39.2,189.7,41.9,188,44z M221.5,14.7c-5.9,0-10.5,1.9-13.8,5.6c-3.3,3.7-5,8.9-5,15.4  c0,6.5,1.6,11.6,4.9,15.4c3.3,3.7,7.9,5.6,13.8,5.6c5.9,0,10.5-1.9,13.8-5.6c3.3-3.7,4.9-8.9,4.9-15.4c0-6.5-1.6-11.6-4.9-15.4  C232.1,16.6,227.5,14.7,221.5,14.7z M228.4,41.7c-0.4,1.4-0.9,2.6-1.6,3.6c-0.6,0.9-1.4,1.6-2.3,1.9c-0.9,0.4-1.9,0.6-2.8,0.6  c-1.2,0-2.2-0.2-3.1-0.6c-0.9-0.4-1.7-1.1-2.3-2c-0.7-1-1.2-2.2-1.5-3.8c-0.3-1.6-0.5-3.5-0.5-5.6c0-2.4,0.2-4.4,0.6-6  c0.4-1.6,0.9-2.8,1.6-3.8c0.8-1,1.5-1.6,2.4-2c0.8-0.3,1.8-0.5,2.8-0.5c1.1,0,2,0.2,3,0.6c0.9,0.4,1.7,1.1,2.3,2  c0.7,0.9,1.2,2.2,1.5,3.8c0.4,1.6,0.5,3.5,0.5,5.8C228.9,38.3,228.7,40.3,228.4,41.7z"
   id="path1"
   style="fill:#cccccc" />
</svg>
