<svg width="88" height="40" viewBox="0 0 88 40" fill="none" xmlns="http://www.w3.org/2000/svg">
<path fill-rule="evenodd" clip-rule="evenodd" d="M31.6744 14.3806C31.3568 14.2252 30.9277 14.1498 30.3629 14.1498C29.6242 14.1498 28.9115 14.3806 28.2443 14.8351C27.8089 15.1322 27.4427 15.4862 27.1497 15.8923V14.3801H24.5054V25.7902H27.1497V19.5094C27.1497 18.9689 27.2848 18.498 27.5514 18.1099C27.8228 17.7148 28.1678 17.4064 28.5772 17.1931C28.9868 16.9797 29.4078 16.8715 29.8281 16.8715C30.0384 16.8715 30.2417 16.8941 30.4319 16.9389C30.6226 16.9844 30.7845 17.039 30.9126 17.1014L31.1463 17.2153C31.1463 17.2153 31.8314 15.7572 32.6994 14.954C32.6994 14.954 32.2669 14.6385 31.8262 14.4547L31.6744 14.3806ZM11.0053 24.0849C10.9505 23.9913 10.8994 23.8994 10.8503 23.8092C10.6934 23.519 10.5665 23.2473 10.4625 22.9984C10.2679 22.5323 10.1561 22.1515 10.0957 21.9021L10.0457 21.8423L9.88446 22.0345C9.56964 22.409 9.15185 22.7766 8.64239 23.1271C8.15287 23.4638 7.56665 23.6346 6.90032 23.6346C6.3139 23.6346 5.75641 23.4788 5.24298 23.1721C4.7264 22.8637 4.30462 22.4377 3.98938 21.9053C3.67519 21.3758 3.516 20.7601 3.516 20.0755C3.516 19.3886 3.66534 18.7714 3.96023 18.2403C4.25428 17.7102 4.66096 17.2854 5.16894 16.978C5.67546 16.6717 6.25076 16.5164 6.87872 16.5164C7.40956 16.5164 7.96872 16.6799 8.54046 17.0021C9.11556 17.3268 9.56377 17.7175 9.8725 18.1636L10.0298 18.3908C10.0298 18.3908 10.081 18.0171 10.2882 17.4248C10.4019 17.1001 10.5636 16.7094 10.7895 16.2773C10.856 16.15 10.9264 16.0202 11.0049 15.8862C10.6202 15.4579 10.1317 15.09 9.54091 14.7906C8.70154 14.3659 7.73381 14.1506 6.66499 14.1506C5.60331 14.1506 4.63097 14.4144 3.77482 14.9347C2.91993 15.4539 2.2364 16.1668 1.7431 17.053C1.25001 17.9384 1 18.9552 1 20.0755C1 21.1813 1.2498 22.1946 1.74268 23.0863C2.23577 23.98 2.91951 24.6967 3.77482 25.2161C4.63118 25.7366 5.60373 26.0001 6.66499 26.0001C7.34014 26.0001 7.9962 25.8944 8.61471 25.6857C9.22966 25.478 9.78714 25.2014 10.2721 24.8635C10.5783 24.6502 10.8415 24.4228 11.0691 24.186C11.0481 24.1544 11.0271 24.1218 11.0053 24.0849ZM17.1249 23.5918C17.7654 23.5918 18.3319 23.4375 18.8087 23.1329C19.2875 22.8272 19.6654 22.4041 19.9324 21.875C20.0029 21.735 20.0639 21.5893 20.1162 21.4387V18.6938C20.0639 18.5458 20.0031 18.4022 19.9328 18.2644C19.6659 17.7425 19.2877 17.3225 18.8087 17.0162C18.3317 16.7118 17.765 16.5575 17.1249 16.5575C16.5118 16.5575 15.9592 16.7087 15.4818 17.007C15.0032 17.3064 14.6257 17.7224 14.3595 18.2435C14.0906 18.7692 13.9543 19.378 13.9543 20.0536C13.9543 20.7296 14.0908 21.3424 14.3599 21.875C14.6265 22.4039 15.0047 22.827 15.4835 23.1329C15.9602 23.4375 16.5125 23.5918 17.1249 23.5918ZM20.2523 15.4946V14.3802H22.8967V17.8055V22.855V25.7902H20.2523V24.4455C19.9317 24.7667 19.53 25.0736 19.0518 25.3621C18.3511 25.7852 17.5302 25.9996 16.6113 25.9996C15.6339 25.9996 14.7289 25.7423 13.9216 25.2346C13.1804 24.7688 12.5747 24.1283 12.1152 23.3321C12.1071 23.3182 12.099 23.3043 12.091 23.2905C12.0591 23.2357 12.0273 23.181 11.9973 23.1243C11.8891 22.9189 11.7945 22.7051 11.7108 22.4849C11.4314 21.75 11.2888 20.9358 11.2888 20.0538C11.2888 19.0667 11.4723 18.1664 11.8325 17.3702C11.891 17.2411 11.9528 17.1142 12.0206 16.9909C12.0546 16.9286 12.0912 16.8686 12.1278 16.8086C12.1334 16.7994 12.139 16.7903 12.1445 16.7811C12.6204 15.9927 13.2576 15.3591 14.0454 14.9006C14.9011 14.4026 15.8867 14.1501 16.975 14.1501C17.7921 14.1501 18.5216 14.328 19.143 14.6796C19.5692 14.9209 19.9407 15.1942 20.2523 15.4946Z" fill="#5B5B5B"/>
<path fill-rule="evenodd" clip-rule="evenodd" d="M72.655 11.5781C72.655 12.4497 71.9471 13.1561 71.074 13.1561C70.2008 13.1561 69.493 12.4497 69.493 11.5781C69.493 10.7064 70.2008 10 71.074 10C71.9471 10 72.655 10.7064 72.655 11.5781ZM64.1742 23.2492C63.6981 23.5596 63.132 23.7173 62.4921 23.7173C61.8662 23.7173 61.3075 23.5596 60.8312 23.2492C60.3513 22.936 59.9694 22.4986 59.6954 21.949C59.419 21.3953 59.2789 20.7647 59.2789 20.0747C59.2789 19.3714 59.4188 18.7373 59.695 18.1904C59.9691 17.6471 60.3513 17.2131 60.8312 16.9001C61.3073 16.5892 61.8662 16.4318 62.4921 16.4318C63.1322 16.4318 63.6981 16.5892 64.1742 16.9001C64.653 17.2123 65.0313 17.6459 65.2988 18.1883C65.3604 18.3139 65.4143 18.4444 65.4622 18.5788V21.5569C65.4143 21.692 65.3602 21.8236 65.2983 21.9511C65.0311 22.4999 64.653 22.9368 64.1742 23.2492ZM65.6195 10.2977V15.4609C65.2824 15.1609 64.8718 14.8904 64.3925 14.653C63.7174 14.3193 62.9554 14.1499 62.1282 14.1499C61.095 14.1499 60.1512 14.407 59.3232 14.9136C58.4966 15.419 57.8309 16.125 57.3445 17.0116C56.8592 17.8974 56.6129 18.9279 56.6129 20.0748C56.6129 21.2076 56.859 22.2343 57.3443 23.1264C57.8307 24.0212 58.5041 24.7311 59.3458 25.2367C60.1879 25.7429 61.1456 25.9996 62.1922 25.9996C63.0382 25.9996 63.8078 25.8034 64.4791 25.4168C64.9317 25.1559 65.3135 24.876 65.6195 24.5797V25.7903H68.2424V22.8548V17.8053V10.2977H65.6195ZM81.7154 25.5143C81.3395 25.6979 80.7988 25.79 80.3055 25.79C77.7679 25.79 75.9822 24.2033 75.9822 21.4214V16.8222H73.7735V14.3846H75.9822V12.0737L78.5903 10.9249V14.3846H81.5979V16.8222H78.5903V21.3062C78.5903 22.6168 79.5301 23.3988 80.6814 23.3988C80.9637 23.3988 81.3395 23.3295 81.5742 23.2608L81.7154 25.5143ZM52.6469 14.3802V21.2053C52.6469 22 52.398 22.5985 51.8862 23.0351C51.3644 23.4802 50.7582 23.6966 50.0328 23.6966C49.4675 23.6966 49.0019 23.5658 48.6485 23.3079C48.2915 23.0476 48.0281 22.6961 47.8653 22.2621C47.6967 21.8145 47.6111 21.3179 47.6111 20.7865V14.3802H44.9882V21.3727C44.9882 22.8025 45.3743 23.9424 46.1354 24.7604C46.9003 25.5827 47.9094 25.9996 49.1342 25.9996C50.0544 25.9996 50.8583 25.7881 51.5242 25.3709C51.9684 25.0924 52.3441 24.7819 52.6469 24.4432V25.7902H55.2701V14.3802H52.6469ZM72.4179 25.7902H69.7949V14.3802H72.4179V25.7902ZM85.1118 10.9252L85.8878 12.2077L86.6636 10.9252H87.1527V13.2225H86.6116V11.8441L86.0965 12.7246H85.6661L85.19 11.9207V13.2225H84.6617V10.9252H85.1118ZM83.1455 13.2227V11.3975H82.5129V10.9254H84.3062V11.3975H83.6411V13.2227H83.1455ZM37.6617 23.5917C38.3022 23.5917 38.8689 23.4374 39.3454 23.1328C39.8243 22.8271 40.2022 22.404 40.4692 21.875C40.5399 21.7349 40.6007 21.5892 40.6529 21.4387V18.6938C40.6009 18.5458 40.5401 18.4021 40.4696 18.2644C40.2028 17.7424 39.8245 17.3225 39.3454 17.0162C38.8685 16.7118 38.3018 16.5575 37.6617 16.5575C37.0486 16.5575 36.4959 16.7086 36.0188 17.007C35.54 17.3063 35.1624 17.7223 34.8963 18.2434C34.6274 18.7691 34.4911 19.378 34.4911 20.0536C34.4911 20.7296 34.6276 21.3424 34.8967 21.875C35.1635 22.4038 35.5414 22.8269 36.0203 23.1328C36.4972 23.4374 37.0494 23.5917 37.6617 23.5917ZM40.7891 15.4946V14.3802H43.4335V17.8055V22.855V25.7902H40.7891V24.4455C40.4684 24.7667 40.0668 25.0736 39.5886 25.3621C38.8878 25.7852 38.0669 25.9996 37.1481 25.9996C36.1707 25.9996 35.2659 25.7423 34.4584 25.2346C33.7172 24.7688 33.1117 24.1283 32.6519 23.3321L32.6295 23.2935C32.5971 23.2378 32.5647 23.1821 32.5341 23.1243C32.4258 22.9189 32.3312 22.7051 32.2476 22.4849C31.9682 21.75 31.8256 20.9358 31.8256 20.0538C31.8256 19.0667 32.0091 18.1664 32.3694 17.3702C32.4277 17.2411 32.4896 17.1142 32.5573 16.9909C32.5894 16.9322 32.6239 16.8755 32.6583 16.819L32.6813 16.7811C33.1572 15.9927 33.7946 15.3591 34.5821 14.9006C35.4379 14.4026 36.4234 14.1501 37.5117 14.1501C38.3289 14.1501 39.0586 14.328 39.6798 14.6796C40.1062 14.9209 40.4774 15.1942 40.7891 15.4946Z" fill="#BABABA"/>
</svg>
