<?xml version="1.0" encoding="utf-8"?>
<!-- Generator: Adobe Illustrator 27.5.0, SVG Export Plug-In . SVG Version: 6.00 Build 0)  -->
<svg version="1.1" id="Layer_1" xmlns="http://www.w3.org/2000/svg" xmlns:xlink="http://www.w3.org/1999/xlink" x="0px" y="0px"
	 viewBox="0 0 88 40" style="enable-background:new 0 0 88 40;" xml:space="preserve">
<style type="text/css">
	.st0{fill:#BABABA;}
</style>
<path class="st0" d="M4.2,17.4v5c0,2,1.6,3.6,3.6,3.6h6.3v-1.1v-1.1H8c-0.7,0-1.2-0.6-1.2-1.4v-5c0-0.8,0.6-1.4,1.2-1.4h6.2V15v-1.1
	H7.8C5.8,13.9,4.2,15.5,4.2,17.4z M40.5,20.8c-0.5-0.2-1-0.4-1.7-0.5c-0.7-0.2-1.2-0.3-1.5-0.5c-0.3-0.2-0.5-0.4-0.5-0.7
	c0-0.3,0.1-0.5,0.3-0.7c0.2-0.2,0.6-0.2,1-0.2c0.5,0,0.8,0.1,1.1,0.3c0.3,0.2,0.5,0.5,0.5,0.9h2.3c-0.1-1-0.4-1.7-1.1-2.3
	c-0.7-0.6-1.6-0.9-2.7-0.9c-0.8,0-1.5,0.1-2,0.4c-0.6,0.3-1,0.6-1.3,1c-0.3,0.4-0.5,0.9-0.5,1.5c0,0.6,0.2,1.2,0.5,1.5
	c0.3,0.4,0.7,0.7,1.2,0.8c0.5,0.2,1.1,0.4,1.8,0.5c0.7,0.2,1.2,0.4,1.5,0.5c0.3,0.2,0.5,0.4,0.5,0.7c0,0.3-0.1,0.5-0.4,0.7
	c-0.3,0.2-0.6,0.3-1.1,0.3c-0.5,0-0.9-0.1-1.2-0.4c-0.3-0.2-0.5-0.5-0.5-0.9h-2.4c0,0.6,0.2,1.1,0.6,1.6c0.4,0.5,0.9,0.9,1.5,1.2
	c0.6,0.3,1.3,0.4,2.1,0.4c0.8,0,1.4-0.1,2-0.4c0.6-0.3,1-0.6,1.3-1c0.3-0.4,0.5-0.9,0.5-1.5c0-0.6-0.2-1.1-0.5-1.5
	C41.3,21.3,41,21,40.5,20.8z M30.1,17.8v-1.5h-2.4V26h2.4v-4.8c0-0.9,0.2-1.5,0.6-1.9c0.4-0.4,1-0.5,1.7-0.5h0.6v-2.5
	c-0.6,0-1.2,0.1-1.7,0.4C30.9,16.9,30.5,17.3,30.1,17.8z M22.9,17.7c-0.3-0.4-0.8-0.8-1.3-1.1c-0.5-0.3-1.2-0.4-1.9-0.4
	c-0.8,0-1.6,0.2-2.2,0.6c-0.7,0.4-1.2,1-1.6,1.7c-0.4,0.8-0.6,1.6-0.6,2.6c0,1,0.2,1.9,0.6,2.6c0.4,0.8,0.9,1.3,1.6,1.8
	c0.7,0.4,1.4,0.6,2.2,0.6c0.7,0,1.3-0.1,1.9-0.4c0.6-0.3,1-0.7,1.3-1.1V26h2.4v-9.6h-2.4V17.7z M22.6,22.7c-0.2,0.4-0.5,0.7-0.9,1
	c-0.4,0.2-0.8,0.3-1.3,0.3c-0.4,0-0.9-0.1-1.2-0.3c-0.4-0.2-0.7-0.6-0.9-1c-0.2-0.4-0.3-0.9-0.3-1.5c0-0.6,0.1-1.1,0.3-1.5
	c0.2-0.4,0.6-0.8,0.9-1c0.4-0.2,0.8-0.3,1.2-0.3s0.9,0.1,1.3,0.3c0.4,0.2,0.7,0.5,0.9,1c0.2,0.4,0.3,0.9,0.3,1.5
	C22.9,21.7,22.8,22.3,22.6,22.7z M50.2,13.9h-6.3V15v1.1h6.2c0.7,0,1.2,0.6,1.2,1.4v5c0,0.8-0.6,1.4-1.2,1.4h-6.2v1.1V26h6.3
	c2,0,3.6-1.6,3.6-3.6v-5C53.8,15.5,52.2,13.9,50.2,13.9z M62.8,17.7c-0.3-0.4-0.8-0.8-1.3-1.1c-0.5-0.3-1.2-0.4-1.9-0.4
	c-0.8,0-1.6,0.2-2.2,0.6c-0.7,0.4-1.2,1-1.6,1.7c-0.4,0.8-0.6,1.6-0.6,2.6c0,1,0.2,1.9,0.6,2.6c0.4,0.8,0.9,1.3,1.6,1.8
	c0.7,0.4,1.4,0.6,2.2,0.6c0.7,0,1.3-0.1,1.9-0.4c0.6-0.3,1-0.7,1.3-1.1V26h2.4v-9.6h-2.4V17.7z M62.5,22.7c-0.2,0.4-0.5,0.7-0.9,1
	c-0.4,0.2-0.8,0.3-1.3,0.3c-0.4,0-0.9-0.1-1.2-0.3c-0.4-0.2-0.7-0.6-0.9-1c-0.2-0.4-0.3-0.9-0.3-1.5c0-0.6,0.1-1.1,0.3-1.5
	c0.2-0.4,0.6-0.8,0.9-1c0.4-0.2,0.8-0.3,1.2-0.3c0.5,0,0.9,0.1,1.3,0.3c0.4,0.2,0.7,0.5,0.9,1c0.2,0.4,0.3,0.9,0.3,1.5
	C62.8,21.7,62.7,22.3,62.5,22.7z M70.5,14H68v2.4h-1.1v2H68V23c0,2,1,3,3.1,3h1.5v-2h-1.1c-0.4,0-0.6-0.1-0.8-0.2
	c-0.2-0.2-0.2-0.4-0.2-0.7v-4.6h2.2v-2h-2.2V14z M81.3,16.4v1.4c-0.3-0.4-0.8-0.8-1.3-1.1c-0.5-0.3-1.2-0.4-1.9-0.4
	c-0.8,0-1.6,0.2-2.2,0.6c-0.7,0.4-1.2,1-1.6,1.7c-0.4,0.8-0.6,1.6-0.6,2.6c0,1,0.2,1.9,0.6,2.6c0.4,0.8,0.9,1.3,1.6,1.8
	c0.7,0.4,1.4,0.6,2.2,0.6c0.7,0,1.3-0.1,1.9-0.4c0.6-0.3,1-0.7,1.3-1.1V26h2.4v-9.6H81.3z M81,22.7c-0.2,0.4-0.5,0.7-0.9,1
	c-0.4,0.2-0.8,0.3-1.3,0.3c-0.4,0-0.9-0.1-1.2-0.3c-0.4-0.2-0.7-0.6-0.9-1c-0.2-0.4-0.3-0.9-0.3-1.5c0-0.6,0.1-1.1,0.3-1.5
	c0.2-0.4,0.6-0.8,0.9-1c0.4-0.2,0.8-0.3,1.2-0.3c0.5,0,0.9,0.1,1.3,0.3c0.4,0.2,0.7,0.5,0.9,1c0.2,0.4,0.3,0.9,0.3,1.5
	C81.3,21.7,81.2,22.3,81,22.7z"/>
</svg>
