<svg width="88" height="40" viewBox="0 0 88 40" fill="none" xmlns="http://www.w3.org/2000/svg">
<path d="M85.6868 21.5063C86.9693 21.5063 88 22.521 88 23.7835C88 25.0461 86.9693 26.0383 85.6868 26.0383C84.4043 26.0383 83.3965 25.0461 83.3965 23.7835C83.3965 22.521 84.4271 21.5063 85.6868 21.5063Z" fill="#BABABA"/>
<path d="M71.2609 20.8405C71.2609 17.391 74.1922 15.0011 77.1925 15.0011C80.1928 15.0011 82.5059 17.0528 82.5059 20.1871C82.5059 23.6365 79.5746 26.027 76.5743 26.027C73.574 26.027 71.2609 23.9753 71.2609 20.8411V20.8405ZM78.9331 20.2544C78.9331 19.0821 78.2004 18.1578 77.078 18.1578C75.8872 18.1578 74.8337 19.2173 74.8337 20.7732C74.8337 21.9455 75.5664 22.8704 76.6888 22.8704C77.8796 22.8704 78.9331 21.8108 78.9331 20.2549V20.2544Z" fill="#BABABA"/>
<path fill-rule="evenodd" clip-rule="evenodd" d="M65.5195 24.0011C64.9921 24.7589 63.9621 25.3433 62.5897 25.3433C60.0247 25.3433 58.0779 23.24 58.0779 20.6381C58.0779 17.1903 60.6657 15 63.4831 15C65.2721 15 66.4125 15.9572 66.7838 16.6532L67.0257 15.2703H70.4977L68.5489 25.8532C68.0647 28.2931 67.2388 29.6667 64.1061 29.6667H58.7582L59.2852 26.69H63.5377C64.4157 26.69 65.1006 26.2856 65.288 25.276L65.4584 24.3567L65.5195 24.0011ZM61.7191 20.3341C61.7191 19.0115 62.7498 17.9705 64.0323 17.9705C65.2236 17.9705 66.0481 18.9459 66.0481 19.9218C66.0481 21.2444 65.0402 22.4155 63.7577 22.4155C62.4752 22.4155 61.7191 21.4401 61.7191 20.3341Z" fill="#BABABA"/>
<path fill-rule="evenodd" clip-rule="evenodd" d="M44.8247 21.094C44.8247 23.977 46.7009 26.0271 49.1719 26.0271C50.7051 26.0271 51.689 25.1711 52.0548 24.4728L51.803 25.7567H55.418L57.2491 15.2827H53.6632L53.3885 16.8532C53.1367 16.2452 52.3522 15.0123 50.2475 15.0123C47.3191 15.0123 44.8247 17.4 44.8247 21.094ZM50.3393 22.8737C49.218 22.8737 48.4175 21.95 48.4175 20.7788C48.4175 19.2246 49.5388 18.1662 50.7284 18.1662C51.8497 18.1662 52.6274 19.09 52.6274 20.2611C52.6274 21.8153 51.5289 22.8743 50.3393 22.8743V22.8737Z" fill="#BABABA"/>
<path fill-rule="evenodd" clip-rule="evenodd" d="M37.6702 15.2827H33.9178L34.8562 25.7567H39.478L45.3127 15.2827H41.1023L38.0365 21.7924L37.6702 15.2827Z" fill="#BABABA"/>
<path d="M32.3648 19.0378H31.2885C29.7308 19.0378 29.2044 19.6015 28.9981 20.9319L28.1509 25.7572H24.5553L26.387 15.2726H29.8453L29.5474 16.9412C30.1889 15.8362 30.8834 15.2726 32.0514 15.2726H33.0063L32.3648 19.0378Z" fill="#BABABA"/>
<path fill-rule="evenodd" clip-rule="evenodd" d="M11.6129 21.0941C11.6129 23.9771 13.4891 26.0271 15.9601 26.0271C17.4932 26.0271 18.4772 25.1712 18.843 24.4729L18.5911 25.7568H22.2062L24.0368 15.2827H20.4508L20.1762 16.8532C19.9249 16.2447 19.1404 15.0124 17.0357 15.0124C14.1073 15.0124 11.6129 17.4001 11.6129 21.0941ZM17.1275 22.8738C16.0062 22.8738 15.2057 21.95 15.2057 20.7789C15.2057 19.2247 16.327 18.1663 17.5166 18.1663C18.6379 18.1663 19.4156 19.09 19.4156 20.2612C19.4156 21.8154 18.3171 22.8744 17.1275 22.8744V22.8738Z" fill="#BABABA"/>
<path fill-rule="evenodd" clip-rule="evenodd" d="M7.50674 21.7447C7.12102 22.489 6.38947 22.8609 5.58328 22.8609C4.42157 22.8609 3.67919 21.9371 3.70027 20.7659C3.72876 19.1668 4.78962 18.1533 6.02255 18.1533C6.8464 18.1533 7.47028 18.5886 7.74489 19.293L11.1286 18.0327C10.3446 16.1392 8.46676 15 6.10232 15C2.75962 15 0.0618787 17.3877 0.000915971 20.8338C-0.0543493 23.9647 2.3984 26.0147 5.40894 26.0147C7.58308 26.0147 9.68772 25.105 10.7685 23.1071L7.50674 21.7452V21.7447Z" fill="#BABABA"/>
</svg>
