<svg width="88" height="40" viewBox="0 0 88 40" fill="none" xmlns="http://www.w3.org/2000/svg">
<path d="M60.042 12.5655L57.3832 11.6807V9.02673L60.042 9.91302V12.565V12.5655Z" fill="#C3C3C3"/>
<path d="M32.5553 28.0459C33.6315 28.049 34.6942 27.8061 35.6622 27.3357C36.6301 26.8653 37.4778 26.18 38.1404 25.3319L35.3481 24.4033C34.7864 24.8578 34.1223 25.1683 33.4134 25.3079C32.7045 25.4474 31.9722 25.4118 31.2802 25.2042C30.5882 24.9965 29.9573 24.623 29.4423 24.1162C28.9274 23.6094 28.5439 22.9846 28.3253 22.2959H39.524C39.6065 21.8645 39.6485 21.4264 39.6496 20.9872C39.6594 17.0791 36.4983 13.9028 32.5903 13.893C28.6823 13.8831 25.5064 17.0437 25.4966 20.9522C25.4867 24.8597 28.6468 28.0361 32.5553 28.0459ZM32.5553 16.5459C33.4989 16.5417 34.419 16.8401 35.1806 17.3972C35.9422 17.9543 36.5051 18.7409 36.7869 19.6415H28.3253C28.607 18.7412 29.1698 17.9548 29.931 17.3977C30.6923 16.8406 31.612 16.5421 32.5553 16.5459ZM19.231 25.4166C18.5182 25.4158 17.8159 25.2437 17.1835 24.9147C16.5511 24.5858 16.0069 24.1096 15.597 23.5264C15.187 22.9432 14.9233 22.27 14.8279 21.5636C14.7325 20.8571 14.8083 20.1381 15.049 19.467C15.2896 18.796 15.6879 18.1926 16.2105 17.7078C16.7331 17.2229 17.3645 16.8707 18.0517 16.6809C18.7388 16.4911 19.4615 16.4692 20.1589 16.6171C20.8562 16.765 21.5078 17.0783 22.0588 17.5307L24.8407 16.6055C22.4305 13.5291 17.9829 12.9884 14.906 15.3982C11.8296 17.8084 11.2889 22.256 13.6991 25.3329C16.1089 28.4093 20.557 28.9499 23.6334 26.5397C24.0831 26.1879 24.4885 25.7828 24.8407 25.3334L22.0588 24.4077C21.2617 25.0617 20.2621 25.4185 19.231 25.4171V25.4166ZM68.9097 28.0459C70.5213 28.0517 72.0858 27.5035 73.3412 26.493V28.0479L76 27.1616V14.7783L73.3412 13.892V15.4449C72.0858 14.4344 70.5213 13.8862 68.9097 13.892C65.0012 13.892 61.8328 17.0604 61.8328 20.9689C61.8328 24.8775 65.0012 28.0459 68.9097 28.0459ZM68.9097 16.5459C70.0835 16.5459 71.2093 17.0116 72.0401 17.8407C72.8709 18.6698 73.3388 19.7947 73.3412 20.9685C73.3423 22.1415 72.8775 23.267 72.0488 24.0973C71.2202 24.9276 70.0956 25.3948 68.9225 25.3959C67.7495 25.3971 66.624 24.9322 65.7937 24.1036C64.9634 23.2749 64.4962 22.1504 64.4951 20.9773C64.494 20.3965 64.6073 19.8211 64.8285 19.2841C65.0498 18.747 65.3747 18.2588 65.7846 17.8473C66.1946 17.4358 66.6815 17.1091 67.2177 16.8858C67.754 16.6625 68.3289 16.547 68.9097 16.5459ZM60.042 27.1616V14.7763L57.3831 13.8934V28.0449L60.042 27.1606V27.1616ZM41.4226 28.0454L44.0844 27.1616V26.492C45.3398 27.5025 46.9043 28.0509 48.5158 28.0454C49.4471 28.0469 50.3695 27.8645 51.2301 27.5088C52.0908 27.1531 52.8727 26.631 53.5312 25.9725C56.295 23.2093 56.295 18.7281 53.5312 15.9644C52.295 14.7321 50.6484 13.998 48.9055 13.9021C47.1626 13.8062 45.4454 14.3552 44.0815 15.4444V9.34582L41.4226 8.58411V28.0459V28.0454ZM48.5158 16.5454C49.6897 16.5454 50.8156 17.0111 51.6464 17.8404C52.4772 18.6696 52.945 19.7946 52.9473 20.9685C52.9474 21.843 52.6882 22.698 52.2025 23.4254C51.7169 24.1527 51.0265 24.7198 50.2187 25.0549C49.4109 25.39 48.5218 25.4781 47.6639 25.3081C46.806 25.1381 46.0178 24.7176 45.3988 24.0998C44.7798 23.482 44.3578 22.6945 44.1862 21.8369C44.0146 20.9794 44.101 20.0902 44.4346 19.2817C44.7682 18.4732 45.3339 17.7818 46.0604 17.2948C46.7868 16.8077 47.6413 16.547 48.5158 16.5454Z" fill="#929292"/>
</svg>
