<svg width="88" height="40" viewBox="0 0 88 40" fill="none" xmlns="http://www.w3.org/2000/svg">
<path d="M6.34223 16.4287V24.5702H9.48147V16.4285H11.4847V14.01H9.46049V13.4701C9.46049 12.4335 9.89417 11.5913 10.9268 11.5913C11.3398 11.5913 11.6702 11.6563 11.9386 11.7426L12.0626 9.2159C11.6293 9.10795 11.0925 9 10.4109 9C9.48147 9 8.40764 9.28065 7.60194 10.0581C6.71386 10.922 6.34223 12.3258 6.34223 13.5998V14.0101H5V16.4287H6.34223Z" fill="#BABABA"/>
<path d="M37.4307 24.3268C37.1142 24.3268 36.8075 24.2684 36.5111 24.151C36.2145 24.0336 35.9507 23.8545 35.7201 23.613C35.4894 23.3718 35.3049 23.0685 35.1664 22.7029C35.0279 22.3375 34.9589 21.9065 34.9589 21.4099V15.411H33.5133V13.1102H34.9589V10.2754L37.6483 9.32343V13.1102H39.9455V15.411H37.6483V20.7673C37.6483 21.043 37.7209 21.2499 37.8661 21.3877C38.0113 21.5256 38.2027 21.5945 38.4406 21.5945C38.9819 21.5945 39.5429 21.2495 40.1238 20.5591L39.5694 23.5815C39.3713 23.8024 39.0842 23.9819 38.7079 24.1198C38.3317 24.2579 37.9058 24.3268 37.4307 24.3268Z" fill="#BABABA"/>
<path fill-rule="evenodd" clip-rule="evenodd" d="M44.5846 9.45088V14.9042C45.2389 14.0591 46.2203 13.4151 47.5482 13.4151C50.3771 13.4151 51.4356 16.2524 51.4356 19.0094C51.4356 21.7663 50.3773 24.5835 47.5482 24.5835C46.1626 24.5835 45.1427 23.8993 44.4884 22.9736V24.3218H42.7564V10.1149L44.5846 9.45088ZM44.5846 16.8965V21.0822C45.1041 22.1286 45.8932 22.8128 47.1056 22.8128C49.0492 22.8128 49.6843 21.0017 49.6843 18.9893C49.6843 16.977 49.0492 15.1659 47.1249 15.1659C45.8932 15.1659 45.1042 15.9104 44.5846 16.8965Z" fill="#BABABA"/>
<path d="M58.9757 30.9007V25.2706L58.2836 25.5144V30.9007H58.9757Z" fill="#BABABA"/>
<path d="M36.9874 25.3316C37.1041 25.3316 37.1998 25.371 37.2753 25.4496C37.3506 25.5284 37.3882 25.6338 37.3882 25.7658C37.3882 25.8979 37.3504 25.9969 37.2753 26.0782C37.2 26.1595 37.1041 26.2002 36.9874 26.2002C36.8708 26.2002 36.7762 26.1595 36.7033 26.0782C36.6305 25.9971 36.594 25.8929 36.594 25.7658C36.594 25.6387 36.6305 25.5285 36.7033 25.4496C36.7762 25.3709 36.8709 25.3316 36.9874 25.3316Z" fill="#BABABA"/>
<path d="M37.3372 26.8705V30.9007H36.645V26.8705H37.3372Z" fill="#BABABA"/>
<path d="M14.9619 25.7811V26.8702H14.5248V27.4645H14.9619V29.9101C14.9619 30.2556 15.0469 30.5133 15.2169 30.6834C15.3868 30.8537 15.5909 30.9386 15.8289 30.9386C15.9697 30.9386 16.1069 30.9132 16.2405 30.8624C16.374 30.8117 16.4748 30.7432 16.5429 30.6568L16.6595 29.994C16.5721 30.0804 16.4835 30.1426 16.3936 30.1807C16.3036 30.2188 16.2077 30.2379 16.1058 30.2379C15.8046 30.2379 15.6541 30.0754 15.6541 29.7503V27.4648H16.6377V26.8705H15.6541V25.5449L14.9619 25.7811Z" fill="#BABABA"/>
<path fill-rule="evenodd" clip-rule="evenodd" d="M5.81132 27.1981C5.95215 27.0865 6.13674 26.9875 6.3651 26.901C6.59333 26.8148 6.86777 26.7715 7.18843 26.7715C7.40701 26.7715 7.60744 26.7982 7.78958 26.8515C7.97173 26.9048 8.12955 26.9924 8.26317 27.1144C8.39666 27.2363 8.50002 27.3976 8.57275 27.5982C8.64561 27.7988 8.68204 28.0465 8.68204 28.341V30.9009H8.04086V30.6114C7.71055 30.84 7.33158 30.9542 6.9042 30.9542C6.70983 30.9542 6.52897 30.9288 6.36137 30.878C6.19376 30.8273 6.04805 30.7486 5.92421 30.6418C5.80038 30.5351 5.70203 30.4006 5.62917 30.238C5.55631 30.0755 5.51988 29.8825 5.51988 29.6589C5.51988 29.4354 5.55631 29.2464 5.62917 29.0761C5.70203 28.906 5.80398 28.765 5.93515 28.6533C6.06633 28.5416 6.2217 28.4565 6.4014 28.3981C6.5811 28.3398 6.77779 28.3105 6.99161 28.3105C7.16153 28.3105 7.33402 28.3284 7.50896 28.3638C7.68377 28.3993 7.84893 28.4528 8.00443 28.5238V28.3867C8.00443 28.209 7.9837 28.0604 7.94251 27.941C7.90119 27.8217 7.84159 27.7264 7.76397 27.6552C7.68622 27.5842 7.59147 27.5333 7.47987 27.5029C7.36813 27.4724 7.24417 27.4571 7.10824 27.4571C6.9042 27.4571 6.71845 27.4851 6.55085 27.5409C6.38325 27.5969 6.22904 27.6756 6.08821 27.7772L5.81132 27.1981ZM7.05739 30.3521C7.21272 30.3521 7.37423 30.3319 7.54179 30.2912C7.70939 30.2505 7.86347 30.1921 8.00443 30.1159V28.996C7.87326 28.9453 7.73359 28.9072 7.58555 28.8817C7.43739 28.8564 7.29527 28.8436 7.15934 28.8436C6.88245 28.8436 6.64933 28.906 6.45984 29.0303C6.27036 29.1549 6.17574 29.3516 6.17574 29.6208C6.17574 29.753 6.19878 29.8646 6.245 29.956C6.29108 30.0474 6.35429 30.1224 6.43448 30.1808C6.51468 30.2392 6.60813 30.2824 6.71498 30.3103C6.82182 30.3383 6.936 30.3521 7.05739 30.3521Z" fill="#BABABA"/>
<path d="M10.8673 26.8706V29.4076C10.8673 29.7276 10.9462 29.9588 11.1042 30.101C11.262 30.2433 11.4649 30.3143 11.7125 30.3143C11.9166 30.3143 12.0999 30.2636 12.2626 30.162C12.4253 30.0605 12.5624 29.8724 12.6743 29.5982V26.8708H13.3664V30.9009H12.7107V30.3981C12.4144 30.7993 12.0087 30.9999 11.494 30.9999C11.2996 30.9999 11.1212 30.9705 10.9585 30.9122C10.7956 30.854 10.6561 30.765 10.5395 30.6456C10.4228 30.5263 10.333 30.374 10.2699 30.1885C10.2067 30.0031 10.1752 29.7835 10.1752 29.5295V26.8706H10.8673Z" fill="#BABABA"/>
<path fill-rule="evenodd" clip-rule="evenodd" d="M19.2826 26.7715C19.5157 26.7715 19.7318 26.8173 19.931 26.9087C20.1301 27.0001 20.3026 27.1347 20.4483 27.3125C20.5941 27.4903 20.7069 27.71 20.7871 27.9715C20.8673 28.2332 20.9074 28.5366 20.9074 28.882C20.9074 29.2274 20.8673 29.5321 20.7871 29.7962C20.7069 30.0603 20.5952 30.2814 20.4519 30.459C20.3087 30.6368 20.1373 30.7714 19.9383 30.8628C19.7391 30.9542 19.5205 31 19.2826 31C19.0447 31 18.8187 30.9542 18.6195 30.8628C18.4203 30.7714 18.2491 30.6368 18.1059 30.459C17.9626 30.2814 17.8509 30.0603 17.7707 29.7962C17.6905 29.5321 17.6505 29.2275 17.6505 28.882C17.6505 28.5365 17.6905 28.2332 17.7707 27.9715C17.8509 27.71 17.9638 27.4903 18.1095 27.3125C18.2552 27.1348 18.4276 27.0001 18.6269 26.9087C18.826 26.8173 19.0446 26.7715 19.2826 26.7715ZM19.2826 27.442C18.9912 27.442 18.7567 27.564 18.5795 27.8077C18.4021 28.0515 18.3135 28.4122 18.3135 28.8895C18.3135 29.3668 18.4021 29.7264 18.5795 29.9676C18.7567 30.2089 18.9912 30.3294 19.2826 30.3294C19.574 30.3294 19.8023 30.2088 19.9821 29.9676C20.1618 29.7264 20.2516 29.367 20.2516 28.8895C20.2516 28.4121 20.1617 28.0515 19.9821 27.8077C19.8024 27.564 19.5691 27.442 19.2826 27.442Z" fill="#BABABA"/>
<path d="M22.9769 27.3506V26.8709H22.3212V30.9011H23.0133V28.1432C23.1104 27.8842 23.2378 27.7052 23.3958 27.6061C23.5536 27.507 23.7273 27.4575 23.9167 27.4575C24.1546 27.4575 24.3454 27.5311 24.4887 27.6784C24.632 27.8258 24.7037 28.0745 24.7037 28.425V30.9011H25.3958V28.1507C25.4978 27.8916 25.624 27.7114 25.7747 27.6097C25.9253 27.5082 26.0976 27.4574 26.292 27.4574C26.5349 27.4574 26.728 27.531 26.8713 27.6782C27.0145 27.8256 27.0862 28.0744 27.0862 28.4249V30.9009H27.7784V28.3487C27.7784 28.0694 27.7479 27.8294 27.6873 27.6287C27.6265 27.428 27.5404 27.2643 27.4287 27.1373C27.3169 27.0103 27.1833 26.9176 27.0279 26.8592C26.8724 26.8009 26.7001 26.7715 26.5106 26.7715C25.9569 26.7715 25.5391 27.0155 25.2574 27.503C25.1602 27.244 25.0134 27.0573 24.8167 26.943C24.62 26.8288 24.3905 26.7715 24.1281 26.7715C23.6327 26.7715 23.2489 26.9647 22.9769 27.3506Z" fill="#BABABA"/>
<path fill-rule="evenodd" clip-rule="evenodd" d="M30.7943 26.7715C31.0274 26.7715 31.2436 26.8173 31.4427 26.9087C31.6419 27.0001 31.8143 27.1347 31.9601 27.3125C32.1058 27.4903 32.2187 27.71 32.2989 27.9715C32.3791 28.2332 32.4191 28.5366 32.4191 28.882C32.4191 29.2274 32.3791 29.5321 32.2989 29.7962C32.2187 30.0603 32.1069 30.2813 31.9637 30.459C31.8204 30.6368 31.6491 30.7714 31.4501 30.8628C31.2508 30.9542 31.0322 31 30.7943 31C30.5564 31 30.3304 30.9542 30.1313 30.8628C29.932 30.7714 29.7608 30.6368 29.6176 30.459C29.4744 30.2813 29.3626 30.0603 29.2824 29.7962C29.2022 29.5321 29.1622 29.2275 29.1622 28.882C29.1622 28.5365 29.2022 28.2332 29.2824 27.9715C29.3626 27.71 29.4755 27.4903 29.6212 27.3125C29.767 27.1348 29.9393 27.0001 30.1386 26.9087C30.3377 26.8173 30.5563 26.7715 30.7943 26.7715ZM30.7943 27.442C30.5029 27.442 30.2685 27.564 30.0912 27.8077C29.9138 28.0515 29.8253 28.4122 29.8253 28.8895C29.8253 29.3668 29.9138 29.7264 30.0912 29.9676C30.2685 30.2089 30.5029 30.3294 30.7943 30.3294C31.0858 30.3294 31.314 30.2088 31.4938 29.9676C31.6735 29.7264 31.7634 29.367 31.7634 28.8895C31.7634 28.4121 31.6734 28.0515 31.4938 27.8077C31.3141 27.564 31.0809 27.442 30.7943 27.442Z" fill="#BABABA"/>
<path d="M33.8178 25.7811V26.8702H33.3806V27.4645H33.8178V29.9101C33.8178 30.2556 33.9028 30.5133 34.0728 30.6834C34.2427 30.8537 34.4468 30.9386 34.6848 30.9386C34.8256 30.9386 34.9628 30.9132 35.0964 30.8624C35.2299 30.8117 35.3307 30.7432 35.3988 30.6568L35.5154 29.994C35.428 30.0804 35.3393 30.1426 35.2495 30.1807C35.1595 30.2188 35.0636 30.2379 34.9617 30.2379C34.6604 30.2379 34.51 30.0754 34.51 29.7503V27.4648H35.4936V26.8705H34.51V25.5449L33.8178 25.7811Z" fill="#BABABA"/>
<path d="M40.2512 30.0628L39.1364 26.8706H38.437L39.9088 30.9008H40.5936L42.0653 26.8706H41.3586L40.2512 30.0628Z" fill="#BABABA"/>
<path fill-rule="evenodd" clip-rule="evenodd" d="M43.4642 29.1333C43.4835 29.3417 43.5248 29.5219 43.588 29.6743C43.6511 29.8267 43.7301 29.9524 43.8249 30.0514C43.9196 30.1505 44.0263 30.2241 44.1454 30.2723C44.2644 30.3207 44.387 30.3447 44.5133 30.3447C44.7028 30.3447 44.8691 30.299 45.0124 30.2076C45.1555 30.1162 45.271 30.0045 45.3584 29.8724L45.8174 30.2914C45.7639 30.3676 45.6972 30.4476 45.617 30.5314C45.5368 30.6153 45.4422 30.6915 45.3329 30.76C45.2236 30.8285 45.0985 30.8857 44.9577 30.9314C44.8167 30.9771 44.6589 30.9999 44.4841 30.9999C44.2557 30.9999 44.0396 30.9553 43.8357 30.8665C43.6318 30.7776 43.4543 30.6444 43.3038 30.4666C43.1532 30.2889 43.0342 30.0667 42.9468 29.7999C42.8594 29.5332 42.8157 29.2222 42.8157 28.8667C42.8157 28.5315 42.8557 28.2331 42.9359 27.9715C43.0161 27.71 43.1277 27.4903 43.2711 27.3125C43.4144 27.1348 43.5856 27.0001 43.7847 26.9087C43.9839 26.8173 44.2024 26.7715 44.4404 26.7715C44.6785 26.7715 44.8969 26.8173 45.0962 26.9087C45.2953 27.0001 45.4678 27.1347 45.6135 27.3125C45.7592 27.4903 45.8721 27.71 45.9523 27.9715C46.0325 28.2332 46.0726 28.5315 46.0726 28.8667C46.0726 28.9175 46.0713 28.9645 46.069 29.0076C46.0664 29.0508 46.0628 29.0927 46.058 29.1333H43.4642ZM44.4478 27.4268C44.1805 27.4268 43.9597 27.5272 43.7847 27.7278C43.6099 27.9285 43.5029 28.2167 43.4642 28.5925H45.424C45.3852 28.2066 45.2783 27.9157 45.1035 27.7201C44.9287 27.5247 44.7101 27.4268 44.4478 27.4268Z" fill="#BABABA"/>
<path d="M51.7297 27.5677C51.936 27.6667 52.1023 27.7874 52.2287 27.9296L52.4839 27.3046C52.3527 27.1725 52.168 27.0506 51.9301 26.9389C51.6921 26.8273 51.408 26.7713 51.0777 26.7713C50.8736 26.7713 50.683 26.7967 50.5057 26.8475C50.3283 26.8984 50.1766 26.9732 50.0503 27.0723C49.9239 27.1713 49.8244 27.2933 49.7515 27.438C49.6787 27.5828 49.6422 27.7466 49.6422 27.9294C49.6422 28.153 49.6919 28.3358 49.7916 28.4779C49.8911 28.6202 50.0235 28.7345 50.1887 28.8208C50.2712 28.8616 50.3646 28.8996 50.4692 28.935C50.5736 28.9706 50.6829 29.0049 50.797 29.0379C50.9111 29.071 51.0264 29.1052 51.1431 29.1407C51.2597 29.1764 51.369 29.2169 51.4709 29.2627C51.6166 29.3236 51.7223 29.3897 51.7878 29.4608C51.8534 29.532 51.8862 29.6234 51.8862 29.7351C51.8862 29.9283 51.8048 30.0755 51.6421 30.177C51.4793 30.2787 51.2741 30.3294 51.0264 30.3294C50.7641 30.3294 50.5212 30.2787 50.2978 30.177C50.0744 30.0755 49.8922 29.9562 49.7514 29.819L49.4818 30.4285C49.5547 30.5047 49.6433 30.5771 49.7478 30.6456C49.8522 30.7141 49.97 30.7751 50.1011 30.8284C50.2323 30.8817 50.3768 30.9237 50.5347 30.9541C50.6925 30.9847 50.859 30.9999 51.0338 30.9999C51.2231 30.9999 51.4102 30.9782 51.5948 30.9351C51.7794 30.8921 51.9445 30.8208 52.0902 30.7218C52.2359 30.6227 52.3526 30.4932 52.44 30.3332C52.5274 30.1731 52.5711 29.9687 52.5711 29.7351C52.5711 29.5016 52.5238 29.3122 52.429 29.1675C52.3343 29.0228 52.1874 28.8996 51.9883 28.798C51.8814 28.7423 51.7673 28.694 51.6459 28.6533C51.5245 28.6127 51.4055 28.5746 51.2889 28.539C51.1723 28.5035 51.0594 28.4704 50.9501 28.44C50.8408 28.4096 50.7425 28.374 50.6551 28.3334C50.553 28.2877 50.4729 28.2319 50.4146 28.1658C50.3563 28.0998 50.3272 28.016 50.3272 27.9143C50.3272 27.7772 50.3854 27.6603 50.502 27.5638C50.6186 27.4675 50.8008 27.4191 51.0484 27.4191C51.2961 27.4191 51.5232 27.4687 51.7297 27.5677Z" fill="#BABABA"/>
<path fill-rule="evenodd" clip-rule="evenodd" d="M55.2458 26.7715C55.4789 26.7715 55.695 26.8173 55.8942 26.9087C56.0933 27.0001 56.2658 27.1347 56.4115 27.3125C56.5572 27.4903 56.6701 27.71 56.7503 27.9715C56.8305 28.2332 56.8706 28.5366 56.8706 28.882C56.8706 29.2274 56.8305 29.5321 56.7503 29.7962C56.6701 30.0603 56.5584 30.2813 56.4151 30.459C56.2718 30.6368 56.1006 30.7714 55.9015 30.8628C55.7022 30.9542 55.4837 31 55.2458 31C55.0079 31 54.7818 30.9542 54.5827 30.8628C54.3834 30.7714 54.2122 30.6368 54.0691 30.459C53.9258 30.2813 53.8141 30.0603 53.7339 29.7962C53.6537 29.5321 53.6137 29.2275 53.6137 28.882C53.6137 28.5365 53.6537 28.2332 53.7339 27.9715C53.8141 27.71 53.927 27.4903 54.0727 27.3125C54.2184 27.1348 54.3908 27.0001 54.59 26.9087C54.7892 26.8173 55.0078 26.7715 55.2458 26.7715ZM55.2458 27.442C54.9543 27.442 54.7199 27.564 54.5427 27.8077C54.3653 28.0515 54.2767 28.4122 54.2767 28.8895C54.2767 29.3668 54.3653 29.7264 54.5427 29.9676C54.7199 30.2089 54.9543 30.3294 55.2458 30.3294C55.5372 30.3294 55.7654 30.2088 55.9453 29.9676C56.125 29.7264 56.2148 29.367 56.2148 28.8895C56.2148 28.4121 56.1248 28.0515 55.9453 27.8077C55.7656 27.564 55.5323 27.442 55.2458 27.442Z" fill="#BABABA"/>
<path d="M61.1905 26.8706V29.4076C61.1905 29.7276 61.2694 29.9588 61.4272 30.101C61.5851 30.2433 61.7879 30.3143 62.0356 30.3143C62.2396 30.3143 62.4229 30.2636 62.5856 30.162C62.7484 30.0605 62.8855 29.8724 62.9973 29.5982V26.8708H63.6895V30.9009H63.0337V30.3981C62.7374 30.7993 62.3318 30.9999 61.817 30.9999C61.6226 30.9999 61.4442 30.9705 61.2815 30.9122C61.1187 30.854 60.9791 30.765 60.8626 30.6456C60.746 30.5263 60.6562 30.374 60.5931 30.1885C60.5299 30.0031 60.4984 29.7835 60.4984 29.5295V26.8706H61.1905Z" fill="#BABABA"/>
<path d="M65.2854 25.7811V26.8702H64.8482V27.4645H65.2854V29.9101C65.2854 30.2556 65.3703 30.5133 65.5404 30.6834C65.7103 30.8537 65.9143 30.9386 66.1523 30.9386C66.2931 30.9386 66.4304 30.9132 66.564 30.8624C66.6975 30.8117 66.7983 30.7432 66.8664 30.6568L66.983 29.994C66.8956 30.0804 66.8069 30.1426 66.717 30.1807C66.6271 30.2188 66.5312 30.2379 66.4292 30.2379C66.128 30.2379 65.9775 30.0754 65.9775 29.7503V27.4648H66.9611V26.8705H65.9775V25.5449L65.2854 25.7811Z" fill="#BABABA"/>
<path d="M68.4542 25.3316C68.5708 25.3316 68.6666 25.371 68.7421 25.4496C68.8174 25.5284 68.8549 25.6338 68.8549 25.7658C68.8549 25.8979 68.8172 25.9969 68.7421 26.0782C68.6667 26.1595 68.5708 26.2002 68.4542 26.2002C68.3376 26.2002 68.243 26.1595 68.1701 26.0782C68.0973 25.9971 68.0608 25.8929 68.0608 25.7658C68.0608 25.6387 68.0973 25.5285 68.1701 25.4496C68.243 25.3709 68.3377 25.3316 68.4542 25.3316Z" fill="#BABABA"/>
<path d="M68.804 26.8705V30.9007H68.1118V26.8705H68.804Z" fill="#BABABA"/>
<path fill-rule="evenodd" clip-rule="evenodd" d="M72.4985 26.9087C72.2994 26.8173 72.0833 26.7715 71.8501 26.7715C71.6121 26.7715 71.3935 26.8173 71.1944 26.9087C70.9951 27.0001 70.8228 27.1348 70.677 27.3125C70.5313 27.4903 70.4184 27.71 70.3382 27.9715C70.258 28.2332 70.218 28.5365 70.218 28.882C70.218 29.2275 70.258 29.5321 70.3382 29.7962C70.4184 30.0603 70.5302 30.2813 70.6734 30.459C70.8166 30.6368 70.9878 30.7714 71.1871 30.8628C71.3862 30.9542 71.6123 31 71.8501 31C72.088 31 72.3066 30.9542 72.5059 30.8628C72.705 30.7714 72.8762 30.6368 73.0195 30.459C73.1628 30.2813 73.2745 30.0603 73.3547 29.7962C73.4349 29.5321 73.4749 29.2274 73.4749 28.882C73.4749 28.5366 73.4349 28.2332 73.3547 27.9715C73.2745 27.71 73.1616 27.4903 73.0159 27.3125C72.8702 27.1347 72.6977 27.0001 72.4985 26.9087ZM71.147 27.8077C71.3243 27.564 71.5587 27.442 71.8501 27.442C72.1367 27.442 72.3699 27.564 72.5496 27.8077C72.7292 28.0515 72.8192 28.4121 72.8192 28.8895C72.8192 29.367 72.7293 29.7264 72.5496 29.9676C72.3698 30.2088 72.1416 30.3294 71.8501 30.3294C71.5587 30.3294 71.3243 30.2089 71.147 29.9676C70.9696 29.7264 70.8811 29.3668 70.8811 28.8895C70.8811 28.4122 70.9696 28.0515 71.147 27.8077Z" fill="#BABABA"/>
<path d="M75.5439 26.8706V27.3658C75.8354 26.9697 76.2409 26.7715 76.7607 26.7715C76.9549 26.7715 77.1334 26.8009 77.2961 26.8592C77.4589 26.9176 77.5985 27.0103 77.715 27.1373C77.8316 27.2643 77.9214 27.428 77.9846 27.6287C78.0476 27.8294 78.0793 28.0694 78.0793 28.3487V30.9009H77.3872V28.4249C77.3872 28.0744 77.3107 27.8256 77.1576 27.6782C77.0046 27.531 76.7994 27.4574 76.5419 27.4574C76.3379 27.4574 76.1533 27.5082 75.9882 27.6097C75.823 27.7114 75.6869 27.8967 75.5801 28.1659V30.9009H74.8879V26.8708L75.5439 26.8706Z" fill="#BABABA"/>
<path d="M81.4931 27.5677C81.6994 27.6667 81.8657 27.7874 81.9921 27.9296L82.2473 27.3046C82.1161 27.1725 81.9314 27.0506 81.6935 26.9389C81.4555 26.8273 81.1714 26.7713 80.8411 26.7713C80.637 26.7713 80.4464 26.7967 80.2691 26.8475C80.0918 26.8984 79.94 26.9732 79.8137 27.0723C79.6873 27.1713 79.5878 27.2933 79.5149 27.438C79.4421 27.5828 79.4056 27.7466 79.4056 27.9294C79.4056 28.153 79.4553 28.3358 79.555 28.4779C79.6545 28.6202 79.7869 28.7345 79.9521 28.8208C80.0346 28.8616 80.1281 28.8996 80.2326 28.935C80.337 28.9706 80.4463 29.0049 80.5604 29.0379C80.6745 29.071 80.7898 29.1052 80.9065 29.1407C81.0231 29.1764 81.1324 29.2169 81.2343 29.2627C81.3801 29.3236 81.4857 29.3897 81.5513 29.4608C81.6168 29.532 81.6496 29.6234 81.6496 29.7351C81.6496 29.9283 81.5682 30.0755 81.4055 30.177C81.2427 30.2787 81.0375 30.3294 80.7898 30.3294C80.5275 30.3294 80.2846 30.2787 80.0612 30.177C79.8378 30.0755 79.6556 29.9562 79.5148 29.819L79.2453 30.4285C79.3181 30.5047 79.4067 30.5771 79.5112 30.6456C79.6156 30.7141 79.7334 30.7751 79.8646 30.8284C79.9957 30.8817 80.1402 30.9237 80.2981 30.9541C80.4559 30.9847 80.6224 30.9999 80.7972 30.9999C80.9865 30.9999 81.1736 30.9782 81.3582 30.9351C81.5428 30.8921 81.7079 30.8208 81.8536 30.7218C81.9994 30.6227 82.116 30.4932 82.2034 30.3332C82.2908 30.1731 82.3345 29.9687 82.3345 29.7351C82.3345 29.5016 82.2872 29.3122 82.1924 29.1675C82.0977 29.0228 81.9508 28.8996 81.7517 28.798C81.6448 28.7423 81.5307 28.694 81.4093 28.6533C81.2879 28.6127 81.1689 28.5746 81.0523 28.539C80.9357 28.5035 80.8228 28.4704 80.7135 28.44C80.6042 28.4096 80.5059 28.374 80.4185 28.3334C80.3164 28.2877 80.2363 28.2319 80.178 28.1658C80.1197 28.0998 80.0906 28.016 80.0906 27.9143C80.0906 27.7772 80.1488 27.6603 80.2654 27.5638C80.382 27.4675 80.5642 27.4191 80.8118 27.4191C81.0595 27.4191 81.2866 27.4687 81.4931 27.5677Z" fill="#BABABA"/>
<path fill-rule="evenodd" clip-rule="evenodd" d="M57.6576 13.4152C55.964 13.4152 54.7709 13.9586 54.0204 14.5421L54.7516 16.0714C55.5022 15.528 56.3681 15.2263 57.4458 15.2263C58.9084 15.2263 59.8128 15.7897 59.8128 17.6813V18.0435C59.0045 17.6813 58.0423 17.4801 57.1379 17.4801C54.8862 17.4801 53.2505 18.7075 53.2505 21.0418C53.2505 23.3761 54.867 24.4628 56.9069 24.4628C58.0231 24.4628 59.0623 24.1408 59.9091 23.5573V24.322H61.6026V17.5606C61.6026 14.4213 59.9669 13.4152 57.6576 13.4152ZM59.8129 19.2912V22.2492C59.0623 22.6517 58.1194 22.8731 57.3111 22.8731C56.0218 22.8731 54.9826 22.37 54.9826 20.9413C54.9826 19.5126 56.118 18.8887 57.5806 18.8887C58.2927 18.8887 59.1201 19.0295 59.8129 19.2912Z" fill="#BABABA"/>
<path d="M70.7216 16.7555L72.0493 15.6287C71.5298 14.3609 70.2981 13.4152 68.4506 13.4152C65.8334 13.4152 63.8513 15.3268 63.8513 18.9892C63.8513 22.6517 65.8334 24.5835 68.2582 24.5835C70.3751 24.5835 71.549 23.1346 71.9916 22.3297L70.683 21.3236C70.1826 22.209 69.3937 22.8127 68.3545 22.8127C66.892 22.8127 65.6411 21.5652 65.6411 19.0094C65.6411 16.4537 66.892 15.186 68.4508 15.186C69.4707 15.186 70.279 15.7292 70.7216 16.7555Z" fill="#BABABA"/>
<path d="M78.9202 17.8625L82.4418 13.6768H80.4597L76.0528 18.9491V9.45092L74.2245 10.0949V24.322H76.0528V21.2834L77.7848 19.2308L81.0179 24.322H83L78.9202 17.8625Z" fill="#BABABA"/>
<path fill-rule="evenodd" clip-rule="evenodd" d="M18.8198 23.5251C18.0804 24.2302 17.1695 24.5824 16.0871 24.5824C15.6248 24.5824 15.1659 24.5097 14.7105 24.365C14.2549 24.2199 13.849 23.9885 13.4926 23.671C13.1362 23.3535 12.849 22.9425 12.6312 22.4382C12.4134 21.9341 12.3046 21.3297 12.3046 20.6252C12.3046 19.9901 12.4266 19.4478 12.6708 18.9989C12.915 18.55 13.2386 18.1805 13.6411 17.8904C14.0437 17.6004 14.4992 17.3864 15.0076 17.2481C15.5159 17.11 16.0406 17.041 16.5819 17.041C17.0174 17.041 17.4068 17.1031 17.7501 17.2272C18.0934 17.3514 18.3971 17.5236 18.6612 17.744C18.6612 16.9595 18.5389 16.3749 18.2947 15.9894C18.0505 15.6039 17.6313 15.4112 17.0372 15.4112C16.4431 15.4112 15.8953 15.5011 15.4333 15.6805C14.971 15.8601 14.5883 16.067 14.2846 16.3017L13.1757 14.0628C13.5586 13.717 14.0734 13.4267 14.7204 13.1916C15.3671 12.9564 16.1329 12.8388 17.0174 12.8388C18.3381 12.8388 19.3626 13.222 20.0906 13.9881C20.8183 14.7543 21.1824 16.0071 21.1824 17.7464V24.3109H18.8199L18.8198 23.5251ZM18.6611 19.6892C18.4762 19.5371 18.1924 19.4093 17.8099 19.3054C17.4272 19.2018 17.0445 19.1498 16.662 19.1498C16.0679 19.1498 15.6159 19.2639 15.3061 19.4921C14.996 19.7203 14.841 20.097 14.841 20.6222C14.841 21.1475 14.9893 21.5035 15.2863 21.7316C15.5832 21.9598 16.0285 22.0737 16.6223 22.0737C16.8203 22.0737 17.0248 22.0497 17.236 22.0013C17.4471 21.9528 17.6449 21.8871 17.8298 21.8043C18.0146 21.7214 18.1795 21.6316 18.3247 21.5347C18.4699 21.4378 18.5819 21.341 18.6611 21.2441V19.6892Z" fill="#BABABA"/>
<path d="M29.6631 13.0443C29.0821 12.8646 28.3754 12.7747 27.543 12.7747C27.1468 12.7747 26.7171 12.8195 26.2548 12.9091C25.7925 12.9988 25.3665 13.1643 24.9769 13.4057C24.5872 13.647 24.2634 13.9852 24.0059 14.4195C23.7483 14.8542 23.6196 15.4164 23.6196 16.106C23.6196 16.7546 23.7449 17.2822 23.9961 17.6891C24.2472 18.096 24.5643 18.434 24.9478 18.7029C25.3312 18.9721 25.7607 19.1962 26.2366 19.3755C26.7125 19.5548 27.1684 19.741 27.6047 19.934C28.0144 20.1135 28.3745 20.2962 28.6851 20.4825C28.9957 20.6688 29.1511 20.9066 29.1511 21.1963C29.1511 21.3481 29.1014 21.4759 29.0025 21.5793C28.9034 21.6826 28.7812 21.762 28.636 21.8172C28.4908 21.8724 28.3257 21.9104 28.1408 21.9311C27.956 21.9518 27.7777 21.9621 27.6062 21.9621C26.9725 21.9621 26.3554 21.8553 25.7546 21.6413C25.154 21.4274 24.649 21.1754 24.2398 20.8854L23.2692 23.2069C23.7049 23.5664 24.3023 23.8778 25.0616 24.1404C25.8205 24.4031 26.682 24.5346 27.6459 24.5346C28.1344 24.5346 28.6257 24.4827 29.1204 24.3796C29.6151 24.2762 30.06 24.0896 30.4553 23.8205C30.8505 23.5513 31.1699 23.1894 31.4137 22.734C31.6572 22.2787 31.7793 21.6716 31.7793 20.9955C31.7793 20.3194 31.6507 19.7641 31.3935 19.3295C31.1361 18.8948 30.8097 18.5326 30.4139 18.243C30.018 17.9533 29.573 17.7119 29.0783 17.5187C28.5836 17.3254 28.0987 17.1322 27.6241 16.9389C27.4655 16.8837 27.3073 16.818 27.149 16.7421C26.9906 16.6662 26.8489 16.5836 26.7235 16.4939C26.5983 16.4043 26.4927 16.318 26.407 16.2352C26.3213 16.1524 26.2785 16.0765 26.2785 16.0073C26.2785 15.8006 26.3739 15.6281 26.5655 15.49C26.757 15.3522 27.0506 15.283 27.4465 15.283C27.5917 15.283 27.7961 15.3005 28.0601 15.335C28.3241 15.3694 28.598 15.4281 28.8816 15.511C29.1652 15.5938 29.4425 15.7007 29.7132 15.8318C29.9838 15.9632 30.1981 16.1254 30.3567 16.3187L31.2877 13.9562C30.7857 13.5279 30.2442 13.224 29.6631 13.0443Z" fill="#BABABA"/>
</svg>
