<?xml version="1.0" encoding="utf-8"?>
<!-- Generator: Adobe Illustrator 29.3.1, SVG Export Plug-In . SVG Version: 9.03 Build 55982)  -->
<svg version="1.0" id="Vrstva_1" xmlns="http://www.w3.org/2000/svg" xmlns:xlink="http://www.w3.org/1999/xlink" x="0px" y="0px"
	 viewBox="0 0 94.6 40" style="enable-background:new 0 0 94.6 40;" xml:space="preserve">
<style type="text/css">
	.st0{fill:#BABABA;}
</style>
<path class="st0" d="M55.4,11.3H39.9v7h15.4V11.3z M24.8,0c0,0-5.7-0.5-10.5,4.3C9.9,8.7,3.5,15.1,2.1,16.5C0,18.6,0,21.9,0,21.9V40
	h70.8c1.8,0,4.9-0.4,8.6-3.4c4.4-4.4,11.6-11.6,13.1-13.1c2.1-2.1,2.1-5.3,2.1-5.3V0H24.8z M30.1,33.7H7v-4.2h18.9V7.1h4.2V33.7z
	 M59.6,16.9l-4.2,4.2h4.2v12.6H35.7V7.1h23.8V16.9z M87.6,11.3H68.7v22.4h-4.2V7.1h23.1V11.3z M55.4,22.5H39.9v7h15.4V22.5z"/>
</svg>
