<svg width="88" height="40" viewBox="0 0 88 40" fill="none" xmlns="http://www.w3.org/2000/svg">
<path d="M5.42549 25.2667C4.39891 25.2667 3.47307 25.048 2.64798 24.6108C1.82288 24.164 1.17528 23.5508 0.705168 22.7713C0.235057 21.9823 0 21.1029 0 20.1333C0 19.1637 0.235057 18.2891 0.705168 17.5096C1.17528 16.7206 1.82288 16.1075 2.64798 15.6702C3.47307 15.2234 4.39891 15 5.42549 15C6.45203 15 7.37786 15.2234 8.20298 15.6702C9.02806 16.1075 9.67568 16.7159 10.1458 17.4954C10.6159 18.2749 10.851 19.1542 10.851 20.1333C10.851 21.1125 10.6159 21.9918 10.1458 22.7713C9.67568 23.5508 9.02806 24.164 8.20298 24.6108C7.37786 25.048 6.45203 25.2667 5.42549 25.2667ZM5.42549 23.6411C6.09706 23.6411 6.70149 23.4938 7.23875 23.1991C7.77602 22.8949 8.19818 22.4766 8.50519 21.9442C8.8122 21.4024 8.96571 20.7988 8.96571 20.1333C8.96571 19.4679 8.8122 18.869 8.50519 18.3367C8.19818 17.7948 7.77602 17.3765 7.23875 17.0819C6.70149 16.7777 6.09706 16.6256 5.42549 16.6256C4.75387 16.6256 4.14945 16.7777 3.61219 17.0819C3.07492 17.3765 2.65277 17.7948 2.34576 18.3367C2.03875 18.869 1.88524 19.4679 1.88524 20.1333C1.88524 20.7988 2.03875 21.4024 2.34576 21.9442C2.65277 22.4766 3.07492 22.8949 3.61219 23.1991C4.14945 23.4938 4.75387 23.6411 5.42549 23.6411ZM24.6588 25.1241L24.6444 18.5078L21.3345 23.9833H20.4998L17.1898 18.5933V25.1241H15.4053V15.1426H16.9452L20.9459 21.7589L24.8747 15.1426H26.4145L26.4289 25.1241H24.6588ZM41.3154 15.1426V25.1241H39.7755L34.2205 18.3652V25.1241H32.3641V15.1426H33.9039L39.4589 21.9015V15.1426H41.3154ZM54.7842 23.5698V25.1241H47.229V15.1426H54.5828V16.6969H49.0996V19.292H53.964V20.8178H49.0996V23.5698H54.7842ZM62.1274 16.7111H58.7886V15.1426H67.3372V16.7111H63.9984V25.1241H62.1274V16.7111ZM71.9552 15.1426H73.8263V25.1241H71.9552V15.1426ZM83.9991 25.2667C82.9822 25.2667 82.0612 25.048 81.2358 24.6108C80.4203 24.164 79.7779 23.5508 79.3078 22.7713C78.8471 21.9918 78.617 21.1125 78.617 20.1333C78.617 19.1542 78.8518 18.2749 79.3219 17.4954C79.7921 16.7159 80.4349 16.1075 81.2504 15.6702C82.0753 15.2234 82.9967 15 84.0137 15C84.8386 15 85.5916 15.1426 86.273 15.4278C86.9539 15.713 87.5299 16.1265 88 16.6683L86.7911 17.7948C86.0617 17.0153 85.1647 16.6256 84.0998 16.6256C83.409 16.6256 82.7902 16.7777 82.2433 17.0819C81.6965 17.3765 81.2697 17.7901 80.9624 18.3224C80.6556 18.8548 80.5022 19.4584 80.5022 20.1333C80.5022 20.8083 80.6556 21.4119 80.9624 21.9442C81.2697 22.4766 81.6965 22.8949 82.2433 23.1991C82.7902 23.4938 83.409 23.6411 84.0998 23.6411C85.1647 23.6411 86.0617 23.2466 86.7911 22.4576L88 23.5983C87.5299 24.1402 86.9492 24.5537 86.2584 24.8389C85.5774 25.1241 84.824 25.2667 83.9991 25.2667Z" fill="#BABABA"/>
</svg>
