<svg width="88" height="40" viewBox="0 0 88 40" fill="none" xmlns="http://www.w3.org/2000/svg">
<path fill-rule="evenodd" clip-rule="evenodd" d="M16.2594 14.7762C19.3487 14.7762 21.6525 16.9155 21.6525 19.9782C21.6525 23.0343 19.3487 25.1801 16.2594 25.1801C13.1702 25.1801 10.8467 23.0408 10.8467 19.9782C10.8532 16.9155 13.1702 14.7762 16.2594 14.7762ZM16.2594 17.0651C14.5773 17.0651 13.504 18.333 13.504 19.9716C13.504 21.5973 14.5773 22.8782 16.2594 22.8782C17.9284 22.8782 19.0018 21.5973 19.0018 19.9716C19.0018 18.3265 17.9284 17.0651 16.2594 17.0651Z" fill="#BABABA"/>
<path d="M2.83559 21.6299C3.56209 22.3516 4.68129 22.9564 6.06229 22.9564C6.95896 22.9564 7.50219 22.5792 7.50219 22.098C7.50219 21.5258 6.84769 21.2982 5.77431 21.0706L5.69224 21.0544C4.03004 20.7247 1.7753 20.2776 1.7753 17.9365C1.7753 16.2458 3.2152 14.7893 5.80703 14.7893C7.4302 14.7893 8.83738 15.2705 9.91076 16.1938L8.48395 18.047C7.63309 17.3513 6.52698 17.0066 5.63686 17.0066C4.77292 17.0066 4.43912 17.3513 4.43912 17.7934C4.43912 18.3201 5.0609 18.5022 6.1801 18.7103C7.84908 19.0549 10.1529 19.5361 10.1529 21.8119C10.1529 23.8277 8.65412 25.1737 5.93793 25.1737C3.88934 25.1737 2.46907 24.5429 1.45459 23.5741L2.83559 21.6299Z" fill="#BABABA"/>
<path d="M30.3836 14.9388H22.9747V24.985H25.5796V20.9925H30.2789V18.7947H25.5796V17.1236H30.3836V14.9388Z" fill="#BABABA"/>
<path d="M34.0554 17.2016H31.2214V14.9388H39.4812V17.2016H36.6603V24.9915H34.0554V17.2016Z" fill="#BABABA"/>
<path d="M42.6032 14.9388H39.6514L43.454 24.9915H46.7265L50.5423 14.9388H47.5905L45.0903 22.189L42.6032 14.9388Z" fill="#BABABA"/>
<path d="M51.2884 14.9388H53.8933V24.9915H51.2884V14.9388Z" fill="#BABABA"/>
<path d="M64.9871 17.1106C64.241 15.8621 62.8796 14.7762 60.6674 14.7762C57.6567 14.7762 55.2023 16.7789 55.2023 19.9651C55.2023 23.1643 57.6567 25.1671 60.674 25.1671C62.5851 25.1671 64.0512 24.3998 65.1442 23.2099V19.2759H60.2616V21.4282H62.5786V22.2735C62.1662 22.6051 61.4528 22.8782 60.6674 22.8782C59.0115 22.8782 57.8465 21.6168 57.8465 19.9716C57.8465 18.333 59.0181 17.0651 60.6674 17.0651C61.623 17.0651 62.3953 17.5918 62.8076 18.255L64.9871 17.1106Z" fill="#BABABA"/>
<path d="M69.8311 30.226C69.3271 29.7253 69.3271 28.919 69.8311 28.4183L81.6252 16.6879C82.1292 16.1872 82.9408 16.1872 83.4382 16.6879L86.1609 19.3929C86.6649 19.8936 86.6649 20.6999 86.1609 21.1941L74.3668 32.9245C73.8628 33.4252 73.0513 33.4252 72.5538 32.9245L69.8311 30.226Z" fill="url(#paint0_linear_5944_15563)"/>
<path d="M83.4449 23.9121L86.1677 21.2071C86.6716 20.7129 86.6716 19.9001 86.1677 19.4059L74.3735 7.67552C73.8696 7.17483 73.058 7.17483 72.5605 7.67552L69.8378 10.3805C69.3338 10.8812 69.3338 11.6875 69.8378 12.1817L81.632 23.9121C82.1359 24.4128 82.1359 25.2191 81.632 25.7133L83.4449 23.9121Z" fill="url(#paint1_linear_5944_15563)"/>
<defs>
<linearGradient id="paint0_linear_5944_15563" x1="80" y1="22.5" x2="69.5881" y2="30.2795" gradientUnits="userSpaceOnUse">
<stop stop-color="#A3A3A3"/>
<stop offset="1" stop-color="#818181"/>
</linearGradient>
<linearGradient id="paint1_linear_5944_15563" x1="71.5" y1="9.5" x2="82.0101" y2="24.5833" gradientUnits="userSpaceOnUse">
<stop stop-color="#A3A3A3"/>
<stop offset="1" stop-color="#818181"/>
</linearGradient>
</defs>
</svg>
