<svg width="88" height="40" viewBox="0 0 88 40" fill="none" xmlns="http://www.w3.org/2000/svg">
<path fill-rule="evenodd" clip-rule="evenodd" d="M11.9676 7.42499V12.5848H18.0259C16.4588 13.6319 15.4592 14.9657 14.97 15.7349H11.9676V27.575H10.2274H8.42835V15.7349H5V12.5848H8.42835L8.4019 9.08897L11.9676 7.42499ZM18.6732 18.5105C18.8691 17.4596 19.3269 16.6775 20.0405 16.1605C20.7539 15.6467 21.5743 15.3872 22.5073 15.3872C23.4763 15.3872 24.2907 15.6704 24.945 16.2335C25.5989 16.8001 25.9556 17.5588 26.0147 18.5105H18.6732ZM26.342 13.2854C25.2303 12.6636 23.9522 12.351 22.5073 12.351C21.0473 12.351 19.7671 12.644 18.6726 13.2264C18.6633 13.2316 18.6538 13.2361 18.6443 13.2407L18.6443 13.2407C18.6359 13.2447 18.6276 13.2486 18.6194 13.253C18.5719 13.2763 18.5246 13.3026 18.48 13.3289C17.3386 13.9828 16.4469 14.891 15.8049 16.0587C15.7811 16.0992 15.76 16.1404 15.7395 16.1839C15.1361 17.3198 14.8389 18.613 14.8389 20.058C14.8389 21.5377 15.1655 22.8429 15.8194 23.9694C16.4737 25.0992 17.3743 25.9749 18.5246 26.5967C19.6717 27.2185 20.9917 27.5309 22.4779 27.5309C23.6668 27.5309 24.731 27.3181 25.6732 26.8887C26.6125 26.4625 27.4061 25.8731 28.0511 25.1225C28.6931 24.3755 29.1539 23.5432 29.433 22.6269H25.5689C25.3106 23.1728 24.9182 23.6162 24.3951 23.9548C23.8687 24.2964 23.221 24.4657 22.4479 24.4657C21.4164 24.4657 20.5396 24.1449 19.8176 23.5027C19.092 22.8601 18.6911 21.9756 18.6138 20.8459H29.8197C29.8375 20.5951 29.8521 20.3499 29.864 20.1161C29.8732 19.8825 29.8788 19.6607 29.8788 19.4447C29.8788 18.1225 29.5667 16.9198 28.9428 15.8397C28.3183 14.7593 27.4504 13.9098 26.342 13.2854ZM36.9469 24.6124C38.0366 24.6124 38.8837 24.2618 39.4883 23.5612C40.0926 22.8609 40.474 21.995 40.633 20.9634H37.3928C36.3825 20.9634 35.6587 21.1435 35.223 21.5031C34.7872 21.8636 34.569 22.3059 34.569 22.8314C34.569 23.3962 34.7872 23.8341 35.223 24.145C35.6587 24.4565 36.2339 24.6124 36.9469 24.6124ZM37.7495 12.3517C39.8498 12.3517 41.5045 12.8672 42.7137 13.8986C43.9219 14.9305 44.5265 16.3901 44.5265 18.2774V27.181H41.2869L40.9302 24.8456C40.4939 25.6242 39.8845 26.2667 39.1019 26.7723C38.319 27.2782 37.3137 27.5316 36.0852 27.5316C34.8166 27.5316 33.7763 27.3316 32.9642 26.9332C32.1513 26.5344 31.547 26.0037 31.1508 25.3422C30.7543 24.6807 30.5563 23.9509 30.5563 23.1528C30.5563 21.8096 31.0913 20.7202 32.1617 19.883C33.2315 19.0466 34.8368 18.628 36.977 18.628H40.7219V18.2774C40.7219 17.2849 40.4347 16.555 39.8599 16.088C39.285 15.6212 38.5716 15.3874 37.7201 15.3874C36.9469 15.3874 36.2734 15.5675 35.6985 15.9277C35.1237 16.2879 34.767 16.8178 34.6285 17.5187H30.913C31.012 16.4675 31.3737 15.5529 31.9982 14.7743C32.6221 13.9961 33.4294 13.3979 34.4204 12.979C35.4111 12.5607 36.5207 12.3517 37.7495 12.3517ZM55.6863 19.1677C56.548 19.4503 57.2367 19.8687 57.7521 20.423C58.2669 20.9777 58.5249 21.7708 58.5249 22.8022C58.5442 23.6978 58.3064 24.5052 57.8112 25.2251C57.3157 25.9456 56.6027 26.5099 55.6714 26.9183C54.7396 27.327 53.6398 27.5316 52.3718 27.5316C51.0642 27.5316 49.9148 27.322 48.9241 26.9037C47.9328 26.4856 47.1407 25.9068 46.5462 25.1667C45.9517 24.4276 45.595 23.5714 45.4758 22.5978H49.3105C49.4294 23.1627 49.751 23.6444 50.2765 24.0428C50.8012 24.4422 51.4801 24.6413 52.3123 24.6413C53.1449 24.6413 53.7542 24.4763 54.1406 24.145C54.5267 23.8143 54.7202 23.4348 54.7202 23.0068C54.7202 22.3841 54.4423 21.9609 53.888 21.7367C53.333 21.513 52.5599 21.2941 51.5692 21.0798C50.9349 20.9441 50.2911 20.7786 49.6372 20.5839C48.9835 20.3894 48.3837 20.1413 47.8389 19.8392C47.2937 19.5379 46.8529 19.1488 46.5162 18.6715C46.1791 18.1948 46.0112 17.6063 46.0112 16.9054C46.0112 15.6212 46.5313 14.5411 47.5717 13.6653C48.612 12.7895 50.0729 12.3517 51.9559 12.3517C53.6992 12.3517 55.0918 12.7507 56.1321 13.5482C57.1725 14.3467 57.7916 15.4457 57.9899 16.847H54.393C54.1748 15.7771 53.3527 15.2414 51.9259 15.2414C51.2128 15.2414 50.6626 15.378 50.2765 15.6501C49.8901 15.923 49.6966 16.2631 49.6966 16.6718C49.6966 17.1001 49.9838 17.441 50.5589 17.6935C51.1332 17.9469 51.8965 18.1802 52.8476 18.3944C53.8776 18.628 54.824 18.8857 55.6863 19.1677Z" fill="#BABABA"/>
<path d="M82.1235 8.76294H61.6381C61.154 8.76294 60.7616 9.14824 60.7616 9.62353V18.6597C60.7616 19.135 61.154 19.5203 61.6381 19.5203H82.1235C82.6076 19.5203 83 19.135 83 18.6597V9.62353C83 9.14824 82.6076 8.76294 82.1235 8.76294Z" fill="#686868"/>
<path d="M64.6355 17.1383C64.2095 17.1383 63.846 17.0307 63.5447 16.8155C63.2435 16.6004 63.0138 16.3076 62.8556 15.937C62.6974 15.5665 62.6183 15.1482 62.6183 14.682C62.6183 14.2099 62.6974 13.7885 62.8556 13.418C63.0138 13.0475 63.2451 12.7561 63.5493 12.544C63.8536 12.3318 64.2217 12.2257 64.6538 12.2257C65.0797 12.2257 65.4251 12.3258 65.6898 12.526C65.9545 12.7263 66.1507 12.9608 66.2785 13.2298H66.3515V10.3522H67.1365V17.0755H66.3515V16.1073H66.2785C66.1324 16.3942 65.9271 16.6377 65.6624 16.8379C65.3977 17.0382 65.0554 17.1383 64.6355 17.1383ZM64.8728 16.4749C65.3475 16.4749 65.7095 16.3031 65.959 15.9594C66.2085 15.6158 66.3333 15.19 66.3333 14.682C66.3333 14.174 66.2085 13.7497 65.959 13.409C65.7095 13.0684 65.3475 12.8981 64.8728 12.8981C64.3921 12.8981 64.03 13.0684 63.7866 13.409C63.5432 13.7497 63.4215 14.174 63.4215 14.682C63.4215 15.196 63.5447 15.6233 63.7912 15.9639C64.0376 16.3046 64.3982 16.4749 64.8728 16.4749ZM68.5057 12.3512H69.2815V13.2208H69.3545C69.3667 13.161 69.4276 13.052 69.5371 12.8936C69.6466 12.7352 69.814 12.5843 70.0391 12.4409C70.2643 12.2975 70.5442 12.2257 70.8789 12.2257C71.2318 12.2257 71.5254 12.3064 71.7597 12.4678C71.994 12.6291 72.1689 12.8025 72.2845 12.9877C72.4001 13.173 72.4579 13.2895 72.4579 13.3373H72.531C72.6162 13.1282 72.785 12.8906 73.0376 12.6247C73.2901 12.3587 73.678 12.2257 74.2013 12.2257C74.5908 12.2257 74.9163 12.3229 75.178 12.5171C75.4397 12.7113 75.6329 12.9608 75.7576 13.2656C75.8824 13.5704 75.9447 13.8961 75.9447 14.2427V17.0755H75.1689V14.3145C75.1689 13.8603 75.0487 13.5166 74.8083 13.2835C74.568 13.0505 74.2713 12.9339 73.9184 12.9339C73.5533 12.9339 73.2445 13.055 72.9919 13.297C72.7394 13.539 72.6131 13.8782 72.6131 14.3145V17.0755H71.8373V14.3145C71.8373 13.8603 71.7171 13.5166 71.4767 13.2835C71.2364 13.0505 70.9397 12.9339 70.5868 12.9339C70.2217 12.9339 69.9128 13.055 69.6603 13.297C69.4078 13.539 69.2815 13.8782 69.2815 14.3145V17.0755H68.5057V12.3512ZM78.893 17.1383C78.5035 17.1383 78.1658 17.0621 77.8798 16.9097C77.5938 16.7573 77.3763 16.5615 77.2272 16.3225C77.0781 16.0834 77.0035 15.8324 77.0035 15.5695V15.5247H77.7885V15.5605C77.7885 15.7099 77.8311 15.8578 77.9163 16.0043C78.0015 16.1507 78.1293 16.2702 78.2997 16.3628C78.4701 16.4555 78.677 16.5018 78.9204 16.5018C79.2124 16.5018 79.4543 16.4316 79.646 16.2911C79.8377 16.1507 79.9335 15.9579 79.9335 15.7129C79.9335 15.5097 79.859 15.3484 79.7099 15.2288C79.5608 15.1093 79.3737 15.0316 79.1486 14.9958L78.5187 14.9061C78.1232 14.8463 77.7916 14.7134 77.5238 14.5072C77.2561 14.301 77.1222 14.0007 77.1222 13.6063C77.1222 13.17 77.2819 12.8308 77.6014 12.5888C77.9209 12.3468 78.3301 12.2257 78.8291 12.2257C79.2003 12.2257 79.5182 12.293 79.7829 12.4274C80.0476 12.5619 80.25 12.7382 80.3899 12.9563C80.5299 13.1745 80.5999 13.412 80.5999 13.669V13.7049H79.8149V13.6869C79.8149 13.5674 79.7829 13.4419 79.719 13.3104C79.6551 13.179 79.5471 13.0654 79.395 12.9698C79.2429 12.8742 79.0481 12.8264 78.8108 12.8264C78.5187 12.8264 78.2845 12.8966 78.108 13.037C77.9315 13.1775 77.8433 13.3612 77.8433 13.5883C77.8433 13.7736 77.9133 13.926 78.0532 14.0455C78.1932 14.165 78.3697 14.2427 78.5826 14.2786L79.2672 14.3862C79.6688 14.4519 80.0066 14.5879 80.2804 14.7941C80.5542 15.0002 80.6911 15.3035 80.6911 15.7039C80.6911 15.9908 80.6136 16.2418 80.4584 16.457C80.3032 16.6721 80.0887 16.8394 79.8149 16.959C79.541 17.0785 79.2337 17.1383 78.893 17.1383Z" fill="#BABABA"/>
</svg>
