<svg width="300" height="72" viewBox="0 0 300 72" fill="none" xmlns="http://www.w3.org/2000/svg">
<g style="mix-blend-mode:luminosity">
<path fill-rule="evenodd" clip-rule="evenodd" d="M104.293 16.8939C103.213 16.3657 101.754 16.1095 99.834 16.1095C97.3224 16.1095 94.8993 16.8939 92.6309 18.4393C91.1505 19.4493 89.9054 20.653 88.9092 22.0339V16.8925H79.9184V55.6867H88.9092V34.3321C88.9092 32.4941 89.3685 30.8933 90.2748 29.5735C91.1976 28.2303 92.3706 27.1818 93.7626 26.4565C95.1553 25.7311 96.5865 25.3631 98.0156 25.3631C98.7308 25.3631 99.4218 25.44 100.069 25.5923C100.717 25.7468 101.267 25.9326 101.703 26.1447L102.497 26.5319C102.497 26.5319 104.827 21.5745 107.778 18.8436C107.778 18.8436 106.308 17.7709 104.809 17.1459L104.293 16.8939ZM34.0181 49.8887C33.832 49.5706 33.658 49.2581 33.4911 48.9513C32.9577 47.9647 32.5263 47.0408 32.1726 46.1944C31.5108 44.6099 31.1307 43.3151 30.9254 42.4673L30.7557 42.2637L30.2073 42.9172C29.1369 44.1906 27.7164 45.4406 25.9843 46.6322C24.3199 47.7768 22.3267 48.3576 20.0612 48.3576C18.0674 48.3576 16.1719 47.828 14.4262 46.7852C12.6699 45.7367 11.2358 44.2881 10.164 42.478C9.09578 40.6778 8.55454 38.5843 8.55454 36.2567C8.55454 33.9212 9.06227 31.8228 10.0649 30.0169C11.0647 28.2145 12.4474 26.7703 14.1745 25.7253C15.8967 24.6839 17.8527 24.1557 19.9878 24.1557C21.7926 24.1557 23.6938 24.7117 25.6377 25.8072C27.593 26.9112 29.1169 28.2394 30.1666 29.7563L30.7015 30.5287C30.7015 30.5287 30.8755 29.2581 31.58 27.2443C31.9665 26.1403 32.5163 24.812 33.2843 23.3428C33.5104 22.9101 33.75 22.4687 34.0167 22.0132C32.7088 20.5568 31.048 19.3061 29.0392 18.2882C26.1854 16.8439 22.8951 16.1122 19.2611 16.1122C15.6514 16.1122 12.3454 17.0091 9.43451 18.7779C6.52789 20.5432 4.20388 22.967 2.52665 25.9801C0.850144 28.9904 0.00012207 32.4477 0.00012207 36.2567C0.00012207 40.0165 0.849431 43.4617 2.52523 46.4934C4.20174 49.5321 6.52646 51.9687 9.43451 53.7347C12.3461 55.5043 15.6528 56.4005 19.2611 56.4005C21.5566 56.4005 23.7872 56.041 25.8901 55.3313C27.981 54.6252 29.8764 53.6849 31.5251 52.536C32.5662 51.8107 33.4612 51.0376 34.2349 50.2326C34.1636 50.1251 34.0923 50.014 34.0181 49.8887ZM54.8247 48.212C57.0025 48.212 58.9286 47.6873 60.5495 46.6517C62.1776 45.6124 63.4626 44.1738 64.3704 42.375C64.61 41.8988 64.8175 41.4034 64.995 40.8916V31.5589C64.8175 31.0557 64.6107 30.5674 64.3718 30.099C63.464 28.3244 62.1783 26.8965 60.5495 25.8551C58.9279 24.8201 57.0011 24.2955 54.8247 24.2955C52.7403 24.2955 50.8613 24.8095 49.2383 25.8238C47.611 26.8417 46.3274 28.2561 45.4224 30.0278C44.5082 31.8152 44.0447 33.8852 44.0447 36.1822C44.0447 38.4807 44.5089 40.5642 45.4239 42.375C46.3302 44.1731 47.6159 45.6117 49.244 46.6517C50.8648 47.6873 52.7425 48.212 54.8247 48.212ZM65.4581 20.6816V16.8926H74.4489V28.5387V45.7071V55.6868H65.4581V51.1148C64.3678 52.2067 63.0022 53.2502 61.3763 54.2311C58.9938 55.6697 56.2027 56.3986 53.0786 56.3986C49.7555 56.3986 46.6785 55.5238 43.9337 53.7976C41.4136 52.2138 39.3542 50.0364 37.7917 47.3293C37.7644 47.282 37.7369 47.2348 37.7094 47.1876C37.601 47.0014 37.4928 46.8156 37.391 46.6225C37.023 45.9242 36.7014 45.1974 36.4169 44.4486C35.467 41.9501 34.9821 39.1818 34.9821 36.1829C34.9821 32.8267 35.6061 29.7659 36.8305 27.0588C37.0294 26.6196 37.2398 26.1882 37.4701 25.769C37.5859 25.5571 37.7102 25.3533 37.8347 25.1491C37.8537 25.118 37.8726 25.0869 37.8916 25.0557C39.5096 22.375 41.676 20.2211 44.3545 18.6622C47.2639 16.9688 50.6148 16.1103 54.3151 16.1103C57.0934 16.1103 59.5736 16.7153 61.6865 17.9105C63.1355 18.7312 64.3984 19.6601 65.4581 20.6816Z" fill="url(#paint0_linear)"/>
<path fill-rule="evenodd" clip-rule="evenodd" d="M243.627 7.3657C243.627 10.329 241.22 12.7307 238.252 12.7307C235.283 12.7307 232.876 10.329 232.876 7.3657C232.876 4.40168 235.283 2 238.252 2C241.22 2 243.627 4.40168 243.627 7.3657ZM214.792 47.0472C213.173 48.1028 211.249 48.6388 209.073 48.6388C206.945 48.6388 205.045 48.1028 203.426 47.0472C201.794 45.9823 200.496 44.4953 199.565 42.6268C198.625 40.744 198.148 38.6 198.148 36.2539C198.148 33.8629 198.624 31.7068 199.563 29.8475C200.495 28.0003 201.794 26.5247 203.426 25.4605C205.045 24.4035 206.945 23.8682 209.073 23.8682C211.25 23.8682 213.173 24.4035 214.792 25.4605C216.42 26.5219 217.707 27.996 218.616 29.8404C218.826 30.2675 219.009 30.7109 219.171 31.1679V41.2935C219.009 41.7527 218.825 42.2004 218.614 42.6339C217.706 44.4996 216.42 45.9852 214.792 47.0472ZM219.706 3.01225V20.5672C218.56 19.5471 217.164 18.6275 215.535 17.8202C213.239 16.6856 210.648 16.1097 207.836 16.1097C204.323 16.1097 201.114 16.9839 198.299 18.7065C195.489 20.4248 193.225 22.8251 191.571 25.8396C189.921 28.8513 189.084 32.3549 189.084 36.2543C189.084 40.1059 189.921 43.5967 191.571 46.6297C193.224 49.6721 195.514 52.0859 198.376 53.8049C201.239 55.5261 204.495 56.3988 208.053 56.3988C210.93 56.3988 213.546 55.7318 215.829 54.4171C217.368 53.5301 218.666 52.5784 219.706 51.5712V55.687H228.624V45.7065V28.5381V3.01225H219.706ZM274.432 54.7487C273.155 55.3729 271.316 55.6861 269.639 55.6861C261.011 55.6861 254.94 50.2912 254.94 40.8326V25.1953H247.43V16.9076H254.94V9.05052L263.807 5.14476V16.9076H274.033V25.1953H263.807V40.4411C263.807 44.8971 267.003 47.5557 270.917 47.5557C271.877 47.5557 273.155 47.3201 273.953 47.0866L274.432 54.7487ZM175.6 16.8926V40.0979C175.6 42.8 174.753 44.8351 173.013 46.3193C171.239 47.8326 169.178 48.5686 166.711 48.5686C164.79 48.5686 163.207 48.1237 162.005 47.2468C160.791 46.362 159.896 45.1668 159.342 43.6912C158.769 42.1693 158.478 40.4809 158.478 38.6743V16.8926H149.56V40.6674C149.56 45.5284 150.873 49.4043 153.461 52.1854C156.061 54.9814 159.492 56.3986 163.657 56.3986C166.785 56.3986 169.518 55.6797 171.782 54.261C173.293 53.3143 174.57 52.2587 175.6 51.107V55.6868H184.518V16.8926H175.6ZM242.821 55.6868H233.903V16.8926H242.821V55.6868ZM285.98 5.14561L288.619 9.50622L291.256 5.14561H292.919V12.9564H291.079V8.26978L289.328 11.2637H287.865L286.246 8.53031V12.9564H284.45V5.14561H285.98ZM279.295 12.957V6.75137H277.144V5.14621H283.241V6.75137H280.98V12.957H279.295ZM124.65 48.2119C126.828 48.2119 128.754 47.6873 130.375 46.6516C132.003 45.6123 133.288 44.1738 134.195 42.375C134.436 41.8988 134.642 41.4033 134.82 40.8916V31.5589C134.643 31.0556 134.436 30.5673 134.197 30.0989C133.29 28.3244 132.003 26.8965 130.375 25.8551C128.753 24.8201 126.826 24.2955 124.65 24.2955C122.565 24.2955 120.686 24.8094 119.064 25.8237C117.436 26.8416 116.152 28.256 115.247 30.0278C114.333 31.8151 113.87 33.8851 113.87 36.1821C113.87 38.4806 114.334 40.5641 115.249 42.375C116.156 44.173 117.441 45.6116 119.069 46.6516C120.691 47.6873 122.568 48.2119 124.65 48.2119ZM135.283 20.6816V16.8926H144.274V28.5387V45.7071V55.6868H135.283V51.1148C134.193 52.2067 132.827 53.2502 131.201 54.2311C128.819 55.6697 126.028 56.3986 122.903 56.3986C119.58 56.3986 116.504 55.5238 113.759 53.7976C111.239 52.2138 109.18 50.0364 107.617 47.3293L107.54 47.1981C107.43 47.0084 107.32 46.8192 107.216 46.6225C106.848 45.9242 106.526 45.1974 106.242 44.4486C105.292 41.9501 104.807 39.1818 104.807 36.1829C104.807 32.8267 105.431 29.7659 106.656 27.0588C106.854 26.6196 107.065 26.1882 107.295 25.769C107.404 25.5694 107.521 25.3769 107.638 25.1846L107.638 25.1845L107.638 25.1844L107.716 25.0557C109.335 22.375 111.502 20.2211 114.179 18.6622C117.089 16.9687 120.44 16.1103 124.14 16.1103C126.918 16.1103 129.399 16.7153 131.511 17.9105C132.961 18.7312 134.223 19.6601 135.283 20.6816Z" fill="black"/>
</g>
<defs>
<linearGradient id="paint0_linear" x1="0.00012207" y1="16.1095" x2="108.304" y2="17.5771" gradientUnits="userSpaceOnUse">
<stop stop-color="#2EC4A8"/>
<stop offset="1" stop-color="#1BABB3"/>
</linearGradient>
</defs>
</svg>
