<?xml version="1.0" encoding="utf-8"?>
<!-- Generator: Adobe Illustrator 29.3.1, SVG Export Plug-In . SVG Version: 9.03 Build 55982)  -->
<svg version="1.0" id="Vrstva_1" xmlns="http://www.w3.org/2000/svg" xmlns:xlink="http://www.w3.org/1999/xlink" x="0px" y="0px"
	 viewBox="0 0 223.3 50" style="enable-background:new 0 0 223.3 50;" xml:space="preserve">
<path d="M5.8,23.2c0-6.5,4-12.2,10.3-16l-2.8-2.1L13.1,5C5.2,9.5,0,16.8,0,25c0,4.6,1.6,8.9,4.5,12.6l5.3-3.8
	C7.2,30.7,5.8,27.1,5.8,23.2z M66.3,20l0.6-2.6h-4.7l-3.9,14.3h5l1.2-4.5c0.5-1.8,1-3.2,1.5-4c0.5-0.8,1.2-1.5,2.1-2
	c0.9-0.5,1.8-0.8,2.6-0.8c0.5,0,1,0.1,1.5,0.2l1.9-3.2C73.5,17.1,72.7,17,72,17C69.9,17,68.1,18,66.3,20z M26.9,16.1
	c1.3-0.7,2.6-1,4.1-1c1.3,0,2.4,0.3,3.2,0.8c0.8,0.5,1.3,1.3,1.6,2.5l5-0.4c-0.3-2-1.3-3.5-3-4.7c-1.7-1.1-3.9-1.7-6.7-1.7
	c-2.5,0-4.7,0.5-6.8,1.5c-2.1,1-3.7,2.4-4.9,4.3c-1.2,1.9-1.8,3.9-1.8,6.2c0,2.8,0.9,4.9,2.6,6.3c1.8,1.5,4.2,2.2,7.3,2.2
	c2.8,0,5.2-0.6,7.3-1.8c2.1-1.2,3.6-2.9,4.7-5.1l-5.3-0.6c-0.6,1.3-1.4,2.4-2.6,3.1c-1.1,0.7-2.4,1-3.8,1c-1.5,0-2.7-0.4-3.7-1.3
	c-1-0.9-1.5-2.1-1.5-3.7c0-1.5,0.4-2.9,1.1-4.4C24.6,17.9,25.6,16.8,26.9,16.1z M42.7,21l4.9,0.3c0.2-0.5,0.5-0.9,1-1.2
	c0.5-0.3,1.2-0.4,2.1-0.4c0.8,0,1.4,0.1,1.9,0.4c0.4,0.3,0.6,0.6,0.6,1c0,0.3-0.1,0.8-0.3,1.3c-0.8,0.2-2.4,0.4-4.8,0.6
	c-2.8,0.2-4.8,0.7-5.9,1.5c-1.1,0.8-1.6,1.9-1.6,3.3c0,1.2,0.5,2.2,1.5,3c1,0.8,2.2,1.2,3.8,1.2c1,0,1.9-0.2,2.9-0.5
	c0.9-0.3,1.8-0.8,2.5-1.5c0.1,0.6,0.2,1.1,0.4,1.6h4.8c-0.3-0.7-0.4-1.4-0.4-2c0-0.7,0.2-1.9,0.7-3.6c0.6-2.1,1-3.4,1.1-3.8
	c0.1-0.5,0.2-0.9,0.2-1.4c0-1.1-0.6-2-1.7-2.7c-1.1-0.7-2.9-1.1-5.2-1.1c-2.3,0-4.1,0.4-5.5,1.1C44.2,18.8,43.3,19.8,42.7,21z
	 M52.1,25.5c-0.3,1-0.5,1.7-0.9,2.1c-0.3,0.5-0.8,0.8-1.5,1.1c-0.7,0.3-1.4,0.4-2.1,0.4c-0.7,0-1.2-0.2-1.6-0.5
	c-0.4-0.3-0.6-0.7-0.6-1.2c0-0.6,0.3-1,0.8-1.3c0.8-0.5,2.4-0.8,4.9-1c0.5-0.1,0.9-0.1,1.2-0.2L52.1,25.5z M33.7,8V5.2
	c-0.7,0-1.3-0.1-2-0.1c-11.9,0-21.5,7.1-22.1,16.1h3.3C13.9,13.8,22.2,8,32.2,8C32.7,8,33.2,8,33.7,8z M32.6,2.8
	c5.7,0,10.9,1.3,15.3,3.6l3-2.2C45.7,1.6,39.4,0,32.6,0C26.1,0,20,1.5,14.9,4l3,2.2C22.1,4.1,27.2,2.8,32.6,2.8z M32.6,43.5
	c-8.6,0-16.2-3.1-21.1-7.8l-5.3,3.9C12.1,45.9,21.7,50,32.6,50c11.1,0,20.8-4.2,26.7-10.7L54,35.4C49.1,40.3,41.4,43.5,32.6,43.5z
	 M163.8,20l0.6-2.6h-4.2l-3.5,14.3h4.5l1.1-4.5c0.4-1.8,0.9-3.2,1.4-4c0.5-0.8,1.1-1.5,1.9-2c0.8-0.5,1.6-0.8,2.4-0.8
	c0.5,0,0.9,0.1,1.3,0.2l1.8-3.2c-0.7-0.3-1.4-0.4-2.1-0.4C167.1,17,165.4,18,163.8,20z M204.7,18.6c-1.3-1.1-3.1-1.6-5.4-1.6
	c-3.5,0-6.3,1-8.2,3.1c-1.4,1.5-2.1,3.3-2.1,5.3c0,2,0.8,3.6,2.3,4.9c1.6,1.2,3.6,1.8,6.1,1.8c1.8,0,3.4-0.4,4.9-1.1
	c1.5-0.7,2.6-1.8,3.5-3.2l-4.5-0.6c-0.9,1.3-2.2,2-3.9,2c-1,0-1.9-0.3-2.6-0.9c-0.7-0.6-1.1-1.4-1.1-2.3c0-0.1,0-0.2,0-0.4h12.5
	c0.2-0.7,0.3-1.6,0.3-2.5C206.7,21.2,206.1,19.7,204.7,18.6z M202.1,23.3h-7.7c0.3-1.2,0.8-2.1,1.6-2.7c0.8-0.6,1.7-0.9,2.7-0.9
	c1,0,1.8,0.3,2.4,0.8c0.6,0.5,0.9,1.3,0.9,2.4C202.2,23,202.1,23.1,202.1,23.3z M185,17.3l-4.1,6.1c-0.1,0.2-0.5,0.8-1.2,1.8
	c-0.6,1-1,1.6-1.1,1.7c-0.1-0.5-0.3-1.7-0.6-3.3l-1.2-6.3h-4.4l3.3,14.3h3.9l10.2-14.3H185z M221,17c-2,0-3.9,1-5.6,3l0.6-2.6h-4.7
	l-3.9,14.3h5l1.2-4.5c0.5-1.8,1-3.2,1.5-4c0.5-0.8,1.2-1.5,2.1-2c0.9-0.5,1.8-0.8,2.6-0.8c0.5,0,1,0.1,1.5,0.2l1.9-3.2
	C222.5,17.1,221.7,17,221,17z M96.4,13.8c-2-1.5-4.5-2.3-7.7-2.3c-2.4,0-4.5,0.4-6.3,1.1c-1.9,0.7-3.4,1.8-4.6,3
	c-1.2,1.3-2.1,2.8-2.7,4.5c-0.5,1.3-0.7,2.5-0.7,3.7c0,1.3,0.3,2.5,1,3.7c0.7,1.2,1.8,2.3,3.4,3.1c1.6,0.8,3.6,1.3,6,1.3
	c2.7,0,5.2-0.5,7.4-1.6c2.2-1.1,3.9-2.6,5.2-4.5c1.3-2,1.9-4,1.9-6.1C99.3,17.4,98.3,15.4,96.4,13.8z M92.7,24.3
	c-0.9,1.5-1.9,2.6-3.3,3.3c-1.3,0.7-2.7,1.1-4.1,1.1c-1.8,0-3.2-0.5-4.2-1.4c-1.1-0.9-1.6-2.1-1.6-3.4c0-2.2,0.8-4.3,2.4-6.1
	c1.6-1.9,3.7-2.8,6.3-2.8c1.7,0,3.1,0.4,4.2,1.3c1.1,0.9,1.6,2.1,1.6,3.7C94,21.3,93.6,22.8,92.7,24.3z M154.5,18.6
	c-1.3-1.1-3.1-1.6-5.4-1.6c-3.5,0-6.3,1-8.2,3.1c-1.4,1.5-2.1,3.3-2.1,5.3c0,2,0.8,3.6,2.3,4.9c1.6,1.2,3.6,1.8,6.1,1.8
	c1.8,0,3.4-0.4,4.9-1.1c1.5-0.7,2.6-1.8,3.5-3.2l-4.5-0.6c-0.9,1.3-2.2,2-3.9,2c-1,0-1.9-0.3-2.6-0.9c-0.7-0.6-1.1-1.4-1.1-2.3
	c0-0.1,0-0.2,0-0.4h12.5c0.2-0.7,0.3-1.6,0.3-2.5C156.5,21.2,155.8,19.7,154.5,18.6z M151.9,23.3h-7.7c0.3-1.2,0.8-2.1,1.6-2.7
	c0.8-0.6,1.7-0.9,2.7-0.9c1,0,1.8,0.3,2.4,0.8c0.6,0.5,0.9,1.3,0.9,2.4C151.9,23,151.9,23.1,151.9,23.3z M112.2,17
	c-0.9,0-1.8,0.1-2.6,0.3c-0.8,0.2-1.7,0.6-2.6,1.2l1.8-6.5h-5l-5.3,19.7h4.5l0.7-2.3c1.2,1.8,3.2,2.6,5.8,2.6c1.1,0,2.2-0.2,3.2-0.6
	c1-0.4,2-0.9,2.9-1.7c0.9-0.8,1.7-1.8,2.2-3c0.6-1.2,0.8-2.5,0.8-3.8c0-1.9-0.6-3.4-1.8-4.4C115.7,17.5,114.1,17,112.2,17z
	 M113,26.2c-0.5,1-1.1,1.8-1.9,2.3c-0.8,0.5-1.6,0.7-2.4,0.7c-1,0-1.8-0.3-2.5-0.9c-0.7-0.6-1.1-1.4-1.1-2.4c0-1.9,0.6-3.5,1.9-4.8
	c0.9-0.9,2-1.4,3.3-1.4c1,0,1.8,0.3,2.5,0.9c0.7,0.6,1,1.4,1,2.4C113.8,24.1,113.5,25.1,113,26.2z M127.4,20
	c0.5-0.3,1.2-0.4,2.2-0.4c1,0,1.9,0.2,2.7,0.5c0.5,0.3,0.9,0.7,1.2,1.2l4.6-0.6c-0.3-1.1-1.1-2-2.3-2.7c-1.2-0.7-3-1-5.4-1
	c-3,0-5.3,0.6-6.8,1.7c-1.1,0.8-1.6,1.8-1.6,2.9c0,1.1,0.6,2.1,1.7,2.8c0.7,0.5,2.6,1.1,5.6,1.8c1.1,0.3,1.8,0.5,2.1,0.7
	c0.2,0.2,0.4,0.4,0.4,0.7c0,0.4-0.2,0.7-0.7,1c-0.7,0.4-1.6,0.6-2.7,0.6c-1.1,0-2-0.2-2.6-0.5c-0.6-0.3-1.2-0.9-1.6-1.7l-4.8,0.6
	c0.5,1.4,1.5,2.5,3,3.2c1.5,0.8,3.5,1.1,6.2,1.1c2.7,0,4.8-0.5,6.2-1.5c1.5-1,2.2-2.2,2.2-3.6c0-1.1-0.6-2-1.7-2.7
	c-0.8-0.5-2.5-1.1-4.9-1.6c-1.6-0.4-2.5-0.6-2.8-0.8c-0.5-0.2-0.7-0.5-0.7-0.9C126.7,20.6,126.9,20.3,127.4,20z"/>
</svg>
