<?xml version="1.0" encoding="utf-8"?>
<!-- Generator: Adobe Illustrator 27.5.0, SVG Export Plug-In . SVG Version: 6.00 Build 0)  -->
<svg version="1.1" id="Layer_1" xmlns="http://www.w3.org/2000/svg" xmlns:xlink="http://www.w3.org/1999/xlink" x="0px" y="0px"
	 viewBox="0 0 300 72" style="enable-background:new 0 0 300 72;" xml:space="preserve">
<style type="text/css">
	.st0{fill:#333333;}
</style>
<path class="st0" d="M0,27.2v17.1c0,6.8,5.5,12.3,12.3,12.3h21.9v-3.7v-3.7H12.8c-2.4,0-4.3-2.2-4.3-4.8V27.2c0-2.7,1.9-4.8,4.3-4.8
	h21.4v-3.7v-3.7H12.3C5.5,14.9,0,20.4,0,27.2z M125.4,38.9c-1.6-0.6-3.5-1.3-5.9-1.9c-2.4-0.6-4.1-1.2-5.2-1.7
	c-1.1-0.6-1.7-1.5-1.7-2.6c0-1,0.4-1.8,1.2-2.3c0.8-0.6,2-0.8,3.5-0.8c1.6,0,2.9,0.4,3.9,1.2c1,0.8,1.6,1.8,1.7,3.1h8
	c-0.2-3.4-1.5-6-3.9-8c-2.4-2-5.5-3-9.5-3c-2.7,0-5,0.4-7,1.3c-2,0.9-3.5,2.1-4.6,3.6c-1,1.5-1.6,3.2-1.6,5c0,2.2,0.6,4,1.7,5.3
	c1.2,1.3,2.5,2.3,4.1,2.9c1.6,0.6,3.6,1.3,6.1,1.9c2.4,0.6,4.1,1.2,5.2,1.8c1.1,0.5,1.7,1.3,1.7,2.4c0,1-0.5,1.8-1.4,2.5
	c-0.9,0.6-2.1,1-3.7,1c-1.6,0-3-0.4-4.1-1.3c-1.1-0.8-1.7-1.9-1.9-3.2h-8.5c0.1,2,0.8,3.9,2,5.6c1.3,1.7,3,3,5.2,4
	c2.2,1,4.6,1.4,7.3,1.4c2.6,0,4.9-0.4,6.9-1.3c2-0.9,3.5-2.1,4.6-3.6c1.1-1.5,1.6-3.2,1.6-5.2c0-2.2-0.6-4-1.8-5.3
	C128.3,40.5,126.9,39.5,125.4,38.9z M89.6,28.5v-5.2h-8.4v33.2h8.4V40.1c0-3.1,0.7-5.2,2-6.5c1.4-1.2,3.4-1.9,6-1.9h2.2v-8.8
	c-2.2,0-4.2,0.5-6,1.5C92,25.4,90.6,26.8,89.6,28.5z M64.5,28.1c-1.1-1.5-2.6-2.8-4.5-3.8c-1.8-1-4-1.5-6.5-1.5
	c-2.8,0-5.4,0.7-7.7,2.1c-2.3,1.4-4.1,3.4-5.5,6c-1.3,2.6-2,5.6-2,8.9c0,3.4,0.7,6.4,2,9.1c1.4,2.6,3.2,4.6,5.5,6.1
	c2.3,1.4,4.9,2.2,7.7,2.2c2.5,0,4.7-0.5,6.5-1.5c1.9-1,3.4-2.3,4.5-3.9v4.9H73V23.4h-8.5V28.1z M63.3,45.3c-0.8,1.4-1.9,2.6-3.2,3.4
	c-1.4,0.8-2.8,1.1-4.4,1.1c-1.5,0-3-0.4-4.3-1.2c-1.3-0.8-2.4-1.9-3.2-3.4c-0.8-1.5-1.2-3.3-1.2-5.3s0.4-3.7,1.2-5.2
	c0.8-1.5,1.9-2.6,3.2-3.4c1.3-0.8,2.8-1.1,4.3-1.1s3,0.4,4.4,1.2c1.4,0.8,2.4,1.9,3.2,3.4c0.8,1.4,1.2,3.2,1.2,5.2
	C64.5,42,64.1,43.8,63.3,45.3z M159,14.9H137v3.7v3.7h21.4c2.4,0,4.3,2.2,4.3,4.8v17.1c0,2.7-1.9,4.8-4.3,4.8H137v3.7v3.7H159
	c6.8,0,12.3-5.5,12.3-12.3V27.2C171.3,20.4,165.8,14.9,159,14.9z M202.6,28.1c-1.1-1.5-2.6-2.8-4.5-3.8c-1.8-1-4-1.5-6.5-1.5
	c-2.8,0-5.4,0.7-7.7,2.1c-2.3,1.4-4.1,3.4-5.5,6c-1.3,2.6-2,5.6-2,8.9c0,3.4,0.7,6.4,2,9.1c1.4,2.6,3.2,4.6,5.5,6.1
	c2.3,1.4,4.9,2.2,7.7,2.2c2.5,0,4.7-0.5,6.5-1.5c1.9-1,3.4-2.3,4.5-3.9v4.9h8.5V23.4h-8.5V28.1z M201.4,45.3
	c-0.8,1.4-1.9,2.6-3.2,3.4c-1.4,0.8-2.8,1.1-4.4,1.1c-1.5,0-3-0.4-4.3-1.2c-1.3-0.8-2.4-1.9-3.2-3.4c-0.8-1.5-1.2-3.3-1.2-5.3
	s0.4-3.7,1.2-5.2c0.8-1.5,1.9-2.6,3.2-3.4c1.3-0.8,2.8-1.1,4.3-1.1s3,0.4,4.4,1.2c1.4,0.8,2.4,1.9,3.2,3.4c0.8,1.4,1.2,3.2,1.2,5.2
	C202.6,42,202.2,43.8,201.4,45.3z M229.1,15.2h-8.5v8.2h-4v6.9h4v16c0,6.9,3.5,10.3,10.6,10.3h5.3v-7.1h-3.9c-1.3,0-2.2-0.2-2.8-0.7
	c-0.5-0.5-0.8-1.3-0.8-2.5V30.3h7.4v-6.9h-7.4V15.2z M266.5,23.4v4.7c-1.1-1.5-2.6-2.8-4.5-3.8c-1.8-1-4-1.5-6.5-1.5
	c-2.8,0-5.4,0.7-7.7,2.1c-2.3,1.4-4.1,3.4-5.5,6c-1.3,2.6-2,5.6-2,8.9c0,3.4,0.7,6.4,2,9.1c1.4,2.6,3.2,4.6,5.5,6.1
	c2.3,1.4,4.9,2.2,7.7,2.2c2.5,0,4.7-0.5,6.5-1.5c1.9-1,3.4-2.3,4.5-3.9v4.9h8.5V23.4H266.5z M265.3,45.3c-0.8,1.4-1.9,2.6-3.2,3.4
	c-1.4,0.8-2.8,1.1-4.4,1.1c-1.5,0-3-0.4-4.3-1.2c-1.3-0.8-2.4-1.9-3.2-3.4c-0.8-1.5-1.2-3.3-1.2-5.3s0.4-3.7,1.2-5.2
	c0.8-1.5,1.9-2.6,3.2-3.4c1.3-0.8,2.8-1.1,4.3-1.1c1.6,0,3,0.4,4.4,1.2c1.4,0.8,2.4,1.9,3.2,3.4c0.8,1.4,1.2,3.2,1.2,5.2
	C266.5,42,266.1,43.8,265.3,45.3z"/>
</svg>
