<svg width="300" height="72" viewBox="0 0 300 72" fill="none" xmlns="http://www.w3.org/2000/svg">
<path d="M292.115 37.6514C296.487 37.6514 300.001 41.1104 300.001 45.4146C300.001 49.7188 296.487 53.1014 292.115 53.1014C287.743 53.1014 284.307 49.7188 284.307 45.4146C284.307 41.1104 287.821 37.6514 292.115 37.6514Z" fill="black"/>
<path d="M242.936 35.3816C242.936 23.622 252.929 15.4744 263.157 15.4744C273.385 15.4744 281.271 22.469 281.271 33.154C281.271 44.9136 271.278 53.063 261.05 53.063C250.821 53.063 242.936 46.0685 242.936 35.3835V35.3816ZM269.091 33.3834C269.091 29.3871 266.593 26.2359 262.767 26.2359C258.707 26.2359 255.116 29.8479 255.116 35.1521C255.116 39.1485 257.614 42.3016 261.44 42.3016C265.5 42.3016 269.091 38.6896 269.091 33.3853V33.3834Z" fill="black"/>
<path fill-rule="evenodd" clip-rule="evenodd" d="M223.363 46.1562C221.565 48.7398 218.053 50.7322 213.375 50.7322C204.63 50.7322 197.994 43.5618 197.994 34.6914C197.994 22.9376 206.816 15.4707 216.42 15.4707C222.519 15.4707 226.407 18.734 227.673 21.1067L228.498 16.3923H240.334L233.69 52.4704C232.04 60.7881 229.224 65.4709 218.544 65.4709H200.313L202.109 55.3232H216.607C219.6 55.3232 221.935 53.9446 222.574 50.5028L223.154 47.3688L223.363 46.1562ZM210.407 33.655C210.407 29.1462 213.921 25.5973 218.293 25.5973C222.354 25.5973 225.165 28.9225 225.165 32.2496C225.165 36.7584 221.729 40.7509 217.357 40.7509C212.984 40.7509 210.407 37.4257 210.407 33.655Z" fill="black"/>
<path fill-rule="evenodd" clip-rule="evenodd" d="M152.812 36.2459C152.812 46.0742 159.208 53.0631 167.632 53.0631C172.859 53.0631 176.213 50.1452 177.46 47.7646L176.602 52.1414H188.926L195.168 16.4344H182.943L182.007 21.7883C181.149 19.7156 178.474 15.5127 171.299 15.5127C161.316 15.5127 152.812 23.6526 152.812 36.2459ZM171.612 42.3131C167.789 42.3131 165.06 39.1638 165.06 35.1713C165.06 29.8728 168.883 26.2646 172.938 26.2646C176.761 26.2646 179.412 29.4139 179.412 33.4064C179.412 38.7049 175.667 42.315 171.612 42.315V42.3131Z" fill="black"/>
<path fill-rule="evenodd" clip-rule="evenodd" d="M128.421 16.4344H115.629L118.828 52.1415H134.584L154.476 16.4344H140.122L129.67 38.6266L128.421 16.4344Z" fill="black"/>
<path d="M110.335 29.236H106.666C101.355 29.236 99.5608 31.1577 98.8576 35.6932L95.9694 52.1433H83.7114L89.956 16.3999H101.746L100.73 22.0885C102.917 18.3216 105.285 16.3999 109.267 16.3999H112.522L110.335 29.236Z" fill="black"/>
<path fill-rule="evenodd" clip-rule="evenodd" d="M39.5896 36.2461C39.5896 46.0744 45.9857 53.0633 54.4095 53.0633C59.6363 53.0633 62.9907 50.1454 64.2376 47.7648L63.3791 52.1416H75.7032L81.9438 16.4345H69.7189L68.7827 21.7885C67.9261 19.7138 65.2515 15.5129 58.0766 15.5129C48.0931 15.5129 39.5896 23.6528 39.5896 36.2461ZM58.3893 42.3133C54.5668 42.3133 51.8379 39.164 51.8379 35.1715C51.8379 29.873 55.6604 26.2648 59.7159 26.2648C63.5384 26.2648 66.1897 29.4141 66.1897 33.4066C66.1897 38.7051 62.4449 42.3152 58.3893 42.3152V42.3133Z" fill="black"/>
<path fill-rule="evenodd" clip-rule="evenodd" d="M25.5912 38.464C24.2763 41.0014 21.7824 42.2692 19.034 42.2692C15.0736 42.2692 12.5427 39.1199 12.6146 35.1274C12.7117 29.6759 16.3283 26.2207 20.5315 26.2207C23.3401 26.2207 25.4669 27.7045 26.4031 30.1061L37.9386 25.8096C35.2659 19.3542 28.8641 15.4707 20.8034 15.4707C9.40784 15.4707 0.210951 23.6106 0.00312264 35.3587C-0.185282 46.0322 8.1764 53.0211 18.4396 53.0211C25.8515 53.0211 33.0264 49.9196 36.711 43.1086L25.5912 38.4659V38.464Z" fill="black"/>
</svg>
