<svg width="300" height="72" viewBox="0 0 300 72" fill="none" xmlns="http://www.w3.org/2000/svg">
<path d="M152.98 13.729L144.479 10.9002V2.41515L152.98 5.24873V13.7274V13.729Z" fill="#A4A4A4"/>
<path d="M65.101 63.2223C68.5418 63.2321 71.9393 62.4555 75.034 60.9516C78.1287 59.4478 80.8388 57.2565 82.9573 54.5452L74.0299 51.5763C72.2342 53.0293 70.1109 54.0221 67.8444 54.4683C65.5779 54.9145 63.2367 54.8007 61.0242 54.1368C58.8117 53.4728 56.7947 52.2788 55.1483 50.6585C53.5019 49.0381 52.276 47.0403 51.577 44.8386H87.3808C87.6446 43.4594 87.779 42.0586 87.7822 40.6544C87.8137 28.1599 77.7073 18.0046 65.2128 17.9732C52.7183 17.9417 42.5646 28.0465 42.5331 40.5426C42.5016 53.0356 52.6049 63.1908 65.101 63.2223ZM65.101 26.455C68.1178 26.4416 71.0595 27.3955 73.4944 29.1768C75.9293 30.958 77.7291 33.4728 78.6298 36.3521H51.577C52.4776 33.4737 54.2768 30.9596 56.7107 29.1785C59.1445 27.3974 62.085 26.4429 65.101 26.455ZM22.5013 54.816C20.2221 54.8134 17.977 54.2631 15.955 53.2114C13.933 52.1597 12.1934 50.6374 10.8827 48.7728C9.57204 46.9082 8.72872 44.7559 8.42379 42.4973C8.11886 40.2386 8.36125 37.9398 9.13054 35.7944C9.89984 33.649 11.1735 31.7199 12.8442 30.1696C14.5149 28.6194 16.5338 27.4934 18.7307 26.8866C20.9275 26.2797 23.2381 26.2097 25.4677 26.6825C27.6972 27.1554 29.7805 28.1571 31.542 29.6034L40.4363 26.6455C32.7305 16.8098 18.5106 15.0813 8.67339 22.7855C-1.16228 30.4913 -2.89077 44.7111 4.815 54.5484C12.5192 64.3841 26.7406 66.1126 36.5763 58.4068C38.014 57.2818 39.3101 55.9867 40.4363 54.55L31.542 51.5904C28.9934 53.6813 25.7978 54.8221 22.5013 54.8176V54.816ZM181.331 63.2223C186.484 63.2409 191.486 61.4879 195.499 58.2572V63.2286L204 60.395V20.8036L195.499 17.97V22.9351C191.486 19.7044 186.484 17.9514 181.331 17.97C168.835 17.97 158.705 28.1001 158.705 40.5961C158.705 53.0922 168.835 63.2223 181.331 63.2223ZM181.331 26.455C185.084 26.455 188.683 27.9438 191.34 30.5947C193.996 33.2455 195.492 36.8419 195.499 40.5946C195.503 44.345 194.017 47.9434 191.367 50.598C188.718 53.2527 185.123 54.7461 181.372 54.7499C177.622 54.7536 174.023 53.2674 171.369 50.6181C168.714 47.9687 167.221 44.3734 167.217 40.6229C167.213 38.7659 167.576 36.9263 168.283 35.2093C168.991 33.4923 170.029 31.9314 171.34 30.6158C172.651 29.3002 174.207 28.2556 175.922 27.5417C177.636 26.8278 179.474 26.4585 181.331 26.455ZM152.98 60.395V20.7973L144.479 17.9747V63.2192L152.98 60.3919V60.395ZM93.451 63.2207L101.961 60.395V58.2541C105.975 61.4848 110.977 63.2382 116.129 63.2207C119.106 63.2253 122.055 62.6422 124.807 61.505C127.559 60.3677 130.059 58.6986 132.164 56.5933C141 47.7588 141 33.4319 132.164 24.5959C128.212 20.656 122.947 18.3089 117.375 18.0023C111.803 17.6957 106.313 19.451 101.952 22.9335V3.43531L93.451 1V63.2223V63.2207ZM116.129 26.4534C119.882 26.4534 123.482 27.9424 126.138 30.5936C128.794 33.2449 130.29 36.8417 130.297 40.5946C130.297 43.3907 129.469 46.1242 127.916 48.4497C126.363 50.7751 124.156 52.588 121.573 53.6594C118.991 54.7308 116.148 55.0126 113.405 54.4691C110.663 53.9256 108.142 52.5813 106.163 50.606C104.184 48.6307 102.835 46.113 102.287 43.3712C101.738 40.6294 102.014 37.7865 103.081 35.2018C104.147 32.617 105.956 30.4064 108.279 28.8493C110.601 27.2921 113.333 26.4584 116.129 26.4534Z" fill="black"/>
</svg>
