<svg width="300" height="72" viewBox="0 0 300 72" fill="none" xmlns="http://www.w3.org/2000/svg">
<path d="M4.40526 24.312V50.957H14.7084V24.3115H21.2832V16.3962H14.6396V14.6293C14.6396 11.2368 16.0629 8.48049 19.4521 8.48049C20.8074 8.48049 21.892 8.69327 22.7728 8.97564L23.1797 0.706598C21.7576 0.353299 19.9958 0 17.7588 0C14.7084 0 11.184 0.918489 8.53971 3.46295C5.62498 6.29022 4.40526 10.8844 4.40526 15.054V16.3967H0V24.312H4.40526Z" fill="black"/>
<path d="M106.439 50.1604C105.4 50.1604 104.394 49.9693 103.421 49.5851C102.448 49.201 101.582 48.6146 100.825 47.8243C100.068 47.0349 99.4623 46.0424 99.0077 44.846C98.5531 43.65 98.3267 42.2394 98.3267 40.6143V20.9816H93.5822V13.4517H98.3267V4.17387L107.153 1.0585V13.4517H114.693V20.9816H107.153V38.5113C107.153 39.4135 107.392 40.0905 107.868 40.5416C108.345 40.9927 108.973 41.2183 109.754 41.2183C111.53 41.2183 113.371 40.0892 115.278 37.8298L113.458 47.7213C112.808 48.4442 111.866 49.0318 110.631 49.4829C109.396 49.9349 107.999 50.1604 106.439 50.1604Z" fill="black"/>
<path fill-rule="evenodd" clip-rule="evenodd" d="M129.919 1.47562V19.3229C132.066 16.5569 135.287 14.4494 139.646 14.4494C148.93 14.4494 152.404 23.7352 152.404 32.758C152.404 41.7808 148.93 51.0005 139.646 51.0005C135.098 51.0005 131.751 48.7613 129.603 45.7318V50.1441H123.918V3.64872L129.919 1.47562ZM129.919 25.8431V39.5416C131.624 42.9662 134.214 45.2054 138.193 45.2054C144.572 45.2054 146.656 39.2782 146.656 32.6924C146.656 26.1065 144.572 20.1793 138.256 20.1793C134.214 20.1793 131.624 22.6159 129.919 25.8431Z" fill="black"/>
<path d="M177.151 71.675V53.2493L174.879 54.047V71.675H177.151Z" fill="black"/>
<path d="M104.984 53.4488C105.367 53.4488 105.681 53.5779 105.929 53.8351C106.176 54.0928 106.3 54.4377 106.3 54.8699C106.3 55.3021 106.176 55.6263 105.929 55.8924C105.682 56.1584 105.367 56.2915 104.984 56.2915C104.602 56.2915 104.291 56.1584 104.052 55.8924C103.813 55.6267 103.693 55.2858 103.693 54.8699C103.693 54.454 103.813 54.0933 104.052 53.8351C104.291 53.5774 104.602 53.4488 104.984 53.4488Z" fill="black"/>
<path d="M106.132 58.4853V71.6749H103.861V58.4853H106.132Z" fill="black"/>
<path d="M32.6955 54.92V58.4843H31.2607V60.4292H32.6955V68.4331C32.6955 69.5639 32.9743 70.407 33.5324 70.9639C34.0901 71.5211 34.7598 71.7991 35.5409 71.7991C36.0031 71.7991 36.4535 71.7158 36.892 71.5498C37.3302 71.3837 37.661 71.1595 37.8845 70.8766L38.2672 68.7075C37.9804 68.9903 37.6893 69.1938 37.3944 69.3185C37.0991 69.4432 36.7843 69.5057 36.4497 69.5057C35.4611 69.5057 34.9672 68.974 34.9672 67.9102V60.4301H38.1954V58.4852H34.9672V54.1469L32.6955 54.92Z" fill="black"/>
<path fill-rule="evenodd" clip-rule="evenodd" d="M2.66279 59.5574C3.12499 59.1923 3.73083 58.868 4.48032 58.5852C5.22939 58.3028 6.13013 58.1614 7.18254 58.1614C7.89993 58.1614 8.55774 58.2487 9.15555 58.4231C9.75337 58.5975 10.2713 58.8843 10.7099 59.2834C11.148 59.6826 11.4873 60.2103 11.726 60.8667C11.9651 61.5235 12.0847 62.3341 12.0847 63.2979V71.6758H9.98025V70.7282C8.89615 71.4762 7.65235 71.8502 6.2497 71.8502C5.61174 71.8502 5.01815 71.767 4.46807 71.6009C3.918 71.4348 3.43974 71.1771 3.03331 70.8278C2.62688 70.4784 2.3041 70.0384 2.06497 69.5062C1.82584 68.9745 1.70628 68.3428 1.70628 67.6111C1.70628 66.8794 1.82584 66.2609 2.06497 65.7036C2.3041 65.1468 2.63871 64.6856 3.06922 64.3199C3.49973 63.9543 4.00967 63.6759 4.59947 63.4847C5.18926 63.294 5.83481 63.1979 6.53656 63.1979C7.09425 63.1979 7.66038 63.2565 8.23453 63.3724C8.80827 63.4887 9.35032 63.6636 9.86068 63.8962V63.4473C9.86068 62.8658 9.79266 62.3794 9.65747 61.9887C9.52185 61.5984 9.32624 61.2865 9.07148 61.0535C8.8163 60.8209 8.50535 60.6544 8.13905 60.5548C7.77234 60.4552 7.36548 60.405 6.91934 60.405C6.2497 60.405 5.64005 60.4966 5.08997 60.6795C4.53989 60.8627 4.03376 61.12 3.57156 61.4526L2.66279 59.5574ZM6.75245 69.8798C7.26227 69.8797 7.79234 69.8137 8.34227 69.6802C8.89235 69.5472 9.39806 69.356 9.86068 69.1067V65.4415C9.43017 65.2754 8.97177 65.1508 8.48591 65.0675C7.99963 64.9847 7.53321 64.9428 7.08706 64.9428C6.1783 64.9428 5.41317 65.1468 4.79127 65.5538C4.16937 65.9613 3.85885 66.6054 3.85885 67.4864C3.85885 67.919 3.93447 68.2842 4.08614 68.5833C4.23739 68.8824 4.44484 69.1278 4.70804 69.319C4.97125 69.5102 5.27798 69.6516 5.62864 69.7428C5.9793 69.8344 6.35405 69.8798 6.75245 69.8798Z" fill="black"/>
<path d="M19.2569 58.4857V66.7886C19.2569 67.8358 19.5159 68.5926 20.0343 69.0578C20.5522 69.5234 21.2181 69.756 22.0309 69.756C22.7006 69.756 23.3022 69.5899 23.8362 69.2573C24.3702 68.9252 24.8202 68.3098 25.1873 67.4124V58.4861H27.459V71.6758H25.3069V70.03C24.3343 71.3432 23.0031 71.9996 21.3135 71.9996C20.6756 71.9996 20.09 71.9035 19.556 71.7128C19.0216 71.522 18.5636 71.2309 18.1808 70.8401C17.798 70.4498 17.5031 69.9511 17.2961 69.3441C17.0887 68.7375 16.9852 68.0186 16.9852 67.1873V58.4857H19.2569Z" fill="black"/>
<path fill-rule="evenodd" clip-rule="evenodd" d="M46.8762 58.1614C47.6413 58.1614 48.3507 58.3112 49.0043 58.6103C49.6578 58.9094 50.224 59.35 50.7022 59.9319C51.1805 60.5138 51.551 61.2328 51.8142 62.0887C52.0774 62.9451 52.2088 63.938 52.2088 65.0684C52.2088 66.1988 52.0774 67.1961 51.8142 68.0604C51.551 68.9247 51.1843 69.6481 50.7141 70.2295C50.2438 70.8115 49.6815 71.252 49.0283 71.5511C48.3743 71.8502 47.657 72 46.8762 72C46.0954 72 45.3536 71.8502 44.7 71.5511C44.046 71.252 43.4841 70.8115 43.0143 70.2295C42.544 69.6481 42.1773 68.9247 41.9141 68.0604C41.6509 67.1961 41.5195 66.1992 41.5195 65.0684C41.5195 63.9376 41.6509 62.9451 41.9141 62.0887C42.1773 61.2328 42.5478 60.5138 43.0261 59.9319C43.5043 59.3504 44.07 58.9094 44.7241 58.6103C45.3776 58.3112 46.095 58.1614 46.8762 58.1614ZM46.8762 60.3557C45.9197 60.3557 45.1503 60.7548 44.5686 61.5526C43.9864 62.3504 43.6957 63.531 43.6957 65.093C43.6957 66.6551 43.9864 67.8318 44.5686 68.6212C45.1503 69.4111 45.9197 69.8053 46.8762 69.8053C47.8327 69.8053 48.5818 69.4106 49.172 68.6212C49.7618 67.8318 50.0567 66.6556 50.0567 65.093C50.0567 63.5305 49.7614 62.3504 49.172 61.5526C48.5822 60.7548 47.8167 60.3557 46.8762 60.3557Z" fill="black"/>
<path d="M59.0012 60.0566V58.4865H56.849V71.6762H59.1207V62.6504C59.4393 61.8028 59.8575 61.2169 60.3759 60.8927C60.8939 60.5684 61.4638 60.4063 62.0857 60.4063C62.8665 60.4063 63.4926 60.6473 63.9628 61.1292C64.4331 61.6116 64.6684 62.4257 64.6684 63.5728V71.6762H66.9401V62.675C67.2747 61.827 67.6892 61.2372 68.1835 60.9046C68.6778 60.5724 69.2435 60.4059 69.8815 60.4059C70.6787 60.4059 71.3124 60.6469 71.7826 61.1288C72.2529 61.6112 72.4882 62.4252 72.4882 63.5724V71.6758H74.7599V63.323C74.7599 62.4089 74.6598 61.6235 74.4608 60.9667C74.2614 60.3099 73.9787 59.7742 73.612 59.3583C73.2453 58.9429 72.8067 58.6394 72.2968 58.4482C71.7864 58.2575 71.2207 58.1614 70.5988 58.1614C68.7817 58.1614 67.4103 58.9597 66.4859 60.5552C66.167 59.7077 65.6849 59.0967 65.0393 58.7227C64.3938 58.3487 63.6405 58.1614 62.7795 58.1614C61.1533 58.1614 59.8939 58.7936 59.0012 60.0566Z" fill="black"/>
<path fill-rule="evenodd" clip-rule="evenodd" d="M84.6583 58.1614C85.4234 58.1614 86.1328 58.3112 86.7863 58.6103C87.4399 58.9094 88.0061 59.3499 88.4843 59.9319C88.9626 60.5138 89.3331 61.2327 89.5963 62.0886C89.8595 62.945 89.9909 63.938 89.9909 65.0683C89.9909 66.1987 89.8595 67.1961 89.5963 68.0604C89.3331 68.9247 88.9664 69.648 88.4961 70.2295C88.0259 70.8114 87.4636 71.252 86.8104 71.5511C86.1564 71.8502 85.439 72 84.6583 72C83.8775 72 83.1356 71.8502 82.482 71.5511C81.828 71.252 81.2661 70.8114 80.7963 70.2295C80.3261 69.648 79.9594 68.9247 79.6962 68.0604C79.433 67.1961 79.3016 66.1992 79.3016 65.0683C79.3016 63.9375 79.433 62.945 79.6962 62.0886C79.9594 61.2327 80.3299 60.5138 80.8082 59.9319C81.2864 59.3504 81.8521 58.9094 82.5061 58.6103C83.1597 58.3112 83.8771 58.1614 84.6583 58.1614ZM84.6583 60.3556C83.7018 60.3556 82.9324 60.7547 82.3507 61.5525C81.7685 62.3503 81.4778 63.5309 81.4778 65.093C81.4778 66.6551 81.7685 67.8317 82.3507 68.6212C82.9324 69.411 83.7018 69.8053 84.6583 69.8053C85.6148 69.8053 86.3638 69.4106 86.9541 68.6212C87.5438 67.8317 87.8388 66.6555 87.8388 65.093C87.8388 63.5305 87.5434 62.3503 86.9541 61.5525C86.3643 60.7547 85.5987 60.3556 84.6583 60.3556Z" fill="black"/>
<path d="M94.5815 54.9201V58.4843H93.1467V60.4293H94.5815V68.4331C94.5815 69.5639 94.8603 70.4071 95.4184 70.9639C95.9761 71.5212 96.6458 71.7991 97.4269 71.7991C97.8891 71.7991 98.3395 71.7159 98.7781 71.5498C99.2162 71.3837 99.547 71.1595 99.7705 70.8767L100.153 68.7076C99.8664 68.9904 99.5753 69.1939 99.2804 69.3186C98.9851 69.4432 98.6703 69.5058 98.3357 69.5058C97.3471 69.5058 96.8532 68.9741 96.8532 67.9102V60.4301H100.081V58.4852H96.8532V54.147L94.5815 54.9201Z" fill="black"/>
<path d="M115.696 68.9327L112.037 58.4857H109.742L114.572 71.6753H116.82L121.65 58.4857H119.331L115.696 68.9327Z" fill="black"/>
<path fill-rule="evenodd" clip-rule="evenodd" d="M126.241 65.8908C126.305 66.5728 126.44 67.1626 126.648 67.6613C126.855 68.16 127.114 68.5714 127.425 68.8956C127.736 69.2199 128.086 69.4608 128.477 69.6185C128.868 69.7767 129.27 69.8555 129.685 69.8555C130.307 69.8555 130.852 69.7058 131.323 69.4066C131.792 69.1075 132.171 68.7419 132.458 68.3097L133.965 69.6811C133.789 69.9304 133.57 70.1921 133.307 70.4665C133.044 70.741 132.733 70.9903 132.375 71.2145C132.016 71.4388 131.605 71.626 131.143 71.7753C130.68 71.9251 130.163 71.9996 129.589 71.9996C128.839 71.9996 128.13 71.8537 127.461 71.563C126.792 71.2723 126.209 70.8361 125.715 70.2542C125.221 69.6727 124.83 68.9454 124.543 68.0723C124.257 67.1996 124.113 66.1816 124.113 65.0182C124.113 63.9213 124.244 62.9446 124.508 62.0887C124.771 61.2328 125.137 60.5138 125.608 59.9319C126.078 59.3504 126.64 58.9094 127.293 58.6103C127.947 58.3112 128.664 58.1614 129.446 58.1614C130.227 58.1614 130.944 58.3112 131.598 58.6103C132.251 58.9094 132.817 59.35 133.296 59.9319C133.774 60.5138 134.144 61.2328 134.408 62.0887C134.671 62.9451 134.802 63.9213 134.802 65.0182C134.802 65.1847 134.798 65.3384 134.79 65.4794C134.782 65.6208 134.77 65.7578 134.755 65.8908H126.241ZM129.47 60.3059C128.593 60.3059 127.868 60.6345 127.293 61.2909C126.72 61.9477 126.369 62.8909 126.241 64.1208H132.674C132.546 62.8578 132.196 61.9059 131.622 61.2658C131.048 60.6262 130.331 60.3059 129.47 60.3059Z" fill="black"/>
<path d="M153.369 60.7671C154.046 61.0909 154.592 61.4861 155.007 61.9513L155.844 59.9059C155.414 59.4738 154.808 59.0747 154.027 58.709C153.246 58.3438 152.313 58.1606 151.229 58.1606C150.56 58.1606 149.934 58.2438 149.352 58.4099C148.77 58.5764 148.272 58.8214 147.857 59.1456C147.443 59.4698 147.116 59.8689 146.877 60.3425C146.638 60.8165 146.518 61.3526 146.518 61.9508C146.518 62.6825 146.681 63.2808 147.008 63.746C147.335 64.2116 147.77 64.5856 148.312 64.868C148.582 65.0014 148.889 65.1261 149.232 65.242C149.575 65.3583 149.933 65.4706 150.308 65.5785C150.683 65.6869 151.061 65.7988 151.444 65.9151C151.827 66.0318 152.185 66.1644 152.52 66.3142C152.998 66.5138 153.345 66.73 153.56 66.9626C153.775 67.1957 153.883 67.4948 153.883 67.8604C153.883 68.4926 153.616 68.9745 153.082 69.3067C152.547 69.6393 151.874 69.8053 151.061 69.8053C150.2 69.8053 149.403 69.6393 148.67 69.3067C147.936 68.9745 147.339 68.5838 146.876 68.1349L145.992 70.1296C146.231 70.3789 146.521 70.6159 146.865 70.8401C147.207 71.0643 147.594 71.2639 148.024 71.4384C148.455 71.6128 148.929 71.7502 149.447 71.8498C149.965 71.9498 150.511 71.9996 151.085 71.9996C151.707 71.9996 152.321 71.9287 152.926 71.7877C153.532 71.6467 154.074 71.4137 154.553 71.0895C155.031 70.7652 155.414 70.3414 155.7 69.8177C155.987 69.2939 156.131 68.6247 156.131 67.8604C156.131 67.0961 155.975 66.4763 155.665 66.0027C155.354 65.5292 154.872 65.1261 154.218 64.7935C153.867 64.6111 153.493 64.453 153.094 64.32C152.696 64.1869 152.305 64.0622 151.923 63.9459C151.54 63.8297 151.169 63.7213 150.811 63.6217C150.452 63.5222 150.129 63.4059 149.842 63.2728C149.507 63.1235 149.244 62.9407 149.053 62.7244C148.862 62.5085 148.766 62.2341 148.766 61.9015C148.766 61.4526 148.957 61.0702 149.34 60.7544C149.723 60.4389 150.32 60.2808 151.133 60.2808C151.946 60.2808 152.691 60.4429 153.369 60.7671Z" fill="black"/>
<path fill-rule="evenodd" clip-rule="evenodd" d="M164.909 58.1614C165.674 58.1614 166.384 58.3112 167.037 58.6103C167.691 58.9094 168.257 59.3499 168.735 59.9319C169.213 60.5138 169.584 61.2327 169.847 62.0886C170.11 62.945 170.242 63.938 170.242 65.0683C170.242 66.1987 170.11 67.1961 169.847 68.0604C169.584 68.9247 169.217 69.648 168.747 70.2295C168.277 70.8114 167.715 71.252 167.061 71.5511C166.407 71.8502 165.69 72 164.909 72C164.128 72 163.387 71.8502 162.733 71.5511C162.079 71.252 161.517 70.8114 161.047 70.2295C160.577 69.648 160.21 68.9247 159.947 68.0604C159.684 67.1961 159.553 66.1992 159.553 65.0683C159.553 63.9375 159.684 62.945 159.947 62.0886C160.21 61.2327 160.581 60.5138 161.059 59.9319C161.537 59.3504 162.103 58.9094 162.757 58.6103C163.411 58.3112 164.128 58.1614 164.909 58.1614ZM164.909 60.3556C163.953 60.3556 163.183 60.7547 162.602 61.5525C162.019 62.3503 161.729 63.5309 161.729 65.093C161.729 66.6551 162.019 67.8317 162.602 68.6212C163.183 69.411 163.953 69.8053 164.909 69.8053C165.866 69.8053 166.615 69.4106 167.205 68.6212C167.795 67.8317 168.09 66.6555 168.09 65.093C168.09 63.5305 167.794 62.3503 167.205 61.5525C166.615 60.7547 165.85 60.3556 164.909 60.3556Z" fill="black"/>
<path d="M184.42 58.4857V66.7886C184.42 67.8358 184.679 68.5926 185.197 69.0578C185.715 69.5234 186.381 69.756 187.194 69.756C187.863 69.756 188.465 69.5899 188.999 69.2573C189.533 68.9252 189.983 68.3098 190.35 67.4124V58.4861H192.622V71.6758H190.47V70.03C189.497 71.3432 188.166 71.9996 186.476 71.9996C185.838 71.9996 185.253 71.9035 184.719 71.7128C184.184 71.522 183.726 71.2309 183.344 70.8401C182.961 70.4498 182.666 69.9511 182.459 69.3441C182.252 68.7375 182.148 68.0186 182.148 67.1873V58.4857H184.42Z" fill="black"/>
<path d="M197.86 54.9201V58.4843H196.425V60.4293H197.86V68.4331C197.86 69.5639 198.138 70.4071 198.697 70.9639C199.254 71.5212 199.924 71.7991 200.705 71.7991C201.167 71.7991 201.618 71.7159 202.056 71.5498C202.494 71.3837 202.825 71.1595 203.049 70.8767L203.431 68.7076C203.144 68.9904 202.853 69.1939 202.559 69.3186C202.263 69.4432 201.948 69.5058 201.614 69.5058C200.625 69.5058 200.131 68.9741 200.131 67.9102V60.4301H203.36V58.4852H200.131V54.147L197.86 54.9201Z" fill="black"/>
<path d="M208.26 53.4488C208.643 53.4488 208.957 53.5779 209.205 53.8351C209.452 54.0928 209.575 54.4378 209.575 54.8699C209.575 55.3021 209.451 55.6263 209.205 55.8924C208.958 56.1584 208.643 56.2915 208.26 56.2915C207.877 56.2915 207.567 56.1584 207.328 55.8924C207.088 55.6267 206.969 55.2858 206.969 54.8699C206.969 54.4541 207.088 54.0933 207.328 53.8351C207.567 53.5774 207.878 53.4488 208.26 53.4488Z" fill="black"/>
<path d="M209.408 58.4853V71.675H207.136V58.4853H209.408Z" fill="black"/>
<path fill-rule="evenodd" clip-rule="evenodd" d="M221.534 58.6103C220.88 58.3112 220.171 58.1614 219.406 58.1614C218.624 58.1614 217.907 58.3112 217.253 58.6103C216.599 58.9094 216.034 59.3504 215.555 59.9319C215.077 60.5138 214.707 61.2327 214.443 62.0886C214.18 62.945 214.049 63.9375 214.049 65.0683C214.049 66.1992 214.18 67.1961 214.443 68.0604C214.707 68.9247 215.073 69.648 215.544 70.2295C216.013 70.8114 216.575 71.252 217.229 71.5511C217.883 71.8502 218.625 72 219.406 72C220.186 72 220.904 71.8502 221.558 71.5511C222.211 71.252 222.773 70.8114 223.243 70.2295C223.714 69.648 224.08 68.9247 224.344 68.0604C224.607 67.1961 224.738 66.1987 224.738 65.0683C224.738 63.938 224.607 62.945 224.344 62.0886C224.08 61.2327 223.71 60.5138 223.232 59.9319C222.753 59.3499 222.187 58.9094 221.534 58.6103ZM217.098 61.5525C217.68 60.7547 218.449 60.3556 219.406 60.3556C220.346 60.3556 221.112 60.7547 221.701 61.5525C222.291 62.3503 222.586 63.5305 222.586 65.093C222.586 66.6555 222.291 67.8317 221.701 68.6212C221.111 69.4106 220.362 69.8053 219.406 69.8053C218.449 69.8053 217.68 69.411 217.098 68.6212C216.516 67.8317 216.225 66.6551 216.225 65.093C216.225 63.5309 216.516 62.3503 217.098 61.5525Z" fill="black"/>
<path d="M231.529 58.4857V60.1063C232.485 58.8099 233.816 58.1614 235.522 58.1614C236.16 58.1614 236.746 58.2575 237.28 58.4482C237.814 58.6394 238.272 58.9429 238.654 59.3583C239.037 59.7742 239.332 60.3099 239.539 60.9667C239.746 61.6235 239.85 62.4089 239.85 63.323V71.6758H237.578V63.5724C237.578 62.4252 237.327 61.6112 236.825 61.1288C236.323 60.6469 235.649 60.4059 234.804 60.4059C234.135 60.4059 233.529 60.5724 232.987 60.9046C232.445 61.2372 231.998 61.8438 231.648 62.7248V71.6758H229.376V58.4861L231.529 58.4857Z" fill="black"/>
<path d="M251.054 60.7671C251.731 61.0909 252.277 61.4861 252.692 61.9513L253.53 59.9059C253.099 59.4738 252.493 59.0747 251.712 58.709C250.931 58.3438 249.998 58.1606 248.914 58.1606C248.245 58.1606 247.619 58.2438 247.037 58.4099C246.455 58.5764 245.957 58.8214 245.542 59.1456C245.128 59.4698 244.801 59.8689 244.562 60.3425C244.323 60.8165 244.203 61.3526 244.203 61.9508C244.203 62.6825 244.366 63.2808 244.693 63.746C245.02 64.2116 245.455 64.5856 245.997 64.868C246.267 65.0014 246.574 65.1261 246.917 65.242C247.26 65.3583 247.619 65.4706 247.993 65.5785C248.368 65.6869 248.746 65.7988 249.129 65.9151C249.512 66.0318 249.87 66.1644 250.205 66.3142C250.683 66.5138 251.03 66.73 251.245 66.9626C251.46 67.1957 251.568 67.4948 251.568 67.8604C251.568 68.4926 251.301 68.9745 250.767 69.3067C250.232 69.6393 249.559 69.8053 248.746 69.8053C247.885 69.8053 247.088 69.6393 246.355 69.3067C245.621 68.9745 245.024 68.5838 244.561 68.1349L243.677 70.1296C243.916 70.3789 244.207 70.6159 244.55 70.8401C244.892 71.0643 245.279 71.2639 245.709 71.4384C246.14 71.6128 246.614 71.7502 247.132 71.8498C247.65 71.9498 248.196 71.9996 248.77 71.9996C249.392 71.9996 250.006 71.9287 250.611 71.7877C251.217 71.6467 251.759 71.4137 252.238 71.0895C252.716 70.7652 253.099 70.3414 253.385 69.8177C253.672 69.2939 253.816 68.6247 253.816 67.8604C253.816 67.0961 253.66 66.4763 253.35 66.0027C253.039 65.5292 252.557 65.1261 251.903 64.7935C251.552 64.6111 251.178 64.453 250.779 64.32C250.381 64.1869 249.99 64.0622 249.608 63.9459C249.225 63.8297 248.854 63.7213 248.496 63.6217C248.137 63.5222 247.814 63.4059 247.527 63.2728C247.192 63.1235 246.929 62.9407 246.738 62.7244C246.547 62.5085 246.451 62.2341 246.451 61.9015C246.451 61.4526 246.642 61.0702 247.025 60.7544C247.408 60.4389 248.006 60.2808 248.818 60.2808C249.631 60.2808 250.376 60.4429 251.054 60.7671Z" fill="black"/>
<path fill-rule="evenodd" clip-rule="evenodd" d="M172.825 14.4496C167.267 14.4496 163.351 16.228 160.887 18.1377L163.287 23.1429C165.751 21.3645 168.593 20.3768 172.13 20.3768C176.93 20.3768 179.898 22.2209 179.898 28.4115V29.597C177.246 28.4115 174.088 27.7529 171.119 27.7529C163.729 27.7529 158.361 31.7701 158.361 39.4096C158.361 47.0491 163.666 50.6055 170.361 50.6055C174.025 50.6055 177.435 49.5518 180.214 47.6421V50.1447H185.773V28.0164C185.773 17.7425 180.404 14.4496 172.825 14.4496ZM179.899 33.6802V43.3611C177.435 44.6783 174.341 45.4029 171.688 45.4029C167.456 45.4029 164.046 43.7562 164.046 39.0805C164.046 34.4048 167.772 32.363 172.572 32.363C174.909 32.363 177.625 32.8238 179.899 33.6802Z" fill="black"/>
<path d="M215.702 25.3815L220.059 21.694C218.354 17.5447 214.312 14.4496 208.248 14.4496C199.658 14.4496 193.153 20.7059 193.153 32.6921C193.153 44.6783 199.658 51.0006 207.617 51.0006C214.564 51.0006 218.417 46.2588 219.87 43.6245L215.575 40.3316C213.933 43.2294 211.343 45.2051 207.933 45.2051C203.133 45.2051 199.027 41.1224 199.027 32.7582C199.027 24.394 203.133 20.2451 208.249 20.2451C211.596 20.2451 214.249 22.0229 215.702 25.3815Z" fill="black"/>
<path d="M242.61 29.0044L254.168 15.3059H247.663L233.199 32.5607V1.47573L227.198 3.58319V50.1446H233.199V40.2003L238.883 33.4828L249.495 50.1446H256L242.61 29.0044Z" fill="black"/>
<path fill-rule="evenodd" clip-rule="evenodd" d="M45.3573 47.5367C42.9305 49.8442 39.941 50.997 36.3883 50.997C34.8712 50.997 33.365 50.7591 31.8703 50.2856C30.3751 49.8107 29.043 49.0534 27.8731 48.0142C26.7033 46.975 25.7607 45.6301 25.0459 43.9795C24.331 42.3297 23.974 40.3518 23.974 38.0461C23.974 35.9677 24.3745 34.1928 25.176 32.7237C25.9774 31.2546 27.0396 30.0453 28.3607 29.096C29.6818 28.1467 31.177 27.4462 32.8454 26.9938C34.5138 26.5418 36.2358 26.3159 38.0124 26.3159C39.4416 26.3159 40.7197 26.5194 41.8464 26.9255C42.9732 27.3317 43.9698 27.8956 44.8368 28.6167C44.8368 26.0493 44.4354 24.1362 43.634 22.8745C42.8325 21.6128 41.4565 20.982 39.5067 20.982C37.5569 20.982 35.7588 21.2763 34.2425 21.8635C32.7254 22.4512 31.4693 23.1282 30.4727 23.8965L26.833 16.5693C28.0899 15.4376 29.7794 14.4874 31.9028 13.7178C34.0254 12.9482 36.5387 12.5632 39.4416 12.5632C43.7763 12.5632 47.1389 13.8174 49.5281 16.3248C51.9164 18.8323 53.1116 22.9322 53.1116 28.6246V50.1085H45.3577L45.3573 47.5367ZM44.8364 34.9827C44.2297 34.4849 43.2981 34.0668 42.0429 33.7268C40.7868 33.3876 39.5308 33.2175 38.2752 33.2175C36.3254 33.2175 34.842 33.5911 33.8251 34.3378C32.8073 35.0845 32.2987 36.3175 32.2987 38.0364C32.2987 39.7553 32.7854 40.9205 33.76 41.6672C34.7347 42.4139 36.1961 42.7865 38.145 42.7865C38.7948 42.7865 39.4661 42.7081 40.159 42.5495C40.8519 42.391 41.5013 42.176 42.1079 41.9051C42.7146 41.6337 43.2558 41.3399 43.7324 41.0227C44.209 40.7055 44.5765 40.3888 44.8364 40.0716V34.9827Z" fill="black"/>
<path d="M80.9457 13.2358C79.0386 12.6477 76.7191 12.3535 73.9873 12.3535C72.6869 12.3535 71.2766 12.5001 69.7595 12.7935C68.2419 13.0869 66.8439 13.6288 65.565 14.4186C64.2862 15.2085 63.2236 16.3151 62.3782 17.7366C61.5328 19.1591 61.1104 20.9991 61.1104 23.2559C61.1104 25.3788 61.5219 27.1052 62.3461 28.4369C63.1704 29.7686 64.211 30.8748 65.4696 31.7549C66.7281 32.636 68.1376 33.3694 69.6995 33.9562C71.2614 34.543 72.7579 35.1522 74.1897 35.784C75.5345 36.3716 76.7161 36.9694 77.7356 37.5791C78.7551 38.1888 79.265 38.9672 79.265 39.9152C79.265 40.4121 79.1019 40.8301 78.7775 41.1685C78.4521 41.5068 78.0512 41.7667 77.5746 41.9473C77.0981 42.1279 76.556 42.2521 75.9493 42.32C75.3426 42.3878 74.7575 42.4213 74.1947 42.4213C72.1148 42.4213 70.0894 42.072 68.1177 41.3715C66.1464 40.6715 64.489 39.8469 63.1459 38.8976L59.9604 46.4953C61.3905 47.6719 63.3512 48.6908 65.843 49.5503C68.334 50.4102 71.1613 50.8406 74.3249 50.8406C75.9282 50.8406 77.5408 50.6705 79.1645 50.3331C80.7881 49.9948 82.2482 49.3842 83.5456 48.5036C84.8427 47.6226 85.8908 46.438 86.691 44.9477C87.4904 43.4574 87.8909 41.4707 87.8909 39.2579C87.8909 37.0452 87.4688 35.228 86.6247 33.8056C85.7802 32.3831 84.7087 31.1977 83.4096 30.2497C82.1104 29.3017 80.6499 28.5118 79.0263 27.8792C77.4027 27.2466 75.8112 26.6145 74.2535 25.9819C73.733 25.8013 73.2137 25.5863 72.6941 25.3378C72.1744 25.0894 71.7093 24.8189 71.2978 24.5255C70.8867 24.2321 70.5402 23.9498 70.2589 23.6788C69.9775 23.4079 69.8372 23.1595 69.8372 22.933C69.8372 22.2564 70.1503 21.6921 70.7789 21.2401C71.4076 20.789 72.3713 20.5626 73.6704 20.5626C74.147 20.5626 74.8179 20.6199 75.6844 20.7326C76.551 20.8454 77.45 21.0375 78.3807 21.3088C79.3115 21.5798 80.2215 21.9295 81.11 22.3586C81.9981 22.7885 82.7015 23.3194 83.222 23.952L86.2774 16.2204C84.6301 14.8186 82.8528 13.8239 80.9457 13.2358Z" fill="black"/>
</svg>
