<?xml version="1.0" encoding="utf-8"?>
<!-- Generator: Adobe Illustrator 29.3.1, SVG Export Plug-In . SVG Version: 9.03 Build 55982)  -->
<svg version="1.0" id="Vrstva_1" xmlns="http://www.w3.org/2000/svg" xmlns:xlink="http://www.w3.org/1999/xlink" x="0px" y="0px"
	 viewBox="0 0 191.3 30" style="enable-background:new 0 0 191.3 30;" xml:space="preserve">
<style type="text/css">
	.st0{fill:#8C8C8C;}
</style>
<g>
	<g>
		<path class="st0" d="M22.2,7.3L22.2,7.3C22.1,7.3,21.9,7.3,22.2,7.3z M22.3,7.3h-2.3c-1.4,0-3,0-3.4,0c-0.2,0-0.4,0-0.6,0.1
			c-0.2,0.1-0.3,0.2-0.5,0.3c-0.3,0.3-0.6,0.6-0.8,0.9c-0.6,0.9-1,1.9-1.4,2.8c-0.2,0.7,0.8,0.7,0.8,0.7H29c0,0,1.1,0,0.8-0.7
			c-0.3-1-0.7-1.9-1.2-2.8c-0.2-0.3-0.5-0.7-0.8-0.9c-0.1-0.1-0.3-0.2-0.5-0.3c-0.2-0.1-0.4-0.1-0.6-0.1C26.3,7.3,23.9,7.3,22.3,7.3
			z M11.7,14.9c-0.1,0-0.3,0-0.4,0c-0.1,0-0.2,0.1-0.3,0.2c0,0.5,0,0.9,0.1,1.4c0.1,0.2,0.5,0.5,0.9,0.7c0.3,0.1,0.6,0.2,0.9,0.2
			h1.8c0.4,0,0.7-0.1,1-0.3l0.8-0.7c0,0,0.1-0.1,0.1-0.1c0,0,0-0.1,0-0.1c0,0,0-0.1-0.1-0.1c0,0-0.1,0-0.1,0
			C15.1,15.7,12,15,11.7,14.9z M30,15.1c-0.1-0.1-0.2-0.2-0.3-0.2c-0.1,0-0.3,0-0.4,0c-0.3,0.1-3.5,0.8-4.6,1c0,0-0.1,0-0.1,0.1
			c0,0-0.1,0.1-0.1,0.1c0,0,0,0.1,0,0.1c0,0,0,0.1,0.1,0.1l0.8,0.7c0.3,0.2,0.6,0.3,1,0.3h1.8c0.3,0,0.6-0.1,0.9-0.2
			c0.4-0.2,0.9-0.5,0.9-0.7C30,16,30.1,15.6,30,15.1z M28,21.8H13.2v1.5c0,0.1,0,0.2,0,0.2c0,0.1-0.1,0.1-0.1,0.2
			c-0.1,0.1-0.1,0.1-0.2,0.1s-0.2,0-0.2,0H9.9c-0.1,0-0.2,0-0.2,0s-0.1-0.1-0.2-0.1c-0.1-0.1-0.1-0.1-0.1-0.2c0-0.1,0-0.2,0-0.2
			v-6.7c0-1.1,0.2-2.1,0.6-3.1c0.2-0.4,0.4-0.8,0.6-1.2l0.3-0.5c-0.4,0-1.2,0-1.6,0c-0.1,0-0.1,0-0.2,0c-0.1,0-0.1-0.1-0.2-0.1
			c-0.1-0.1-0.1-0.1-0.1-0.2c0-0.1,0-0.1,0-0.2c0,0,0-0.4,0-0.7c0-0.3,0.1-0.6,0.7-0.6h2c0.1,0,0.2,0,0.3,0.1c0.1,0,0.2,0.1,0.2,0.2
			l1.8-2.9c0.2-0.3,0.4-0.6,0.7-0.9c0.6-0.6,1.4-0.9,2.2-0.8h8.9c0.4,0,0.8,0,1.2,0.1c0.3,0.1,0-0.2-0.1-0.5c-2.1-2.4-4.9-4.2-8-4.9
			C15.3-0.3,12,0,9.1,1.2C6.1,2.5,3.7,4.7,2,7.4c-1.6,2.8-2.3,6-2,9.2c0.3,3.2,1.7,6.2,3.9,8.5c2.2,2.4,5.1,4,8.2,4.6
			c3.2,0.6,6.4,0.2,9.3-1.2c2.9-1.4,5.3-3.7,6.8-6.5C28.3,21.9,28.2,21.8,28,21.8z"/>
		<path d="M36.5,1.6c-0.2,0-0.5,0-0.7,0.1c-0.2,0.1-0.4,0.2-0.6,0.4c-0.2,0.2-0.3,0.3-0.4,0.5c-0.1,0.2-0.1,0.4-0.1,0.7
			c0,0.2,0,0.4,0.1,0.7c0.1,0.2,0.2,0.4,0.4,0.5c0.2,0.2,0.4,0.3,0.6,0.4C36,4.9,36.2,5,36.5,5c0.2,0,0.5,0,0.7-0.1
			c0.2-0.1,0.4-0.2,0.6-0.4c0.2-0.2,0.3-0.3,0.4-0.6c0.1-0.2,0.1-0.4,0.1-0.7c0-0.2,0-0.4-0.1-0.6c-0.1-0.2-0.2-0.4-0.4-0.6
			c-0.2-0.2-0.4-0.3-0.6-0.4C36.9,1.6,36.7,1.6,36.5,1.6z M36.4,8.1c-0.3,0-0.5,0-0.8,0.1c-0.2,0-0.4,0.1-0.5,0.2v14.5
			c0,0.8,0.5,1.2,1.5,1.2c0.3,0,0.5,0,0.7-0.1c0.2,0,0.3-0.1,0.5-0.2V9.3C37.8,8.5,37.3,8.1,36.4,8.1z M138.5,19.3
			c0.4-1.1,0.6-2.3,0.6-3.5c0-1.2-0.2-2.4-0.6-3.5c-0.4-1-0.9-1.9-1.7-2.7c-0.7-0.8-1.6-1.3-2.6-1.7c-2.2-0.8-4.6-0.8-6.8,0
			c-1,0.4-1.9,0.9-2.6,1.7c-0.7,0.8-1.3,1.7-1.7,2.7c-0.4,1.1-0.6,2.3-0.6,3.5c0,1.2,0.2,2.4,0.6,3.6c0.4,1,0.9,1.9,1.7,2.7
			c0.7,0.7,1.6,1.3,2.6,1.7c2.2,0.8,4.6,0.8,6.8,0c1-0.4,1.9-1,2.6-1.7C137.5,21.2,138.1,20.3,138.5,19.3z M133.7,19.6
			c-0.4,0.4-0.8,0.7-1.3,1c-0.5,0.2-1,0.3-1.6,0.3c-0.5,0-1.1-0.1-1.6-0.3c-0.5-0.2-0.9-0.6-1.3-1c-0.8-1.1-1.1-2.4-1-3.8
			c-0.1-1.3,0.3-2.7,1.1-3.8c0.4-0.4,0.8-0.8,1.3-1c0.5-0.2,1-0.4,1.6-0.4c0.5,0,1.1,0.1,1.6,0.4c0.5,0.2,0.9,0.6,1.3,1
			c0.8,1.1,1.1,2.4,1.1,3.8C134.8,17.1,134.4,18.5,133.7,19.6L133.7,19.6z M79.4,21.4c-0.4,0.2-0.8,0.4-1.2,0.5
			C77.9,22,77.4,22,77,22c-0.8,0-1.5-0.2-2.1-0.6c-0.3-0.2-0.5-0.5-0.6-0.8c-0.1-0.3-0.2-0.7-0.2-1v-8.8h4.8c0.7,0,1-0.4,1-1.2
			c0-0.2,0-0.4-0.1-0.6c-0.1-0.2-0.1-0.3-0.2-0.5h-5.5V4.7c0-0.8-0.5-1.2-1.4-1.2c-0.3,0-0.5,0-0.8,0.1c-0.2,0-0.4,0.1-0.5,0.2v16.1
			c0,1.6,0.5,2.8,1.5,3.5c1.1,0.8,2.5,1.1,3.9,1.1c0.8,0,1.7-0.1,2.4-0.5c0.2-0.1,0.5-0.3,0.6-0.5c0.2-0.2,0.2-0.5,0.3-0.7
			c0-0.2-0.1-0.5-0.2-0.7C79.8,21.7,79.6,21.5,79.4,21.4L79.4,21.4z M64.4,14.9l-2.3-0.6c-0.6-0.1-1.2-0.4-1.7-0.8
			c-0.3-0.4-0.5-0.8-0.5-1.3c0-0.3,0.1-0.6,0.2-0.9c0.2-0.3,0.4-0.5,0.7-0.7c0.7-0.4,1.6-0.6,2.4-0.6c0.9,0,1.8,0.1,2.6,0.5
			c0.6,0.2,1.2,0.5,1.7,0.9c0.2-0.1,0.4-0.3,0.6-0.5c0.1-0.2,0.2-0.5,0.2-0.8c0-0.6-0.5-1.2-1.5-1.6c-1.2-0.5-2.5-0.7-3.8-0.7
			c-0.9,0-1.8,0.1-2.6,0.4c-0.7,0.2-1.3,0.5-1.8,1c-0.5,0.4-0.9,0.9-1.1,1.4c-0.2,0.5-0.4,1.1-0.4,1.7c0,1,0.3,1.9,0.9,2.7
			c0.8,0.8,1.9,1.3,3,1.6l2.8,0.7c1.5,0.4,2.3,1.2,2.3,2.5c0,1.6-1.2,2.4-3.5,2.4c-1,0-1.9-0.2-2.8-0.5c-0.8-0.3-1.5-0.7-2.1-1.2
			c-0.3,0.2-0.5,0.4-0.7,0.6c-0.1,0.2-0.2,0.5-0.2,0.8c0,0.4,0.2,0.7,0.4,0.9c0.3,0.3,0.7,0.6,1.2,0.8c0.6,0.3,1.2,0.5,1.8,0.6
			c0.8,0.2,1.6,0.2,2.4,0.2c2,0,3.5-0.4,4.6-1.2c0.5-0.4,0.9-0.9,1.2-1.5c0.3-0.6,0.4-1.2,0.4-1.9c0-0.6-0.1-1.1-0.3-1.7
			c-0.2-0.5-0.5-1-0.9-1.4C67,15.7,65.8,15.2,64.4,14.9L64.4,14.9z M53.1,9.2c-1.2-0.9-2.8-1.4-4.9-1.4c-1.1,0-2.2,0.1-3.3,0.4
			c-0.8,0.2-1.6,0.6-2.3,1c-0.4,0.2-0.7,0.5-1,0.9c-0.2,0.4-0.3,0.7-0.3,1.2v11.5c0,0.8,0.5,1.2,1.5,1.2c0.3,0,0.5,0,0.7-0.1
			c0.2,0,0.3-0.1,0.5-0.1V11.1c0.6-0.3,1.1-0.6,1.7-0.8c0.8-0.2,1.6-0.4,2.4-0.3c1-0.1,2.1,0.3,2.9,0.9c0.4,0.4,0.7,0.8,0.9,1.3
			c0.2,0.5,0.3,1,0.2,1.5v9.1c0,0.8,0.5,1.2,1.5,1.2c0.2,0,0.5,0,0.7-0.1c0.2,0,0.4-0.1,0.5-0.2V13.5C54.8,11.5,54.2,10.1,53.1,9.2z
			 M120.8,13.1c0-0.9-0.2-1.8-0.5-2.6c-0.3-0.7-0.8-1.3-1.4-1.8c-0.6-0.5-1.3-0.8-2-1c-0.8-0.2-1.7-0.3-2.5-0.3c-1,0-2,0.1-3,0.5
			c-0.8,0.3-1.6,0.7-2.3,1.2c-1.4-1.1-3.2-1.7-5-1.7c-1.1,0-2.2,0.2-3.2,0.5C100,8,99.2,8.4,98.4,8.9c-0.4,0.3-0.8,0.6-1,1
			c-0.2,0.4-0.4,0.8-0.3,1.3v10.9c0,0.3,0,0.6,0.1,0.8c0.1,0.3,0.3,0.5,0.5,0.7c0.5,0.3,1.1,0.5,1.7,0.4c0.4,0,0.8,0,1.2-0.1
			l0.8-0.2V11.5c0.4-0.2,0.8-0.4,1.2-0.5c0.5-0.2,1-0.3,1.6-0.3c0.7,0,1.4,0.2,2,0.6c0.3,0.2,0.5,0.5,0.6,0.9s0.2,0.7,0.2,1.1v8.8
			c0,0.3,0,0.6,0.1,0.8c0.1,0.3,0.3,0.5,0.5,0.7c0.5,0.3,1.2,0.5,1.8,0.4c0.4,0,0.8,0,1.2-0.1c0.4-0.1,0.6-0.1,0.8-0.2v-11
			c0-0.3,0-0.6-0.1-0.9c0.4-0.3,0.8-0.6,1.3-0.8c0.5-0.2,1-0.3,1.6-0.3c0.7,0,1.4,0.2,2,0.6c0.3,0.2,0.5,0.6,0.6,0.9
			c0.1,0.3,0.2,0.7,0.1,1.1v8.8c0,0.3,0,0.6,0.1,0.8c0.1,0.3,0.2,0.5,0.4,0.7c0.5,0.3,1.2,0.5,1.8,0.4c0.4,0,0.8,0,1.2-0.1
			c0.4-0.1,0.6-0.1,0.8-0.2L120.8,13.1z M92.6,9.1c-1.4-0.9-3-1.4-4.7-1.3c-0.9,0-1.7,0.1-2.6,0.3c-0.7,0.2-1.4,0.4-2.1,0.7
			c-0.3,0.1-0.5,0.3-0.7,0.6c-0.2,0.2-0.3,0.5-0.2,0.8c0,0.2,0.1,0.5,0.2,0.7c0.1,0.2,0.3,0.4,0.5,0.5c0.7-0.4,1.5-0.7,2.2-0.9
			c0.9-0.3,1.8-0.4,2.7-0.4c1,0,1.9,0.2,2.7,0.8c0.4,0.3,0.6,0.7,0.8,1.1c0.2,0.4,0.3,0.9,0.2,1.4v0.9l-4.8,0.5
			c-1.5,0.1-2.9,0.6-4.1,1.4c-0.5,0.4-0.9,0.9-1.1,1.5c-0.3,0.6-0.4,1.2-0.3,1.9c0,0.7,0.1,1.4,0.4,2c0.3,0.6,0.8,1.2,1.3,1.6
			c1.2,0.8,2.8,1.3,4.9,1.3c1,0,2.1-0.1,3.1-0.4c0.7-0.2,1.5-0.5,2.1-0.8c0.3-0.2,0.6-0.4,0.9-0.7c0.2-0.3,0.3-0.7,0.3-1.2v-8
			C94.3,11.4,93.7,10,92.6,9.1L92.6,9.1z M91.6,21.2c-0.4,0.3-0.9,0.4-1.3,0.6c-0.8,0.2-1.6,0.3-2.3,0.3c-1,0.1-2.1-0.2-3-0.7
			c-0.3-0.2-0.6-0.5-0.7-0.9C84,20.1,84,19.8,84,19.4c0-0.4,0-0.7,0.2-1c0.1-0.3,0.4-0.6,0.7-0.8c0.8-0.5,1.7-0.8,2.6-0.8l4.2-0.4
			V21.2z M154,7.7c-0.4,0-0.8,0-1.2,0.1c-0.4,0.1-0.6,0.1-0.8,0.2v14.1c0,0.3,0,0.6,0.1,0.8c0.1,0.3,0.3,0.5,0.5,0.7
			c0.5,0.3,1.1,0.5,1.8,0.4c0.4,0,0.8,0,1.2-0.1c0.3-0.1,0.6-0.1,0.8-0.2V9.7c0-0.3,0-0.6-0.1-0.8c-0.1-0.3-0.3-0.5-0.5-0.7
			C155.3,7.8,154.6,7.6,154,7.7z M184,10.7c0.8,0,1.6,0.2,2.3,0.7c0.3,0.3,0.5,0.6,0.7,1c0.1,0.4,0.2,0.8,0.2,1.2v8.6
			c0,0.3,0,0.6,0.1,0.8c0.1,0.3,0.3,0.5,0.5,0.7c0.5,0.3,1.2,0.5,1.8,0.4c0.4,0,0.8,0,1.2-0.1c0.4-0.1,0.6-0.1,0.8-0.2V13.4
			c0-2-0.6-3.5-1.9-4.5c-1.3-1.1-3.1-1.5-5.4-1.5c-1.2,0-2.4,0.1-3.6,0.5c-0.9,0.2-1.8,0.6-2.6,1.2c-0.4,0.3-0.8,0.6-1.1,1
			c-0.2,0.4-0.4,0.9-0.3,1.3v10.8c0,0.3,0,0.6,0.1,0.8c0.1,0.3,0.3,0.5,0.5,0.7c0.5,0.3,1.1,0.5,1.7,0.4c0.4,0,0.8,0,1.2-0.1
			l0.8-0.2V11.6c0.5-0.3,0.9-0.5,1.4-0.6C182.8,10.8,183.4,10.7,184,10.7L184,10.7z M154.2,0.7c-0.3,0-0.7,0-1,0.2
			c-0.3,0.1-0.6,0.3-0.8,0.5c-0.2,0.2-0.4,0.5-0.5,0.8c-0.1,0.3-0.2,0.6-0.2,0.9c0,0.3,0,0.6,0.2,0.9c0.1,0.3,0.3,0.6,0.5,0.8
			c0.2,0.2,0.5,0.4,0.8,0.5c0.3,0.1,0.6,0.2,1,0.2c0.3,0,0.6,0,0.9-0.2c0.3-0.1,0.6-0.3,0.8-0.5c0.2-0.2,0.4-0.5,0.5-0.8
			c0.1-0.3,0.2-0.6,0.2-0.9c0-0.3,0-0.6-0.2-0.9c-0.1-0.3-0.3-0.6-0.5-0.8c-0.2-0.2-0.5-0.4-0.8-0.5C154.9,0.7,154.6,0.6,154.2,0.7z
			 M174.2,12.3c-0.4-1-1-1.9-1.7-2.7c-0.7-0.8-1.6-1.3-2.6-1.7c-2.2-0.8-4.6-0.8-6.8,0c-1,0.4-1.9,0.9-2.6,1.7
			c-0.7,0.8-1.3,1.7-1.7,2.7c-0.4,1.1-0.6,2.3-0.6,3.5c0,1.2,0.2,2.4,0.6,3.6c0.4,1,0.9,1.9,1.7,2.7c0.7,0.7,1.6,1.3,2.6,1.7
			c2.2,0.8,4.6,0.8,6.8,0c1-0.4,1.9-1,2.6-1.7c0.7-0.8,1.3-1.7,1.7-2.7c0.4-1.1,0.6-2.3,0.6-3.5C174.8,14.6,174.6,13.4,174.2,12.3z
			 M169.4,19.6c-0.4,0.4-0.8,0.7-1.3,1c-0.5,0.2-1,0.3-1.6,0.3c-0.5,0-1.1-0.1-1.6-0.3c-0.5-0.2-0.9-0.6-1.3-1
			c-0.8-1.1-1.1-2.4-1-3.8c-0.1-1.3,0.3-2.7,1.1-3.8c0.4-0.4,0.8-0.8,1.3-1c0.5-0.2,1-0.4,1.6-0.4c0.6,0,1.1,0.1,1.6,0.4
			c0.5,0.2,0.9,0.6,1.3,1c0.8,1.1,1.1,2.4,1,3.8C170.5,17.1,170.1,18.5,169.4,19.6z M150.4,22c0-0.3-0.1-0.6-0.2-0.9
			c-0.1-0.2-0.3-0.5-0.5-0.7c-0.3,0.1-0.7,0.3-1.1,0.3c-0.4,0.1-0.8,0.1-1.2,0.1c-0.6,0-1.3-0.1-1.8-0.5c-0.2-0.2-0.4-0.4-0.5-0.7
			c-0.1-0.3-0.2-0.6-0.1-0.9v-7.4h3.9c0.2,0,0.4,0,0.6-0.1c0.2-0.1,0.4-0.2,0.5-0.3c0.2-0.2,0.3-0.4,0.3-0.6
			c0.1-0.2,0.1-0.5,0.1-0.7c0-0.3,0-0.6-0.1-0.9c-0.1-0.2-0.2-0.5-0.3-0.7h-5V5.3c0-0.3,0-0.6-0.1-0.8c-0.1-0.3-0.3-0.5-0.5-0.7
			c-0.5-0.3-1.1-0.5-1.7-0.4c-0.4,0-0.8,0-1.2,0.1c-0.4,0.1-0.6,0.1-0.8,0.2v15.5c0,1.8,0.5,3.2,1.5,4c1.2,0.9,2.7,1.3,4.2,1.2
			c1.4,0,2.3-0.2,2.9-0.7c0.3-0.2,0.5-0.4,0.7-0.7C150.3,22.6,150.4,22.3,150.4,22L150.4,22z"/>
	</g>
</g>
</svg>
