<svg width="300" height="72" viewBox="0 0 300 72" fill="none" xmlns="http://www.w3.org/2000/svg">
<path d="M18.496 53C14.9963 53 11.84 52.2547 9.0272 50.764C6.21437 49.2408 4.00663 47.1505 2.40398 44.4931C0.801331 41.8033 0 38.8055 0 35.5C0 32.1945 0.801331 29.213 2.40398 26.5556C4.00663 23.8657 6.21437 21.7755 9.0272 20.2847C11.84 18.7616 14.9963 18 18.496 18C21.9956 18 25.1518 18.7616 27.9647 20.2847C30.7775 21.7755 32.9853 23.8495 34.5879 26.5069C36.1906 29.1644 36.9919 32.162 36.9919 35.5C36.9919 38.8379 36.1906 41.8357 34.5879 44.4931C32.9853 47.1505 30.7775 49.2408 27.9647 50.764C25.1518 52.2547 21.9956 53 18.496 53ZM18.496 47.4583C20.7854 47.4583 22.846 46.956 24.6776 45.9514C26.5092 44.9144 27.9484 43.4885 28.995 41.6736C30.0416 39.8265 30.5649 37.7685 30.5649 35.5C30.5649 33.2315 30.0416 31.1898 28.995 29.375C27.9484 27.5278 26.5092 26.1019 24.6776 25.0972C22.846 24.0602 20.7854 23.5417 18.496 23.5417C16.2064 23.5417 14.1459 24.0602 12.3143 25.0972C10.4827 26.1019 9.04355 27.5278 7.99692 29.375C6.95029 31.1898 6.42696 33.2315 6.42696 35.5C6.42696 37.7685 6.95029 39.8265 7.99692 41.6736C9.04355 43.4885 10.4827 44.9144 12.3143 45.9514C14.1459 46.956 16.2064 47.4583 18.496 47.4583ZM84.0641 52.5139L84.0151 29.9583L72.7311 48.625H69.8856L58.6016 30.25V52.5139H52.5181V18.4861H57.7676L71.4064 41.0417L84.8 18.4861H90.0495L90.0986 52.5139H84.0641ZM140.848 18.4861V52.5139H135.598L116.661 29.4722V52.5139H110.332V18.4861H115.582L134.519 41.5278V18.4861H140.848ZM186.764 47.2153V52.5139H161.008V18.4861H186.078V23.7847H167.385V32.6319H183.968V37.8333H167.385V47.2153H186.764ZM211.798 23.8333H200.416V18.4861H229.559V23.8333H218.176V52.5139H211.798V23.8333ZM245.302 18.4861H251.68V52.5139H245.302V18.4861ZM286.361 53C282.894 53 279.754 52.2547 276.94 50.764C274.16 49.2408 271.97 47.1505 270.367 44.4931C268.797 41.8357 268.012 38.8379 268.012 35.5C268.012 32.162 268.813 29.1644 270.416 26.5069C272.018 23.8495 274.21 21.7755 276.99 20.2847C279.802 18.7616 282.943 18 286.41 18C289.223 18 291.789 18.4861 294.112 19.4583C296.434 20.4306 298.397 21.8403 300 23.6875L295.879 27.5278C293.392 24.8704 290.334 23.5417 286.704 23.5417C284.349 23.5417 282.239 24.0602 280.375 25.0972C278.511 26.1019 277.056 27.5116 276.008 29.3264C274.962 31.1412 274.439 33.1991 274.439 35.5C274.439 37.8009 274.962 39.8587 276.008 41.6736C277.056 43.4885 278.511 44.9144 280.375 45.9514C282.239 46.956 284.349 47.4583 286.704 47.4583C290.334 47.4583 293.392 46.1134 295.879 43.4237L300 47.3125C298.397 49.1598 296.418 50.5694 294.063 51.5417C291.741 52.5139 289.173 53 286.361 53Z" fill="black"/>
</svg>
