<svg width="300" height="72" viewBox="0 0 300 72" fill="none" xmlns="http://www.w3.org/2000/svg">
<path fill-rule="evenodd" clip-rule="evenodd" d="M40.9979 20.7033C49.5527 20.7033 55.9326 26.6275 55.9326 35.1087C55.9326 43.5719 49.5527 49.5141 40.9979 49.5141C32.443 49.5141 26.0088 43.5899 26.0088 35.1087C26.0269 26.6275 32.443 20.7033 40.9979 20.7033ZM40.9979 27.0417C36.3398 27.0417 33.3674 30.553 33.3674 35.0907C33.3674 39.5924 36.3398 43.1397 40.9979 43.1397C45.6197 43.1397 48.5921 39.5924 48.5921 35.0907C48.5921 30.535 45.6197 27.0417 40.9979 27.0417Z" fill="black"/>
<path d="M3.82431 39.6827C5.83615 41.6814 8.93547 43.356 12.7598 43.356C15.2429 43.356 16.7472 42.3116 16.7472 40.9791C16.7472 39.3945 14.9347 38.7643 11.9623 38.1341L11.735 38.089C7.13202 37.1762 0.888109 35.9379 0.888109 29.4548C0.888109 24.7731 4.87554 20.7396 12.0529 20.7396C16.5478 20.7396 20.4446 22.0721 23.4171 24.629L19.4659 29.7609C17.1097 27.8342 14.0466 26.8799 11.5817 26.8799C9.18921 26.8799 8.26485 27.8342 8.26485 29.0587C8.26485 30.5172 9.9867 31.0214 13.086 31.5976C17.7078 32.552 24.0877 33.8845 24.0877 40.1868C24.0877 45.7689 19.9371 49.4963 12.4154 49.4963C6.74238 49.4963 2.80932 47.7497 0 45.0667L3.82431 39.6827Z" fill="black"/>
<path d="M80.1111 21.1535H59.594V48.9739H66.8076V37.9178H79.8211V31.8315H66.8076V27.2038H80.1111V21.1535Z" fill="black"/>
<path d="M90.279 27.4198H82.431V21.1535H105.304V27.4198H97.4927V48.9919H90.279V27.4198Z" fill="black"/>
<path d="M113.95 21.1535H105.776L116.306 48.9919H125.368L135.935 21.1535H127.761L120.837 41.231L113.95 21.1535Z" fill="black"/>
<path d="M138.001 21.1535H145.215V48.9919H138.001V21.1535Z" fill="black"/>
<path d="M175.936 27.1677C173.87 23.7104 170.1 20.7033 163.974 20.7033C155.637 20.7033 148.84 26.2494 148.84 35.0727C148.84 43.932 155.637 49.4781 163.992 49.4781C169.285 49.4781 173.344 47.3533 176.371 44.058V33.164H162.85V39.1242H169.266V41.4651C168.125 42.3834 166.149 43.1397 163.974 43.1397C159.388 43.1397 156.162 39.6464 156.162 35.0907C156.162 30.553 159.407 27.0417 163.974 27.0417C166.62 27.0417 168.759 28.5002 169.901 30.3369L175.936 27.1677Z" fill="black"/>
<path d="M189.35 63.4873C187.955 62.1008 187.955 59.868 189.35 58.4814L222.011 25.9973C223.407 24.6107 225.654 24.6107 227.031 25.9973L234.571 33.4881C235.967 34.8746 235.967 37.1074 234.571 38.4759L201.911 70.9601C200.515 72.3466 198.268 72.3466 196.89 70.9601L189.35 63.4873Z" fill="url(#paint0_linear_5945_15582)"/>
<path d="M227.05 46.0027L234.59 38.5119C235.986 37.1434 235.986 34.8926 234.59 33.5241L201.929 1.03989C200.534 -0.34663 198.286 -0.34663 196.909 1.03989L189.369 8.53069C187.973 9.91721 187.973 12.1501 189.369 13.5186L222.03 46.0027C223.425 47.3892 223.425 49.6221 222.03 50.9906L227.05 46.0027Z" fill="url(#paint1_linear_5945_15582)"/>
<defs>
<linearGradient id="paint0_linear_5945_15582" x1="217.51" y1="42.0923" x2="188.677" y2="63.6354" gradientUnits="userSpaceOnUse">
<stop stop-color="#A3A3A3"/>
<stop offset="1" stop-color="#818181"/>
</linearGradient>
<linearGradient id="paint1_linear_5945_15582" x1="193.972" y1="6.0923" x2="223.077" y2="47.8615" gradientUnits="userSpaceOnUse">
<stop stop-color="#A3A3A3"/>
<stop offset="1" stop-color="#818181"/>
</linearGradient>
</defs>
</svg>
