<svg width="300" height="72" viewBox="0 0 300 72" fill="none" xmlns="http://www.w3.org/2000/svg">
<g style="mix-blend-mode:luminosity">
<path fill-rule="evenodd" clip-rule="evenodd" d="M23.6897 0V17.5434H44.288C38.9601 21.1036 35.5614 25.6385 33.8979 28.2538H23.6897V68.5101H17.7733H11.6564V28.2538H0V17.5434H11.6564L11.5665 5.65755L23.6897 0ZM46.489 37.6908C47.155 34.1176 48.7114 31.4586 51.1378 29.7009C53.5633 27.954 56.3526 27.0716 59.5249 27.0716C62.8195 27.0716 65.5886 28.0344 67.8129 29.949C70.0362 31.8755 71.249 34.4551 71.4501 37.6908H46.489ZM72.5628 19.9254C68.7831 17.8113 64.4375 16.7483 59.5249 16.7483C54.5608 16.7483 50.2081 17.7448 46.487 19.7249C46.4552 19.7424 46.4228 19.7579 46.3905 19.7733C46.3622 19.7869 46.3339 19.8004 46.3061 19.8152C46.1444 19.8946 45.9837 19.9839 45.8321 20.0733C41.9514 22.2966 38.9196 25.3843 36.7366 29.3545C36.6558 29.4924 36.584 29.6324 36.5143 29.7803C34.4628 33.6422 33.4521 38.0391 33.4521 42.9522C33.4521 47.9833 34.5628 52.421 36.7862 56.2512C39.0105 60.0923 42.0727 63.0699 45.9837 65.184C49.8837 67.2981 54.3718 68.3601 59.4248 68.3601C63.4673 68.3601 67.0853 67.6365 70.2889 66.1765C73.4824 64.7274 76.1808 62.7235 78.3738 60.1717C80.5567 57.6318 82.1231 54.8021 83.0721 51.6865H69.9342C69.056 53.5425 67.722 55.0502 65.9433 56.2015C64.1535 57.3628 61.9514 57.9385 59.3228 57.9385C55.8159 57.9385 52.8346 56.8477 50.3799 54.6641C47.913 52.4795 46.5497 49.4722 46.2869 45.631H84.3869C84.4476 44.7785 84.4971 43.9447 84.5375 43.1497C84.5688 42.3557 84.588 41.6013 84.588 40.8669C84.588 36.3717 83.5269 32.2824 81.4056 28.6101C79.2823 24.9367 76.3313 22.0484 72.5628 19.9254ZM108.62 58.4372C112.324 58.4372 115.205 57.2452 117.26 54.8631C119.315 52.482 120.611 49.5382 121.152 46.0305H110.135C106.7 46.0305 104.24 46.6429 102.758 47.8657C101.276 49.0915 100.535 50.5952 100.535 52.3818C100.535 54.3023 101.276 55.7911 102.758 56.8482C104.24 57.9072 106.195 58.4372 108.62 58.4372ZM111.348 16.7507C118.489 16.7507 124.115 18.5036 128.226 22.0102C132.335 25.5188 134.39 30.4815 134.39 36.8982V67.1705H123.376L122.163 59.2303C120.679 61.8773 118.607 64.0619 115.947 65.781C113.285 67.501 109.867 68.3626 105.69 68.3626C101.377 68.3626 97.8394 67.6827 95.0784 66.3279C92.3144 64.9721 90.2598 63.1676 88.9127 60.9186C87.5645 58.6695 86.8914 56.1881 86.8914 53.4745C86.8914 48.9079 88.7105 45.2038 92.3498 42.3572C95.9869 39.5135 101.445 38.0902 108.722 38.0902H121.454V36.8982C121.454 33.5236 120.478 31.0423 118.524 29.4542C116.569 27.8671 114.144 27.0721 111.248 27.0721C108.62 27.0721 106.33 27.6845 104.375 28.9093C102.42 30.1341 101.208 31.9355 100.737 34.3186H88.1042C88.4407 30.7445 89.6706 27.6349 91.7939 24.9878C93.9152 22.3417 96.66 20.308 100.029 18.8837C103.398 17.4614 107.17 16.7507 111.348 16.7507ZM172.333 39.9254C175.263 40.8862 177.605 42.3085 179.357 44.1933C181.107 46.0792 181.985 48.7759 181.985 52.2825C182.05 55.3276 181.242 58.073 179.558 60.5205C177.874 62.9701 175.449 64.8887 172.283 66.2772C169.115 67.6668 165.375 68.3626 161.064 68.3626C156.618 68.3626 152.71 67.6499 149.342 66.2276C145.972 64.8063 143.278 62.8381 141.257 60.322C139.236 57.8089 138.023 54.8978 137.618 51.5877H150.656C151.06 53.5083 152.153 55.146 153.94 56.5008C155.724 57.8586 158.032 58.5355 160.862 58.5355C163.693 58.5355 165.764 57.9747 167.078 56.8482C168.391 55.7236 169.049 54.4333 169.049 52.9783C169.049 50.8612 168.104 49.422 166.219 48.6598C164.332 47.8995 161.704 47.1551 158.335 46.4265C156.179 45.965 153.99 45.4023 151.766 44.7402C149.544 44.0792 147.505 43.2355 145.652 42.2083C143.799 41.184 142.3 39.8609 141.155 38.2381C140.009 36.6173 139.438 34.6164 139.438 32.2333C139.438 27.8671 141.207 24.1948 144.744 21.2172C148.281 18.2395 153.248 16.7507 159.65 16.7507C165.577 16.7507 170.312 18.1075 173.849 20.8191C177.386 23.5337 179.492 27.2706 180.166 32.0348H167.936C167.194 28.3972 164.399 26.5758 159.548 26.5758C157.124 26.5758 155.253 27.0404 153.94 27.9654C152.626 28.8934 151.969 30.0497 151.969 31.4393C151.969 32.8953 152.945 34.0546 154.9 34.9131C156.853 35.7747 159.448 36.5677 162.682 37.2962C166.184 38.0902 169.402 38.9667 172.333 39.9254Z" fill="#091E42"/>
<path d="M262.22 4.54901H192.57C190.924 4.54901 189.589 5.85902 189.589 7.47501V38.198C189.589 39.8139 190.924 41.1239 192.57 41.1239H262.22C263.866 41.1239 265.2 39.8139 265.2 38.198V7.47501C265.2 5.85902 263.866 4.54901 262.22 4.54901Z" fill="url(#paint0_linear)"/>
<path d="M202.761 33.0251C201.312 33.0251 200.076 32.6594 199.052 31.9279C198.028 31.1964 197.247 30.2007 196.709 28.9409C196.171 27.6811 195.902 26.2588 195.902 24.6739C195.902 23.0686 196.171 21.6361 196.709 20.3763C197.247 19.1165 198.033 18.1259 199.068 17.4046C200.102 16.6833 201.354 16.3226 202.823 16.3226C204.271 16.3226 205.445 16.6629 206.345 17.3436C207.245 18.0243 207.912 18.8219 208.347 19.7362H208.595V9.95245H211.264V32.8118H208.595V29.52H208.347C207.85 30.4954 207.152 31.3234 206.252 32.0041C205.352 32.6848 204.188 33.0251 202.761 33.0251ZM203.568 30.7697C205.181 30.7697 206.412 30.1855 207.261 29.0171C208.109 27.8488 208.533 26.401 208.533 24.6739C208.533 22.9467 208.109 21.504 207.261 20.3458C206.412 19.1876 205.181 18.6085 203.568 18.6085C201.933 18.6085 200.702 19.1876 199.874 20.3458C199.047 21.504 198.633 22.9467 198.633 24.6739C198.633 26.4213 199.052 27.8742 199.89 29.0324C200.728 30.1906 201.954 30.7697 203.568 30.7697ZM215.919 16.7493H218.557V19.7058H218.805C218.847 19.5026 219.054 19.1317 219.426 18.5933C219.798 18.0548 220.367 17.5418 221.133 17.0541C221.898 16.5664 222.85 16.3226 223.988 16.3226C225.188 16.3226 226.186 16.5969 226.983 17.1455C227.779 17.6941 228.374 18.2834 228.767 18.9133C229.16 19.5432 229.357 19.9394 229.357 20.102H229.605C229.895 19.3908 230.469 18.5831 231.328 17.6789C232.186 16.7747 233.505 16.3226 235.284 16.3226C236.609 16.3226 237.715 16.6528 238.605 17.3132C239.495 17.9735 240.152 18.8219 240.576 19.8582C241 20.8945 241.212 22.0019 241.212 23.1804V32.8118H238.574V23.4242C238.574 21.8799 238.165 20.7116 237.348 19.9191C236.531 19.1267 235.522 18.7304 234.322 18.7304C233.081 18.7304 232.031 19.1419 231.172 19.9648C230.314 20.7878 229.885 21.9409 229.885 23.4242V32.8118H227.247V23.4242C227.247 21.8799 226.838 20.7116 226.021 19.9191C225.204 19.1267 224.195 18.7304 222.995 18.7304C221.754 18.7304 220.704 19.1419 219.845 19.9648C218.986 20.7878 218.557 21.9409 218.557 23.4242V32.8118H215.919V16.7493ZM251.236 33.0251C249.912 33.0251 248.764 32.7661 247.791 32.2479C246.819 31.7298 246.079 31.0643 245.572 30.2515C245.065 29.4388 244.812 28.5853 244.812 27.6913V27.5389H247.481V27.6608C247.481 28.1688 247.626 28.6717 247.915 29.1695C248.205 29.6674 248.64 30.0737 249.219 30.3887C249.798 30.7036 250.502 30.8611 251.329 30.8611C252.322 30.8611 253.145 30.6224 253.796 30.1449C254.448 29.6673 254.774 29.0121 254.774 28.179C254.774 27.4881 254.521 26.9395 254.014 26.5331C253.507 26.1267 252.871 25.8625 252.105 25.7406L249.964 25.4358C248.619 25.2326 247.491 24.7805 246.581 24.0795C245.671 23.3785 245.215 22.3575 245.215 21.0164C245.215 19.533 245.758 18.3799 246.845 17.557C247.931 16.734 249.322 16.3226 251.019 16.3226C252.281 16.3226 253.362 16.5512 254.262 17.0084C255.162 17.4656 255.85 18.065 256.326 18.8066C256.801 19.5483 257.039 20.356 257.039 21.2297V21.3516H254.37V21.2907C254.37 20.8843 254.262 20.4576 254.045 20.0106C253.827 19.5635 253.46 19.1775 252.943 18.8524C252.426 18.5272 251.764 18.3647 250.957 18.3647C249.964 18.3647 249.167 18.6034 248.567 19.0809C247.967 19.5585 247.667 20.1833 247.667 20.9554C247.667 21.5853 247.905 22.1035 248.381 22.5098C248.857 22.9162 249.457 23.1804 250.181 23.3023L252.508 23.668C253.874 23.8916 255.022 24.3538 255.953 25.0548C256.884 25.7559 257.35 26.7871 257.35 28.1485C257.35 29.1238 257.086 29.9772 256.558 30.7087C256.031 31.4402 255.302 32.0092 254.37 32.4155C253.439 32.8219 252.395 33.0251 251.236 33.0251Z" fill="white"/>
</g>
<defs>
<linearGradient id="paint0_linear" x1="265.2" y1="18.3978" x2="201.238" y2="50.4913" gradientUnits="userSpaceOnUse">
<stop stop-color="#258BFD"/>
<stop offset="1" stop-color="#1052F9"/>
</linearGradient>
</defs>
</svg>
