<svg width="175" height="30" viewBox="0 0 175 30" fill="none" xmlns="http://www.w3.org/2000/svg">
<g opacity="0.6">
<path d="M170.4 13.2824C172.95 13.2824 175 15.3538 175 17.9313C175 20.5088 172.95 22.5343 170.4 22.5343C167.85 22.5343 165.845 20.5088 165.845 17.9313C165.845 15.3538 167.895 13.2824 170.4 13.2824V13.2824Z" fill="white"/>
<path d="M141.712 11.9232C141.712 4.88124 147.541 0.00223541 153.508 0.00223541C159.474 0.00223541 164.074 4.19079 164.074 10.5893C164.074 17.6312 158.245 22.5114 152.278 22.5114C146.312 22.5114 141.712 18.3228 141.712 11.9244V11.9232ZM156.969 10.7267C156.969 8.33353 155.512 6.44651 153.28 6.44651C150.912 6.44651 148.817 8.60949 148.817 11.7858C148.817 14.179 150.274 16.0671 152.506 16.0671C154.874 16.0671 156.969 13.9041 156.969 10.7278V10.7267Z" fill="white"/>
<path fill-rule="evenodd" clip-rule="evenodd" d="M130.295 18.3754C129.246 19.9225 127.197 21.1156 124.468 21.1156C119.367 21.1156 115.496 16.8218 115.496 11.5099C115.496 4.47137 120.642 0 126.245 0C129.802 0 132.07 1.95413 132.809 3.37502L133.29 0.551888H140.194L136.319 22.1565C135.356 27.1374 133.714 29.9416 127.484 29.9416H116.849L117.897 23.8649H126.354C128.1 23.8649 129.461 23.0393 129.834 20.9782L130.173 19.1015L130.295 18.3754ZM122.737 10.8893C122.737 8.18931 124.787 6.06412 127.337 6.06412C129.706 6.06412 131.346 8.05534 131.346 10.0477C131.346 12.7477 129.341 15.1385 126.791 15.1385C124.24 15.1385 122.737 13.1473 122.737 10.8893Z" fill="white"/>
<path fill-rule="evenodd" clip-rule="evenodd" d="M89.1401 12.4408C89.1401 18.3263 92.8712 22.5114 97.785 22.5114C100.834 22.5114 102.791 20.7641 103.518 19.3385L103.017 21.9595H110.206L113.848 0.577066H106.717L106.171 3.78317C105.67 2.54195 104.11 0.0251579 99.9242 0.0251579C94.1005 0.0251579 89.1401 4.89958 89.1401 12.4408ZM100.107 16.074C97.8768 16.074 96.2849 14.1881 96.2849 11.7973C96.2849 8.62439 98.5147 6.46371 100.88 6.46371C103.11 6.46371 104.657 8.34958 104.657 10.7404C104.657 13.9133 102.472 16.0752 100.107 16.0752V16.074Z" fill="white"/>
<path fill-rule="evenodd" clip-rule="evenodd" d="M74.9122 0.577103H67.4502L69.3163 21.9595H78.5073L90.1105 0.577103H81.7375L75.6408 13.8664L74.9122 0.577103Z" fill="white"/>
<path d="M64.3618 8.24306H62.2215C59.1239 8.24306 58.077 9.39382 57.6668 12.1098L55.982 21.9606H48.8315L52.4742 0.556416H59.3516L58.759 3.9629C60.0348 1.70718 61.416 0.556416 63.7386 0.556416H65.6376L64.3618 8.24306V8.24306Z" fill="white"/>
<path fill-rule="evenodd" clip-rule="evenodd" d="M23.0938 12.4409C23.0938 18.3264 26.8248 22.5115 31.7387 22.5115C34.7876 22.5115 36.7443 20.7642 37.4717 19.3386L36.9709 21.9596H44.1599L47.8003 0.577181H40.6691L40.123 3.78329C39.6233 2.54092 38.0632 0.0252724 33.8778 0.0252724C28.0541 0.0252724 23.0938 4.8997 23.0938 12.4409V12.4409ZM34.0602 16.0741C31.8304 16.0741 30.2386 14.1882 30.2386 11.7974C30.2386 8.62451 32.4683 6.46382 34.8341 6.46382C37.0638 6.46382 38.6104 8.3497 38.6104 10.7405C38.6104 13.9134 36.4259 16.0753 34.0602 16.0753V16.0741Z" fill="white"/>
<path fill-rule="evenodd" clip-rule="evenodd" d="M14.9282 13.7691C14.1611 15.2885 12.7063 16.0477 11.1031 16.0477C8.79289 16.0477 7.31657 14.1618 7.35849 11.771C7.41515 8.50649 9.52482 6.4374 11.9767 6.4374C13.615 6.4374 14.8557 7.32595 15.4018 8.76412L22.1308 6.19122C20.5717 2.32557 16.8373 0 12.1353 0C5.48789 0 0.123054 4.87443 0.00182153 11.9095C-0.108081 18.3011 4.76955 22.4863 10.7564 22.4863C15.08 22.4863 19.2654 20.629 21.4147 16.5504L14.9282 13.7702V13.7691Z" fill="white"/>
</g>
</svg>
